<svg width="200" height="200" viewBox="0 0 200 200" fill="none" xmlns="http://www.w3.org/2000/svg">
<mask id="mask0_160_802" style="mask-type:luminance" maskUnits="userSpaceOnUse" x="0" y="0" width="200" height="200">
<path d="M0 -2.98023e-06H200V200H0V-2.98023e-06Z" fill="white"/>
</mask>
<g mask="url(#mask0_160_802)">
<path d="M16.4233 105.271C16.4233 105.271 17.3609 134.342 41.6285 153.718C65.8961 173.094 99.5233 174.482 126.746 176.322C153.969 178.162 174.879 162.752 178.03 139.456C181.181 116.161 160.38 109.322 149.093 82.8044C137.807 56.2864 138.812 47.57 114.931 31.2604C91.0509 14.9508 53.6941 24.9656 34.1077 52.9064C14.5217 80.8472 16.4233 105.271 16.4233 105.271Z" fill="#F16767"/>
<mask id="mask1_160_802" style="mask-type:luminance" maskUnits="userSpaceOnUse" x="16" y="23" width="163" height="154">
<path d="M16.373 23.4111H178.351V176.471H16.373V23.4111Z" fill="white"/>
</mask>
<g mask="url(#mask1_160_802)">
<g opacity="0.699997">
<path d="M16.4233 105.271C16.4233 105.271 17.3609 134.342 41.6285 153.718C65.8961 173.094 99.5233 174.482 126.746 176.322C153.969 178.162 174.879 162.752 178.03 139.456C181.181 116.161 160.38 109.322 149.093 82.8044C137.807 56.2864 138.812 47.57 114.931 31.2604C91.0509 14.9508 53.6941 24.9656 34.1077 52.9064C14.5217 80.8472 16.4233 105.271 16.4233 105.271Z" fill="white"/>
</g>
</g>
</g>
<path d="M27.4669 152.213H23.7961" stroke="#1A2E35" stroke-miterlimit="10"/>
<path d="M176.204 152.213H33.2781" stroke="#1A2E35" stroke-miterlimit="10"/>
<mask id="mask2_160_802" style="mask-type:luminance" maskUnits="userSpaceOnUse" x="0" y="0" width="200" height="200">
<path d="M0 -2.98023e-06H200V200H0V-2.98023e-06Z" fill="white"/>
</mask>
<g mask="url(#mask2_160_802)">
<path d="M134.585 164.219C134.585 166.065 129.142 167.562 122.427 167.562C115.712 167.562 110.269 166.065 110.269 164.219C110.269 162.372 115.712 160.876 122.427 160.876C129.142 160.876 134.585 162.372 134.585 164.219Z" fill="#1A2E35"/>
<path d="M59.6104 171.816C46.9608 171.816 45.0936 169.987 44.9092 168.512C44.8292 167.873 45.0228 167.303 45.4848 166.818C48.8936 163.244 68.53 164.756 95.7088 166.848C99.4992 167.141 103.42 167.442 107.441 167.741C134.902 169.782 145.957 169.516 148.23 166.758C148.696 166.192 148.794 165.487 148.534 164.538C147.448 160.555 132.906 160.524 127.395 160.847C127.134 160.86 126.908 160.662 126.893 160.401C126.878 160.139 127.077 159.914 127.34 159.898C129.447 159.775 147.967 158.845 149.452 164.288C149.794 165.543 149.634 166.549 148.964 167.363C146.398 170.475 135.904 170.808 107.37 168.689C103.349 168.39 99.4272 168.088 95.6356 167.796C69.7308 165.801 49.2696 164.225 46.1728 167.474C45.91 167.75 45.8084 168.042 45.852 168.394C45.9696 169.335 48.2312 171.446 66.6564 170.71C76.9472 170.3 87.2884 169.18 87.392 169.168C87.6508 169.14 87.8872 169.328 87.916 169.59C87.9444 169.85 87.756 170.085 87.4948 170.113C87.3916 170.124 77.022 171.249 66.6984 171.66C64.0228 171.767 61.6732 171.816 59.6104 171.816Z" fill="white"/>
<path d="M59.6104 171.816C46.9608 171.816 45.0936 169.987 44.9092 168.512C44.8292 167.873 45.0228 167.303 45.4848 166.818C48.8936 163.244 68.53 164.756 95.7088 166.848C99.4992 167.141 103.42 167.442 107.441 167.741C134.902 169.782 145.957 169.516 148.23 166.758C148.696 166.192 148.794 165.487 148.534 164.538C147.448 160.555 132.906 160.524 127.395 160.847C127.134 160.86 126.908 160.662 126.893 160.401C126.878 160.139 127.077 159.914 127.34 159.898C129.447 159.775 147.967 158.845 149.452 164.288C149.794 165.543 149.634 166.549 148.964 167.363C146.398 170.475 135.904 170.808 107.37 168.689C103.349 168.39 99.4272 168.088 95.6356 167.796C69.7308 165.801 49.2696 164.225 46.1728 167.474C45.91 167.75 45.8084 168.042 45.852 168.394C45.9696 169.335 48.2312 171.446 66.6564 170.71C76.9472 170.3 87.2884 169.18 87.392 169.168C87.6508 169.14 87.8872 169.328 87.916 169.59C87.9444 169.85 87.756 170.085 87.4948 170.113C87.3916 170.124 77.022 171.249 66.6984 171.66C64.0228 171.767 61.6732 171.816 59.6104 171.816Z" stroke="#1A2E35" stroke-miterlimit="10"/>
<path d="M132.231 152.832C132.231 144.923 125.818 138.51 117.908 138.51C109.998 138.51 103.586 144.923 103.586 152.832C103.586 160.742 109.998 167.155 117.908 167.155C125.818 167.155 132.231 160.742 132.231 152.832Z" fill="white"/>
</g>
<mask id="mask3_160_802" style="mask-type:luminance" maskUnits="userSpaceOnUse" x="103" y="138" width="30" height="30">
<path d="M103.586 152.832C103.586 160.743 109.998 167.155 117.908 167.155C125.818 167.155 132.23 160.743 132.23 152.832C132.23 144.922 125.818 138.51 117.908 138.51C109.998 138.51 103.586 144.922 103.586 152.832Z" fill="white"/>
</mask>
<g mask="url(#mask3_160_802)">
<path d="M117.908 167.155C125.818 167.155 132.231 160.743 132.231 152.832C132.231 149.84 131.311 147.063 129.742 144.765C129.583 151.003 126.133 160.215 108.228 163.386C110.777 165.726 114.175 167.155 117.908 167.155Z" fill="#F16767"/>
<mask id="mask4_160_802" style="mask-type:luminance" maskUnits="userSpaceOnUse" x="108" y="144" width="25" height="24">
<path d="M108.228 144.765H132.23V167.155H108.228V144.765Z" fill="white"/>
</mask>
<g mask="url(#mask4_160_802)">
<g opacity="0.300003">
<path d="M117.908 167.155C125.818 167.155 132.231 160.743 132.231 152.832C132.231 149.84 131.311 147.063 129.742 144.765C129.583 151.003 126.133 160.215 108.228 163.386C110.777 165.726 114.175 167.155 117.908 167.155Z" fill="white"/>
</g>
</g>
<path d="M128.194 155.533C122.487 149.972 116.194 149.679 116.194 149.679M124.958 158.447C120.751 154.331 115.902 153.045 115.902 153.045M124.958 158.447C125.21 158.451 125.458 158.458 125.716 158.458C127.702 156.458 129.08 154.524 130.032 152.832M124.958 158.447C119.065 158.362 114.583 157.454 111.219 156.257C111.436 147.209 114.664 141.179 116.352 138.626C116.884 138.567 117.425 138.533 117.973 138.533C118.462 138.533 118.946 138.558 119.422 138.606M130.032 152.832C123.322 145.735 116.78 146.46 116.78 146.46M130.032 152.832C130.402 152.174 130.709 151.554 130.961 150.98C128.187 147.069 123.381 144.416 120.784 144.007L120.184 143.866M120.184 143.866C118.447 143.592 117.365 143.826 117.365 143.826M120.184 143.866L121.893 139.08C121.095 138.854 120.27 138.691 119.422 138.606M119.422 138.606C118.318 140.392 115.463 146.104 115.463 157.435" stroke="#1A2E35" stroke-miterlimit="10" stroke-linecap="round" stroke-linejoin="round"/>
<path d="M111.219 156.256C111.436 147.209 114.663 141.179 116.351 138.626C115.005 138.778 113.714 139.115 112.507 139.614C110.68 142.275 107.802 147.558 107.567 154.652C108.603 155.211 109.816 155.758 111.219 156.256Z" stroke="#1A2E35" stroke-miterlimit="10" stroke-linecap="round" stroke-linejoin="round"/>
<path d="M112.507 139.614C107.581 141.645 104.036 146.338 103.659 151.902C104.533 152.719 105.8 153.7 107.567 154.652C107.802 147.558 110.681 142.276 112.507 139.614Z" stroke="#1A2E35" stroke-miterlimit="10" stroke-linecap="round" stroke-linejoin="round"/>
<path d="M128.695 143.35C130.09 144.917 131.144 146.791 131.747 148.858C131.572 149.451 131.319 150.167 130.961 150.98C126.843 145.818 122.78 144.274 120.183 143.866L121.893 139.08C123.247 139.463 124.519 140.04 125.678 140.779M128.695 143.35L127.609 147.045M128.695 143.35C127.815 142.36 126.799 141.495 125.678 140.779M125.678 140.779L124.455 145.344" stroke="#1A2E35" stroke-miterlimit="10" stroke-linecap="round" stroke-linejoin="round"/>
<path d="M130.961 150.98C131.319 150.167 131.572 149.45 131.747 148.858C132.12 150.136 132.324 151.486 132.324 152.884C132.324 153.093 132.317 153.301 132.308 153.508C126.258 161.982 121.592 165.641 118.694 167.216C118.455 167.228 118.215 167.234 117.973 167.234C116.466 167.234 115.013 167.001 113.649 166.57C115.52 165.71 117.211 164.812 118.724 163.891M130.961 150.98C130.966 150.986 130.97 150.991 130.974 150.996M130.961 150.98C130.709 151.554 130.723 151.546 130.353 152.204C130.375 152.227 130.01 152.809 130.031 152.832C130.01 152.809 129.65 153.552 129.628 153.529C128.677 155.22 125.806 158.46 125.852 158.46C125.806 158.46 124.301 159.824 123.478 160.511M123.478 160.511C123.489 160.51 123.5 160.51 123.511 160.508M123.478 160.511C122.117 161.648 120.543 162.784 118.724 163.891M118.724 163.891C118.758 163.885 118.794 163.881 118.828 163.874" stroke="#1A2E35" stroke-miterlimit="10" stroke-linecap="round" stroke-linejoin="round"/>
<path d="M132.308 153.508C126.258 161.983 121.592 165.642 118.694 167.217C126.078 166.851 131.991 160.905 132.308 153.508Z" stroke="#1A2E35" stroke-miterlimit="10" stroke-linecap="round" stroke-linejoin="round"/>
<path d="M106.756 161.83C108.513 164.03 110.901 165.703 113.648 166.57C115.52 165.71 117.211 164.812 118.724 163.891C115.308 164.522 109.966 162.956 106.756 161.83Z" stroke="#1A2E35" stroke-miterlimit="10" stroke-linecap="round" stroke-linejoin="round"/>
<path d="M118.724 163.892C120.543 162.785 122.118 161.648 123.478 160.512C113.165 161.567 106.8 158.374 104.098 156.556C104.614 158.508 105.532 160.297 106.756 161.83C109.966 162.957 115.308 164.523 118.724 163.892Z" stroke="#1A2E35" stroke-miterlimit="10" stroke-linecap="round" stroke-linejoin="round"/>
<path d="M124.958 158.448C125.21 158.451 125.458 158.458 125.716 158.458C125.041 159.138 124.301 159.824 123.478 160.512C113.165 161.567 106.801 158.374 104.098 156.556C103.789 155.384 103.622 154.154 103.622 152.885C103.622 152.554 103.637 152.227 103.659 151.902C104.533 152.719 106.303 154.554 111.219 156.257M124.958 158.448C125.012 158.501 125.067 158.553 125.121 158.607M124.958 158.448C119.065 158.363 114.583 157.454 111.219 156.257M111.219 156.257V156.265" stroke="#1A2E35" stroke-miterlimit="10" stroke-linecap="round" stroke-linejoin="round"/>
</g>
<mask id="mask5_160_802" style="mask-type:luminance" maskUnits="userSpaceOnUse" x="0" y="0" width="200" height="200">
<path d="M0 -2.98023e-06H200V200H0V-2.98023e-06Z" fill="white"/>
</mask>
<g mask="url(#mask5_160_802)">
<path d="M132.23 152.832C132.23 144.923 125.818 138.51 117.908 138.51C109.998 138.51 103.586 144.923 103.586 152.832C103.586 160.742 109.998 167.155 117.908 167.155C125.818 167.155 132.23 160.742 132.23 152.832Z" stroke="#1A2E35" stroke-miterlimit="10" stroke-linecap="round" stroke-linejoin="round"/>
</g>
<mask id="mask6_160_802" style="mask-type:luminance" maskUnits="userSpaceOnUse" x="0" y="0" width="200" height="200">
<path d="M0 -2.98023e-06H200V200H0V-2.98023e-06Z" fill="white"/>
</mask>
<g mask="url(#mask6_160_802)">
<path d="M144.292 128.353C144.292 128.353 143.313 125.171 140.457 124.028C138.471 123.234 136.186 123.442 134.13 123.799C130.298 124.466 126.953 125.99 123.319 127.293C123.319 127.293 124.87 126.721 131.235 129.822C133.58 130.964 136.261 131.851 138.942 131.791C141.096 131.743 144.395 131.129 144.292 128.353Z" fill="#F16767"/>
<path d="M144.638 119.004C144.638 119.004 144.619 115.674 142.215 113.755C140.544 112.421 138.296 111.961 136.224 111.709C132.362 111.24 128.72 111.732 124.865 111.93C124.865 111.93 126.515 111.831 131.713 116.639C133.628 118.409 135.938 120.032 138.522 120.749C140.598 121.325 143.934 121.691 144.638 119.004Z" fill="#F16767"/>
<path d="M151.218 131.368C151.218 131.368 148.62 129.285 148.612 126.208C148.606 124.07 149.641 122.023 150.732 120.243C152.764 116.926 155.414 114.379 157.964 111.482C157.964 111.482 156.862 112.713 157.397 119.773C157.594 122.373 157.43 125.192 156.386 127.662C155.546 129.646 153.76 132.487 151.218 131.368Z" fill="#F16767"/>
<path d="M160.416 136.482C160.416 136.482 160.049 133.172 162.215 130.988C163.721 129.47 165.9 128.752 167.929 128.262C171.711 127.35 175.385 127.418 179.237 127.168C179.237 127.168 177.587 127.261 172.98 132.638C171.283 134.618 169.175 136.497 166.692 137.508C164.697 138.32 161.425 139.07 160.416 136.482Z" fill="#F16767"/>
<path d="M159.813 124.685C159.813 124.685 156.514 124.231 154.926 121.597C153.822 119.765 153.659 117.477 153.681 115.389C153.721 111.499 154.686 107.953 155.387 104.158C155.387 104.158 155.072 105.78 159.159 111.562C160.664 113.692 161.97 116.195 162.343 118.851C162.642 120.984 162.569 124.339 159.813 124.685Z" fill="#F16767"/>
<path d="M169.307 118.761C169.307 118.761 171.68 121.097 174.736 120.747C176.86 120.503 178.773 119.236 180.413 117.945C183.469 115.539 185.69 112.61 188.269 109.739C188.269 109.739 187.176 110.978 180.101 111.27C177.496 111.378 174.715 111.87 172.384 113.196C170.512 114.261 167.898 116.367 169.307 118.761Z" fill="#F16767"/>
<path d="M166.559 116.451C166.559 116.451 169.872 116.783 172.034 114.595C173.536 113.074 174.232 110.887 174.7 108.853C175.574 105.062 175.468 101.389 175.678 97.5343C175.678 97.5343 175.602 99.1851 170.274 103.847C168.311 105.565 166.454 107.691 165.468 110.185C164.676 112.189 163.961 115.468 166.559 116.451Z" fill="#F16767"/>
<path d="M154.73 148.696L149.012 134.62L142.414 118.345" stroke="#1A2E35" stroke-miterlimit="10" stroke-linecap="round" stroke-linejoin="round"/>
<path d="M156.051 146.277L161.769 126.703L167.927 114.607" stroke="#1A2E35" stroke-miterlimit="10" stroke-linecap="round" stroke-linejoin="round"/>
<path d="M158.25 138.58L163.968 135.28" stroke="#1A2E35" stroke-miterlimit="10" stroke-linecap="round" stroke-linejoin="round"/>
<path d="M161.768 126.703L158.909 120.326" stroke="#1A2E35" stroke-miterlimit="10" stroke-linecap="round" stroke-linejoin="round"/>
<path d="M165.346 120.357L172.325 117.246" stroke="#1A2E35" stroke-miterlimit="10" stroke-linecap="round" stroke-linejoin="round"/>
<path d="M150.112 137.259L152.531 127.582" stroke="#1A2E35" stroke-miterlimit="10" stroke-linecap="round" stroke-linejoin="round"/>
<path d="M146.903 129.904L141.315 126.923" stroke="#1A2E35" stroke-miterlimit="10" stroke-linecap="round" stroke-linejoin="round"/>
<path d="M157.665 155.734H152.896C151.287 155.734 149.907 154.59 149.607 153.01L147.913 144.077H162.648L160.955 153.01C160.655 154.59 159.274 155.734 157.665 155.734Z" fill="#1A2E35"/>
<path d="M157.665 155.734H152.896C151.287 155.734 149.907 154.59 149.607 153.01L147.913 144.077H162.648L160.955 153.01C160.655 154.59 159.274 155.734 157.665 155.734Z" stroke="#1A2E35" stroke-miterlimit="10" stroke-linecap="round" stroke-linejoin="round"/>
</g>
<mask id="mask7_160_802" style="mask-type:luminance" maskUnits="userSpaceOnUse" x="0" y="0" width="200" height="200">
<path d="M0 -2.98023e-06H200V200H0V-2.98023e-06Z" fill="white"/>
</mask>
<g mask="url(#mask7_160_802)">
<path d="M92.461 136.913C83.5546 136.913 78.2046 129.011 76.3034 122.063L76.239 121.819C75.8758 120.421 76.7146 118.994 78.1118 118.631C79.5098 118.271 80.9362 119.107 81.2994 120.504L81.3466 120.685C82.7938 125.973 86.7254 132.017 93.0318 131.669C95.547 131.527 97.5726 130.538 99.2242 128.646C102.685 124.681 104.232 116.05 103.887 111.699C103.795 110.548 104.655 109.541 105.805 109.449C106.965 109.358 107.964 110.217 108.056 111.368C108.441 116.21 107.929 126.624 103.163 132.084C100.574 135.05 97.2646 136.666 93.3262 136.888C93.0342 136.904 92.7454 136.913 92.461 136.913Z" fill="white"/>
</g>
<mask id="mask8_160_802" style="mask-type:luminance" maskUnits="userSpaceOnUse" x="76" y="109" width="33" height="28">
<path d="M105.806 109.449C104.654 109.541 103.795 110.548 103.887 111.699C104.232 116.05 102.684 124.681 99.2244 128.647C97.5728 130.538 95.5472 131.527 93.032 131.669C86.7256 132.017 82.794 125.973 81.3472 120.685L81.2996 120.503C80.9364 119.107 79.51 118.271 78.112 118.631C76.7144 118.995 75.876 120.422 76.2392 121.819L76.3036 122.063C78.2044 129.011 83.5544 136.913 92.4608 136.913C92.7456 136.913 93.0344 136.905 93.326 136.888C97.2648 136.666 100.574 135.05 103.163 132.084C107.929 126.624 108.441 116.21 108.056 111.368C107.969 110.273 107.061 109.443 105.974 109.443C105.918 109.443 105.862 109.445 105.806 109.449Z" fill="white"/>
</mask>
<g mask="url(#mask8_160_802)">
<path d="M105.805 109.449C104.654 109.541 103.795 110.548 103.887 111.699C104.055 113.823 103.771 116.965 103.036 120.087C103.94 120.043 104.977 120.144 106.143 120.492C105.973 122.629 105.301 125.768 103.09 128.839C99.2055 134.235 93.3783 135.961 88.8463 135.314C86.8207 135.025 84.4939 133.959 82.5391 132.869C85.1243 135.289 88.4267 136.913 92.4611 136.913C92.7459 136.913 93.0343 136.905 93.3263 136.888C97.2647 136.666 100.574 135.05 103.163 132.084C107.929 126.625 108.441 116.21 108.056 111.368C107.964 110.217 106.965 109.358 105.805 109.449Z" fill="#F16767"/>
<mask id="mask9_160_802" style="mask-type:luminance" maskUnits="userSpaceOnUse" x="82" y="109" width="27" height="28">
<path d="M82.5396 109.442H108.158V136.913H82.5396V109.442Z" fill="white"/>
</mask>
<g mask="url(#mask9_160_802)">
<g opacity="0.5">
<path d="M105.805 109.449C104.654 109.541 103.795 110.548 103.887 111.699C104.055 113.823 103.771 116.965 103.036 120.087C103.94 120.043 104.977 120.144 106.143 120.492C105.973 122.629 105.301 125.768 103.09 128.839C99.2055 134.235 93.3783 135.961 88.8463 135.314C86.8207 135.025 84.4939 133.959 82.5391 132.869C85.1243 135.289 88.4267 136.913 92.4611 136.913C92.7459 136.913 93.0343 136.905 93.3263 136.888C97.2647 136.666 100.574 135.05 103.163 132.084C107.929 126.625 108.441 116.21 108.056 111.368C107.964 110.217 106.965 109.358 105.805 109.449Z" fill="white"/>
</g>
</g>
</g>
<mask id="mask10_160_802" style="mask-type:luminance" maskUnits="userSpaceOnUse" x="0" y="0" width="200" height="200">
<path d="M0 -2.98023e-06H200V200H0V-2.98023e-06Z" fill="white"/>
</mask>
<g mask="url(#mask10_160_802)">
<path d="M92.461 136.913C83.5546 136.913 78.2046 129.011 76.3034 122.063L76.239 121.819C75.8758 120.421 76.7146 118.994 78.1118 118.631C79.5098 118.271 80.9362 119.107 81.2994 120.504L81.3466 120.685C82.7938 125.973 86.7254 132.017 93.0318 131.669C95.547 131.527 97.5726 130.538 99.2242 128.646C102.685 124.681 104.232 116.05 103.887 111.699C103.795 110.548 104.655 109.541 105.805 109.449C106.965 109.358 107.964 110.217 108.056 111.368C108.441 116.21 107.929 126.624 103.163 132.084C100.574 135.05 97.2646 136.666 93.3262 136.888C93.0342 136.904 92.7454 136.913 92.461 136.913Z" stroke="#1A2E35" stroke-miterlimit="10" stroke-linecap="round" stroke-linejoin="round"/>
<path d="M87.3243 131.499C87.5343 130.519 85.1899 132.053 83.2263 133.48C83.9535 134.09 84.7327 134.637 85.5639 135.106C86.2647 133.968 87.1215 132.446 87.3243 131.499Z" fill="#F16767"/>
<path d="M87.3243 131.499C87.5343 130.519 85.1899 132.053 83.2263 133.48C83.9535 134.09 84.7327 134.637 85.5639 135.106C86.2647 133.968 87.1215 132.446 87.3243 131.499Z" stroke="#1A2E35" stroke-miterlimit="10" stroke-linecap="round" stroke-linejoin="round"/>
<path d="M92.461 136.913C92.7454 136.913 93.0342 136.904 93.3262 136.888C94.1994 136.839 95.0398 136.717 95.8506 136.531C94.747 135.09 93.229 133.19 92.7902 133.043C92.291 132.877 91.327 135.329 90.793 136.817C91.3346 136.879 91.8902 136.913 92.461 136.913Z" fill="#F16767"/>
<path d="M92.461 136.913C92.7454 136.913 93.0342 136.904 93.3262 136.888C94.1994 136.839 95.0398 136.717 95.8506 136.531C94.747 135.09 93.229 133.19 92.7902 133.043C92.291 132.877 91.327 135.329 90.793 136.817C91.3346 136.879 91.8902 136.913 92.461 136.913Z" stroke="#1A2E35" stroke-miterlimit="10" stroke-linecap="round" stroke-linejoin="round"/>
<path d="M81.3468 120.685L81.2992 120.504C80.936 119.107 79.51 118.271 78.112 118.632C76.7144 118.995 75.876 120.422 76.2392 121.82L76.3036 122.063C76.9348 124.37 77.9484 126.781 79.344 128.974L84.1076 126.705C82.8256 124.857 81.9024 122.716 81.3468 120.685Z" fill="#F16767"/>
<path d="M81.3468 120.685L81.2992 120.504C80.936 119.107 79.51 118.271 78.112 118.632C76.7144 118.995 75.876 120.422 76.2392 121.82L76.3036 122.063C76.9348 124.37 77.9484 126.781 79.344 128.974L84.1076 126.705C82.8256 124.857 81.9024 122.716 81.3468 120.685Z" stroke="#1A2E35" stroke-miterlimit="10" stroke-linecap="round" stroke-linejoin="round"/>
<path d="M103.163 132.084C103.527 131.667 103.864 131.218 104.179 130.747C102.669 130.231 100.404 129.521 99.5628 129.597C98.566 129.688 99.9188 132.888 100.617 134.402C101.53 133.753 102.38 132.981 103.163 132.084Z" fill="#F16767"/>
<path d="M103.163 132.084C103.527 131.667 103.864 131.218 104.179 130.747C102.669 130.231 100.404 129.521 99.5628 129.597C98.566 129.688 99.9188 132.888 100.617 134.402C101.53 133.753 102.38 132.981 103.163 132.084Z" stroke="#1A2E35" stroke-miterlimit="10" stroke-linecap="round" stroke-linejoin="round"/>
<path d="M103.246 123.538C103.088 123.855 105.044 125.282 106.364 126.197C106.784 124.962 107.116 123.677 107.373 122.388C105.771 122.707 103.403 123.225 103.246 123.538Z" fill="#F16767"/>
<path d="M103.246 123.538C103.088 123.855 105.044 125.282 106.364 126.197C106.784 124.962 107.116 123.677 107.373 122.388C105.771 122.707 103.403 123.225 103.246 123.538Z" stroke="#1A2E35" stroke-miterlimit="10" stroke-linecap="round" stroke-linejoin="round"/>
<path d="M108.021 117.621C108.109 116.481 108.151 115.392 108.156 114.391C106.781 115.15 105.147 116.196 105.147 116.884C105.147 117.549 106.676 117.656 108.021 117.621Z" fill="#F16767"/>
<path d="M108.021 117.621C108.109 116.481 108.151 115.392 108.156 114.391C106.781 115.15 105.147 116.196 105.147 116.884C105.147 117.549 106.676 117.656 108.021 117.621Z" stroke="#1A2E35" stroke-miterlimit="10" stroke-linecap="round" stroke-linejoin="round"/>
<path d="M86.483 86.6723C86.483 86.6723 82.601 97.9203 84.6914 106.68C86.7818 115.439 94.4462 118.325 94.4462 118.325C94.4462 118.325 88.7726 120.316 90.0662 123.402C91.3602 126.487 96.2378 124.497 97.8306 123.501C99.423 122.506 101.414 119.52 101.712 117.529C102.011 115.538 101.911 114.443 101.911 114.443C101.911 114.443 108.381 113.747 112.761 110.163C112.761 110.163 116.643 113.249 119.43 112.652C122.217 112.055 126.199 107.078 125.801 102.598C125.403 98.1191 122.815 98.1191 121.222 98.8159C119.629 99.5127 119.032 100.209 119.032 100.209C119.032 100.209 121.322 97.4223 119.032 93.5403C116.743 89.6583 112.661 89.3599 112.661 89.3599C112.661 89.3599 111.467 82.9891 107.884 80.6003C104.301 78.2115 91.5594 75.7231 86.483 86.6723Z" fill="white"/>
</g>
<mask id="mask11_160_802" style="mask-type:luminance" maskUnits="userSpaceOnUse" x="84" y="78" width="42" height="48">
<path d="M86.4832 86.6724C86.4832 86.6724 82.6012 97.9204 84.6916 106.68C86.782 115.439 94.4464 118.325 94.4464 118.325C94.4464 118.325 88.7728 120.316 90.0668 123.402C91.3604 126.488 96.2376 124.497 97.8308 123.502C99.4232 122.506 101.414 119.52 101.712 117.53C102.012 115.538 101.912 114.444 101.912 114.444C101.912 114.444 108.382 113.747 112.761 110.164C112.761 110.164 116.643 113.249 119.43 112.652C122.218 112.054 126.199 107.078 125.801 102.598C125.403 98.1192 122.815 98.1192 121.222 98.816C119.63 99.5128 119.032 100.21 119.032 100.21C119.032 100.21 121.322 97.4224 119.032 93.5404C116.743 89.6584 112.662 89.3596 112.662 89.3596C112.662 89.3596 111.468 82.9892 107.884 80.6004C106.352 79.5792 103.147 78.5396 99.582 78.5396C94.808 78.5396 89.3896 80.4036 86.4832 86.6724Z" fill="white"/>
</mask>
<g mask="url(#mask11_160_802)">
<path d="M121.222 98.816C119.63 99.5128 119.032 100.21 119.032 100.21C119.032 100.21 119.724 99.3612 119.965 97.9536C114.585 100.631 115.005 106.361 114.335 106.361C113.514 106.361 113.102 103.484 113.102 103.484C113.102 103.484 112.075 107.594 105.911 110.47C99.7467 113.347 92.7603 111.087 92.7603 111.087C92.7603 111.087 94.1987 114.374 90.5003 113.963C89.2507 113.824 88.3119 113.402 87.6087 112.907C90.5959 116.872 94.4463 118.325 94.4463 118.325C94.4463 118.325 88.7727 120.316 90.0667 123.402C91.3607 126.488 96.2383 124.497 97.8307 123.502C99.4231 122.506 101.414 119.52 101.713 117.529C102.011 115.538 101.912 114.443 101.912 114.443C101.912 114.443 108.381 113.747 112.761 110.163C112.761 110.163 116.643 113.249 119.431 112.652C122.217 112.055 126.199 107.078 125.801 102.598C125.403 98.1192 122.815 98.1192 121.222 98.816ZM116.057 90.5412C113.237 95.2384 107.515 100.64 98.5139 101.429C90.5923 102.124 86.1523 100.564 84.1055 99.4808C84.3815 92.7692 86.4831 86.6724 86.4831 86.6724C91.5599 75.7232 104.301 78.2116 107.884 80.6004C111.467 82.9892 112.662 89.3596 112.662 89.3596C112.662 89.3596 114.284 89.4808 116.057 90.5412Z" fill="#F16767"/>
<mask id="mask12_160_802" style="mask-type:luminance" maskUnits="userSpaceOnUse" x="84" y="78" width="42" height="48">
<path d="M84.1055 78.5394H125.829V125.057H84.1055V78.5394Z" fill="white"/>
</mask>
<g mask="url(#mask12_160_802)">
<g opacity="0.5">
<path d="M121.222 98.816C119.63 99.5128 119.032 100.21 119.032 100.21C119.032 100.21 119.724 99.3612 119.965 97.9536C114.585 100.631 115.005 106.361 114.335 106.361C113.514 106.361 113.102 103.484 113.102 103.484C113.102 103.484 112.075 107.594 105.911 110.47C99.7464 113.347 92.76 111.087 92.76 111.087C92.76 111.087 94.1984 114.374 90.5 113.963C89.2504 113.824 88.3116 113.402 87.6084 112.907C90.5956 116.872 94.446 118.325 94.446 118.325C94.446 118.325 88.7724 120.316 90.0664 123.402C91.3604 126.488 96.238 124.497 97.8304 123.502C99.4228 122.506 101.414 119.52 101.712 117.529C102.011 115.538 101.912 114.443 101.912 114.443C101.912 114.443 108.381 113.747 112.761 110.163C112.761 110.163 116.643 113.249 119.43 112.652C122.217 112.055 126.199 107.078 125.8 102.598C125.402 98.1192 122.814 98.1192 121.222 98.816ZM116.057 90.5412C113.236 95.2384 107.515 100.64 98.5136 101.429C90.592 102.124 86.152 100.564 84.1052 99.4808C84.3812 92.7692 86.4828 86.6724 86.4828 86.6724C91.5596 75.7232 104.3 78.2116 107.884 80.6004C111.467 82.9892 112.662 89.3596 112.662 89.3596C112.662 89.3596 114.284 89.4808 116.057 90.5412Z" fill="white"/>
</g>
</g>
<path d="M101.912 114.443C101.912 114.443 95.2856 114.983 90.6516 109.279" stroke="#1A2E35" stroke-miterlimit="10" stroke-linecap="round" stroke-linejoin="round"/>
</g>
<mask id="mask13_160_802" style="mask-type:luminance" maskUnits="userSpaceOnUse" x="0" y="0" width="200" height="200">
<path d="M0 -2.98023e-06H200V200H0V-2.98023e-06Z" fill="white"/>
</mask>
<g mask="url(#mask13_160_802)">
<path d="M86.4832 86.6723C86.4832 86.6723 82.6012 97.9203 84.6916 106.68C86.782 115.439 94.4464 118.325 94.4464 118.325C94.4464 118.325 88.7728 120.316 90.0664 123.402C91.3604 126.487 96.238 124.497 97.8308 123.501C99.4232 122.506 101.414 119.52 101.712 117.529C102.011 115.538 101.912 114.443 101.912 114.443C101.912 114.443 108.382 113.747 112.761 110.163C112.761 110.163 116.643 113.249 119.43 112.652C122.218 112.055 126.199 107.078 125.801 102.598C125.403 98.1191 122.815 98.1191 121.222 98.8159C119.63 99.5127 119.032 100.209 119.032 100.209C119.032 100.209 121.322 97.4223 119.032 93.5403C116.743 89.6583 112.662 89.3599 112.662 89.3599C112.662 89.3599 111.468 82.9891 107.884 80.6003C104.301 78.2115 91.5596 75.7231 86.4832 86.6723Z" stroke="#1A2E35" stroke-miterlimit="10" stroke-linecap="round" stroke-linejoin="round"/>
<path d="M119.032 100.21C119.032 100.21 116.942 101.603 115.946 105.883" stroke="#1A2E35" stroke-miterlimit="10" stroke-linecap="round" stroke-linejoin="round"/>
<path d="M122.869 102.04C122.623 102.769 121.957 103.202 121.381 103.008C120.806 102.814 120.539 102.066 120.784 101.336C121.03 100.607 121.696 100.173 122.272 100.368C122.848 100.562 123.115 101.31 122.869 102.04Z" fill="white"/>
<path d="M122.869 102.04C122.623 102.769 121.957 103.202 121.381 103.008C120.806 102.814 120.539 102.066 120.784 101.336C121.03 100.607 121.696 100.173 122.272 100.368C122.848 100.562 123.115 101.31 122.869 102.04Z" stroke="#1A2E35" stroke-miterlimit="10" stroke-linecap="round" stroke-linejoin="round"/>
<path d="M124.928 103.336C124.682 104.065 124.016 104.499 123.44 104.305C122.865 104.111 122.598 103.362 122.844 102.633C123.09 101.904 123.756 101.47 124.331 101.664C124.907 101.858 125.174 102.607 124.928 103.336Z" fill="white"/>
<path d="M124.928 103.336C124.682 104.065 124.016 104.499 123.44 104.305C122.865 104.111 122.598 103.362 122.844 102.633C123.09 101.904 123.756 101.47 124.331 101.664C124.907 101.858 125.174 102.607 124.928 103.336Z" stroke="#1A2E35" stroke-miterlimit="10" stroke-linecap="round" stroke-linejoin="round"/>
<path d="M125.367 105.275C125.188 105.804 124.705 106.119 124.287 105.979C123.868 105.837 123.675 105.294 123.853 104.764C124.032 104.234 124.516 103.919 124.934 104.061C125.352 104.201 125.546 104.745 125.367 105.275Z" fill="white"/>
<path d="M125.367 105.275C125.188 105.804 124.705 106.119 124.287 105.979C123.868 105.837 123.675 105.294 123.853 104.764C124.032 104.234 124.516 103.919 124.934 104.061C125.352 104.201 125.546 104.745 125.367 105.275Z" stroke="#1A2E35" stroke-miterlimit="10" stroke-linecap="round" stroke-linejoin="round"/>
<path d="M122.74 107.94C122.02 109.238 120.58 109.816 119.522 109.23C118.464 108.644 118.189 107.116 118.908 105.818C119.628 104.519 121.068 103.942 122.126 104.528C123.184 105.114 123.459 106.642 122.74 107.94Z" fill="white"/>
<path d="M122.74 107.94C122.02 109.238 120.58 109.816 119.522 109.23C118.464 108.644 118.189 107.116 118.908 105.818C119.628 104.519 121.068 103.942 122.126 104.528C123.184 105.114 123.459 106.642 122.74 107.94Z" stroke="#1A2E35" stroke-miterlimit="10" stroke-linecap="round" stroke-linejoin="round"/>
<path d="M94.4463 118.325C94.4463 118.325 96.2379 119.321 98.7267 118.624" stroke="#1A2E35" stroke-miterlimit="10" stroke-linecap="round" stroke-linejoin="round"/>
<path d="M90.0664 123.402C90.0664 123.402 90.4648 121.71 92.9532 120.516" stroke="#1A2E35" stroke-miterlimit="10" stroke-linecap="round" stroke-linejoin="round"/>
<path d="M92.5549 124.895C92.5549 124.895 93.5501 122.506 95.2425 121.411" stroke="#1A2E35" stroke-miterlimit="10" stroke-linecap="round" stroke-linejoin="round"/>
<path d="M52.0152 78.775V45.8142L31.5004 78.775H52.0152ZM53.3028 97.3582C52.4444 96.6718 52.0152 95.7278 52.0152 94.5258V85.041H27.552C26.2356 85.041 25.17 84.5978 24.3548 83.7106C23.5396 82.8242 23.1316 81.7794 23.1316 80.5774C23.1316 79.6334 23.4032 78.747 23.9472 77.9166L47.38 41.0934C49.1248 38.3754 51.4572 37.0162 54.3756 37.0162C56.0924 37.0162 57.5228 37.517 58.6672 38.5182C59.8116 39.5202 60.384 41.0078 60.384 42.9818V78.775H66.6068C67.6084 78.775 68.3808 79.083 68.9248 79.6978C69.4676 80.3134 69.74 81.0498 69.74 81.9082C69.74 82.7666 69.4676 83.5034 68.9248 84.1182C68.3808 84.7338 67.6084 85.041 66.6068 85.041H60.3412V94.5258C60.3412 95.7278 59.926 96.6718 59.0968 97.3582C58.2664 98.045 57.308 98.3882 56.2212 98.3882C55.1332 98.3882 54.1608 98.045 53.3028 97.3582Z" fill="#1A2E35"/>
<path d="M100.276 91.4999C101.549 90.9419 102.622 90.2127 103.495 89.3111C104.368 88.4099 105.126 87.2875 105.77 85.9423C106.413 84.5975 106.921 83.2383 107.293 81.8651C107.665 80.4915 107.959 78.9399 108.173 77.2083C108.388 75.4775 108.53 73.8899 108.602 72.4447C108.674 70.9999 108.71 69.4335 108.71 67.7451C108.71 65.9715 108.674 64.3331 108.602 62.8311C108.53 61.3291 108.38 59.7127 108.152 57.9815C107.922 56.2503 107.622 54.6983 107.25 53.3247C106.878 51.9511 106.371 50.6071 105.727 49.2907C105.083 47.9747 104.325 46.8731 103.452 45.9859C102.579 45.0995 101.513 44.3915 100.255 43.8615C98.9956 43.3323 97.5792 43.0675 96.0056 43.0675C94.4316 43.0675 93.0156 43.3323 91.7568 43.8615C90.4976 44.3915 89.4392 45.0919 88.5812 45.9643C87.7224 46.8375 86.964 47.9319 86.3064 49.2479C85.6476 50.5639 85.14 51.9083 84.7828 53.2819C84.4248 54.6551 84.1316 56.2151 83.9028 57.9599C83.6736 59.7055 83.5236 61.3291 83.4524 62.8311C83.3804 64.3331 83.3452 65.9715 83.3452 67.7451C83.3452 69.4335 83.3804 71.0071 83.4524 72.4659C83.5236 73.9251 83.6668 75.5203 83.8816 77.2511C84.096 78.9827 84.3892 80.5347 84.7612 81.9079C85.1332 83.2815 85.6412 84.6407 86.2848 85.9851C86.9288 87.3303 87.68 88.4459 88.538 89.3327C89.3964 90.2199 90.462 90.9419 91.7356 91.4999C93.0084 92.0583 94.4316 92.3371 96.0056 92.3371C97.5792 92.3371 99.0028 92.0583 100.276 91.4999ZM87.2504 97.5512C84.7036 96.3928 82.6368 94.8476 81.0492 92.9163C79.4608 90.9847 78.1588 88.6319 77.1432 85.8563C76.1272 83.0815 75.4192 80.2339 75.0188 77.3159C74.618 74.3971 74.418 71.2075 74.418 67.7451C74.418 46.6583 81.6136 36.1151 96.0056 36.1151C110.368 36.1151 117.551 46.6583 117.551 67.7451C117.551 71.1787 117.358 74.3543 116.972 77.2731C116.585 80.1911 115.884 83.0387 114.868 85.8135C113.852 88.5891 112.551 90.9419 110.962 92.8735C109.375 94.8048 107.308 96.3572 104.761 97.53C102.214 98.7028 99.2956 99.2896 96.0056 99.2896C92.7152 99.2896 89.7968 98.7104 87.2504 97.5512Z" fill="#1A2E35"/>
<path d="M153.344 78.775V45.8142L132.829 78.775H153.344ZM154.631 97.3582C153.773 96.6718 153.344 95.7278 153.344 94.5258V85.041H128.881C127.564 85.041 126.499 84.5978 125.684 83.7106C124.868 82.8242 124.461 81.7794 124.461 80.5774C124.461 79.6334 124.732 78.747 125.275 77.9166L148.709 41.0934C150.453 38.3754 152.786 37.0162 155.704 37.0162C157.421 37.0162 158.851 37.517 159.996 38.5182C161.14 39.5202 161.713 41.0078 161.713 42.9818V78.775H167.935C168.937 78.775 169.709 79.083 170.253 79.6978C170.797 80.3134 171.069 81.0498 171.069 81.9082C171.069 82.7666 170.797 83.5034 170.253 84.1182C169.709 84.7338 168.937 85.041 167.935 85.041H161.669V94.5258C161.669 95.7278 161.255 96.6718 160.425 97.3582C159.595 98.045 158.637 98.3882 157.55 98.3882C156.462 98.3882 155.489 98.045 154.631 97.3582Z" fill="#1A2E35"/>
<path d="M78.4208 80.9988C78.4208 80.9988 74.24 86.8716 73.6428 92.8436C73.0456 98.816 73.7424 102.798 75.534 104.291C77.326 105.784 79.1176 105.186 80.1128 103.793C81.1084 102.399 79.5156 97.522 79.5156 97.522C79.5156 97.522 81.2076 92.8436 83.796 89.5592C86.3836 86.274 86.8816 85.7764 86.8816 85.7764C86.8816 85.7764 82.4024 80.7 78.4208 80.9988Z" fill="white"/>
</g>
<mask id="mask14_160_802" style="mask-type:luminance" maskUnits="userSpaceOnUse" x="73" y="80" width="14" height="26">
<path d="M78.4204 80.9988C78.4204 80.9988 74.24 86.8716 73.6428 92.8436C73.0456 98.816 73.7424 102.798 75.534 104.291C77.326 105.784 79.1176 105.186 80.1124 103.793C81.1084 102.399 79.5156 97.522 79.5156 97.522C79.5156 97.522 81.2076 92.8436 83.7956 89.5588C86.3836 86.2744 86.8812 85.7764 86.8812 85.7764C86.8812 85.7764 82.6544 80.9864 78.7632 80.986C78.6484 80.986 78.5344 80.9904 78.4204 80.9988Z" fill="white"/>
</mask>
<g mask="url(#mask14_160_802)">
<path d="M78.4209 80.9986C78.4209 80.9986 77.2009 82.7142 75.9849 85.2318C77.9825 86.0378 81.0849 87.6738 83.0517 90.5742C83.2905 90.2262 83.5385 89.8854 83.7961 89.559C86.3841 86.2738 86.8817 85.7762 86.8817 85.7762C86.8817 85.7762 82.4025 80.6998 78.4209 80.9986Z" fill="#F16767"/>
<mask id="mask15_160_802" style="mask-type:luminance" maskUnits="userSpaceOnUse" x="75" y="80" width="12" height="11">
<path d="M75.9844 80.9857H86.8812V90.5737H75.9844V80.9857Z" fill="white"/>
</mask>
<g mask="url(#mask15_160_802)">
<g opacity="0.5">
<path d="M78.4209 80.9986C78.4209 80.9986 77.2009 82.7142 75.9849 85.2318C77.9825 86.0378 81.0849 87.6738 83.0517 90.5742C83.2905 90.2262 83.5385 89.8854 83.7961 89.559C86.3841 86.2738 86.8817 85.7762 86.8817 85.7762C86.8817 85.7762 82.4025 80.6998 78.4209 80.9986Z" fill="white"/>
</g>
</g>
</g>
<mask id="mask16_160_802" style="mask-type:luminance" maskUnits="userSpaceOnUse" x="0" y="0" width="200" height="200">
<path d="M0 -2.98023e-06H200V200H0V-2.98023e-06Z" fill="white"/>
</mask>
<g mask="url(#mask16_160_802)">
<path d="M78.4208 80.9988C78.4208 80.9988 74.24 86.8716 73.6428 92.8436C73.0456 98.816 73.7424 102.798 75.534 104.291C77.326 105.784 79.1176 105.186 80.1128 103.793C81.1084 102.399 79.5156 97.522 79.5156 97.522C79.5156 97.522 81.2076 92.8436 83.796 89.5592C86.3836 86.274 86.8816 85.7764 86.8816 85.7764C86.8816 85.7764 82.4024 80.7 78.4208 80.9988Z" stroke="#1A2E35" stroke-miterlimit="10" stroke-linecap="round" stroke-linejoin="round"/>
<path d="M75.534 104.291C75.534 104.291 74.8372 102.698 74.8372 100.209" stroke="#1A2E35" stroke-miterlimit="10" stroke-linecap="round" stroke-linejoin="round"/>
<path d="M78.2215 104.888C78.2215 104.888 77.2263 103.196 77.1267 100.309" stroke="#1A2E35" stroke-miterlimit="10" stroke-linecap="round" stroke-linejoin="round"/>
<path d="M79.7147 91.649C79.7147 90.5994 77.7155 88.5514 74.9343 87.665C74.5743 88.6146 74.2527 89.6194 74.0127 90.6506C74.7631 90.7938 76.1067 91.105 77.1267 91.649C78.6199 92.4454 79.7147 92.8434 79.7147 91.649Z" fill="#F16767"/>
<path d="M79.7147 91.649C79.7147 90.5994 77.7155 88.5514 74.9343 87.665C74.5743 88.6146 74.2527 89.6194 74.0127 90.6506C74.7631 90.7938 76.1067 91.105 77.1267 91.649C78.6199 92.4454 79.7147 92.8434 79.7147 91.649Z" stroke="#1A2E35" stroke-miterlimit="10" stroke-linecap="round" stroke-linejoin="round"/>
<path d="M78.1775 81.3571C77.8291 81.8823 77.1475 82.9587 76.4111 84.3795C77.1467 84.5727 77.9619 84.8815 78.8187 85.3791C81.9043 87.1707 82.5019 87.3695 81.5063 84.7819C80.8863 83.1703 79.4567 82.0611 78.1775 81.3571Z" fill="#F16767"/>
<path d="M78.1775 81.3571C77.8291 81.8823 77.1475 82.9587 76.4111 84.3795C77.1467 84.5727 77.9619 84.8815 78.8187 85.3791C81.9043 87.1707 82.5019 87.3695 81.5063 84.7819C80.8863 83.1703 79.4567 82.0611 78.1775 81.3571Z" stroke="#1A2E35" stroke-miterlimit="10" stroke-linecap="round" stroke-linejoin="round"/>
<path d="M111.16 78.0992C111.16 78.0992 115.897 83.5336 117.077 89.4184C118.257 95.3036 117.954 99.334 116.318 100.996C114.681 102.657 112.839 102.239 111.712 100.949C110.585 99.6604 111.691 94.65 111.691 94.65C111.691 94.65 109.549 90.1604 106.651 87.1456C103.753 84.1304 103.209 83.6836 103.209 83.6836C103.209 83.6836 107.169 78.1924 111.16 78.0992Z" fill="white"/>
</g>
<mask id="mask17_160_802" style="mask-type:luminance" maskUnits="userSpaceOnUse" x="103" y="78" width="15" height="25">
<path d="M103.209 83.6836C103.209 83.6836 103.753 84.1301 106.651 87.1453C109.548 90.1605 111.692 94.65 111.692 94.65C111.692 94.65 110.585 99.66 111.712 100.949C112.84 102.239 114.681 102.657 116.318 100.996C117.954 99.334 118.257 95.3032 117.077 89.4184C115.897 83.5336 111.16 78.0988 111.16 78.0988C107.169 78.1924 103.209 83.6836 103.209 83.6836Z" fill="white"/>
</mask>
<g mask="url(#mask17_160_802)">
<path d="M111.16 78.099C107.169 78.1922 103.209 83.6834 103.209 83.6834C103.209 83.6834 103.753 84.1302 106.651 87.1454C107.19 87.7066 107.703 88.319 108.181 88.9438C109.195 87.253 111.189 84.5906 114.446 82.825C112.839 80.025 111.16 78.099 111.16 78.099Z" fill="#F16767"/>
<mask id="mask18_160_802" style="mask-type:luminance" maskUnits="userSpaceOnUse" x="103" y="78" width="12" height="11">
<path d="M103.209 78.0986H114.446V88.9438H103.209V78.0986Z" fill="white"/>
</mask>
<g mask="url(#mask18_160_802)">
<g opacity="0.5">
<path d="M111.16 78.099C107.169 78.1922 103.209 83.6834 103.209 83.6834C103.209 83.6834 103.753 84.1302 106.651 87.1454C107.19 87.7066 107.703 88.319 108.181 88.9438C109.195 87.253 111.189 84.5906 114.446 82.825C112.839 80.025 111.16 78.099 111.16 78.099Z" fill="white"/>
</g>
</g>
</g>
<mask id="mask19_160_802" style="mask-type:luminance" maskUnits="userSpaceOnUse" x="0" y="0" width="200" height="200">
<path d="M0 -2.98023e-06H200V200H0V-2.98023e-06Z" fill="white"/>
</mask>
<g mask="url(#mask19_160_802)">
<path d="M111.16 78.0992C111.16 78.0992 115.897 83.5336 117.077 89.4184C118.257 95.3036 117.954 99.334 116.318 100.996C114.681 102.657 112.839 102.239 111.712 100.949C110.585 99.6604 111.691 94.65 111.691 94.65C111.691 94.65 109.549 90.1604 106.651 87.1456C103.753 84.1304 103.209 83.6836 103.209 83.6836C103.209 83.6836 107.169 78.1924 111.16 78.0992Z" stroke="#1A2E35" stroke-miterlimit="10" stroke-linecap="round" stroke-linejoin="round"/>
<path d="M116.318 100.996C116.318 100.996 116.855 99.3425 116.61 96.8661" stroke="#1A2E35" stroke-miterlimit="10" stroke-linecap="round" stroke-linejoin="round"/>
<path d="M113.702 101.854C113.702 101.854 114.527 100.072 114.343 97.19" stroke="#1A2E35" stroke-miterlimit="10" stroke-linecap="round" stroke-linejoin="round"/>
<path d="M110.917 88.8257C110.814 87.7809 112.603 85.5469 115.284 84.3921C115.735 85.3013 116.154 86.2701 116.494 87.2729C115.761 87.4889 114.455 87.9305 113.493 88.5717C112.085 89.5105 111.035 90.0145 110.917 88.8257Z" fill="#F16767"/>
<path d="M110.917 88.8257C110.814 87.7809 112.603 85.5469 115.284 84.3921C115.735 85.3013 116.154 86.2701 116.494 87.2729C115.761 87.4889 114.455 87.9305 113.493 88.5717C112.085 89.5105 111.035 90.0145 110.917 88.8257Z" stroke="#1A2E35" stroke-miterlimit="10" stroke-linecap="round" stroke-linejoin="round"/>
<path d="M111.438 78.432C111.836 78.9204 112.62 79.9248 113.492 81.2664C112.779 81.5308 111.998 81.918 111.194 82.4976C108.298 84.5828 107.724 84.84 108.461 82.1664C108.919 80.5024 110.233 79.258 111.438 78.432Z" fill="#F16767"/>
<path d="M111.438 78.432C111.836 78.9204 112.62 79.9248 113.492 81.2664C112.779 81.5308 111.998 81.918 111.194 82.4976C108.298 84.5828 107.724 84.84 108.461 82.1664C108.919 80.5024 110.233 79.258 111.438 78.432Z" stroke="#1A2E35" stroke-miterlimit="10" stroke-linecap="round" stroke-linejoin="round"/>
<path d="M78.029 75.9183C78.029 75.9183 76.797 80.0759 77.259 81.7695C77.721 83.4635 79.8766 81.9235 82.0322 83.7711C84.1882 85.6191 86.1862 88.9427 94.347 89.5587C102.508 90.1747 107.439 85.7731 109.133 83.3095C110.827 80.8455 110.673 77.9199 113.598 77.7663C116.524 77.6119 114.06 71.9151 113.136 70.9911C113.136 70.9911 118.833 62.5223 118.833 60.3667C118.833 58.2107 113.444 58.6727 106.823 60.6747C106.823 60.6747 101.896 58.0567 92.965 59.5967C84.0342 61.1363 81.4166 63.7539 81.4166 63.7539C81.4166 63.7539 70.3298 65.1399 69.5602 66.5259C68.7902 67.9115 71.0998 73.7627 78.029 75.9183Z" fill="white"/>
</g>
<mask id="mask20_160_802" style="mask-type:luminance" maskUnits="userSpaceOnUse" x="69" y="58" width="50" height="32">
<path d="M106.823 60.6747C106.823 60.6747 101.896 58.0571 92.9646 59.5967C84.0338 61.1367 81.4162 63.7543 81.4162 63.7543C81.4162 63.7543 70.3298 65.1399 69.5602 66.5259C68.7902 67.9115 71.0998 73.7627 78.0286 75.9183C78.0286 75.9183 76.797 80.0759 77.259 81.7699C77.721 83.4635 79.8766 81.9239 82.0322 83.7715C84.1878 85.6191 86.1858 88.9427 94.347 89.5587C102.508 90.1747 107.439 85.7731 109.133 83.3095C110.826 80.8455 110.673 77.9203 113.598 77.7663C116.523 77.6123 114.06 71.9151 113.136 70.9911C113.136 70.9911 118.833 62.5223 118.833 60.3667C118.833 59.3875 117.721 58.9483 115.887 58.9483C113.683 58.9483 110.437 59.5823 106.823 60.6747Z" fill="white"/>
</mask>
<g mask="url(#mask20_160_802)">
<path d="M113.598 77.7663C116.523 77.6123 114.06 71.9151 113.136 70.9911C113.136 70.9911 114.219 69.3807 115.441 67.3855C112.13 65.656 108.882 64.696 108.018 65.6684C106.162 67.7576 107.173 71.7576 108.018 75.6475C108.864 79.5375 105.481 81.2287 103.113 84.6115C100.745 87.9943 97.3627 84.2735 97.3627 84.2735C96.1787 89.1783 91.1047 85.9647 91.1047 85.9647C87.2143 84.7807 80.6183 80.8907 81.9715 78.1843C83.3243 75.4783 83.6627 72.9412 81.2947 70.7424C78.9267 68.5436 69.4827 66.7204 69.4827 66.7204C68.9887 68.3868 71.3827 73.8511 78.0287 75.9183C78.0287 75.9183 76.7967 80.0759 77.2587 81.7695C77.7207 83.4635 79.8763 81.9239 82.0319 83.7715C84.1879 85.6191 86.1859 88.9427 94.3467 89.5587C102.508 90.1747 107.439 85.7731 109.132 83.3095C110.826 80.8459 110.672 77.9203 113.598 77.7663Z" fill="#F16767"/>
<mask id="mask21_160_802" style="mask-type:luminance" maskUnits="userSpaceOnUse" x="69" y="65" width="47" height="25">
<path d="M69.4199 65.2804H115.441V89.6172H69.4199V65.2804Z" fill="white"/>
</mask>
<g mask="url(#mask21_160_802)">
<g opacity="0.5">
<path d="M113.598 77.7663C116.523 77.6123 114.06 71.9151 113.136 70.9911C113.136 70.9911 114.219 69.3807 115.441 67.3855C112.13 65.656 108.882 64.696 108.018 65.6684C106.162 67.7576 107.173 71.7576 108.018 75.6475C108.864 79.5375 105.481 81.2287 103.113 84.6115C100.745 87.9943 97.3627 84.2735 97.3627 84.2735C96.1787 89.1783 91.1047 85.9647 91.1047 85.9647C87.2143 84.7807 80.6183 80.8907 81.9715 78.1843C83.3243 75.4783 83.6627 72.9412 81.2947 70.7424C78.9267 68.5436 69.4827 66.7204 69.4827 66.7204C68.9887 68.3868 71.3827 73.8511 78.0287 75.9183C78.0287 75.9183 76.7967 80.0759 77.2587 81.7695C77.7207 83.4635 79.8763 81.9239 82.0319 83.7715C84.1879 85.6191 86.1859 88.9427 94.3467 89.5587C102.508 90.1747 107.439 85.7731 109.132 83.3095C110.826 80.8459 110.672 77.9203 113.598 77.7663Z" fill="white"/>
</g>
</g>
<path d="M101.557 78.6978C101.67 79.6722 99.5057 80.7242 96.7221 81.0478C93.9385 81.3714 91.5901 80.8442 91.4769 79.8698C91.3637 78.8958 93.5281 77.8434 96.3117 77.5198C99.0953 77.1962 101.444 77.7234 101.557 78.6978Z" fill="#F16767"/>
<mask id="mask22_160_802" style="mask-type:luminance" maskUnits="userSpaceOnUse" x="91" y="77" width="11" height="5">
<path d="M91.4727 77.4243H101.561V81.1431H91.4727V77.4243Z" fill="white"/>
</mask>
<g mask="url(#mask22_160_802)">
<g opacity="0.5">
<path d="M101.557 78.6978C101.67 79.6722 99.5057 80.7242 96.7221 81.0478C93.9385 81.3714 91.5901 80.8442 91.4769 79.8698C91.3637 78.8958 93.5281 77.8434 96.3117 77.5198C99.0953 77.1962 101.444 77.7234 101.557 78.6978Z" fill="white"/>
</g>
</g>
</g>
<mask id="mask23_160_802" style="mask-type:luminance" maskUnits="userSpaceOnUse" x="0" y="0" width="200" height="200">
<path d="M0 4.25667e-06H200V200H0V4.25667e-06Z" fill="white"/>
</mask>
<g mask="url(#mask23_160_802)">
<path d="M78.029 75.9183C78.029 75.9183 76.797 80.0759 77.259 81.7695C77.721 83.4635 79.8766 81.9235 82.0322 83.7711C84.1882 85.6191 86.1862 88.9427 94.347 89.5587C102.508 90.1747 107.439 85.7731 109.133 83.3095C110.827 80.8455 110.673 77.9199 113.598 77.7663C116.524 77.6119 114.06 71.9151 113.136 70.9911C113.136 70.9911 118.833 62.5223 118.833 60.3667C118.833 58.2107 113.444 58.6727 106.823 60.6747C106.823 60.6747 101.896 58.0567 92.965 59.5967C84.0342 61.1363 81.4166 63.7539 81.4166 63.7539C81.4166 63.7539 70.3298 65.1399 69.5602 66.5259C68.7902 67.9115 71.0998 73.7627 78.029 75.9183Z" stroke="#1A2E35" stroke-miterlimit="10"/>
<path d="M109.875 63.5793C105.893 66.2669 107.287 68.9545 109.079 70.4473C110.172 71.3593 111.932 71.2309 113.138 70.9937C113.137 70.9929 113.136 70.9921 113.136 70.9913C113.136 70.9913 118.833 62.5225 118.833 60.3669C118.833 60.3669 113.856 60.8917 109.875 63.5793Z" fill="#F16767"/>
<path d="M109.875 63.5793C105.893 66.2669 107.287 68.9545 109.079 70.4473C110.172 71.3593 111.932 71.2309 113.138 70.9937C113.137 70.9929 113.136 70.9921 113.136 70.9913C113.136 70.9913 118.833 62.5225 118.833 60.3669C118.833 60.3669 113.856 60.8917 109.875 63.5793Z" stroke="#1A2E35" stroke-miterlimit="10"/>
<path d="M69.4833 66.7201C68.9889 68.3865 71.3833 73.8509 78.0289 75.9185C78.0289 75.9185 83.0993 75.4241 81.4073 71.3433C79.8285 67.5357 71.8409 66.5877 69.4833 66.7201Z" fill="#F16767"/>
<path d="M69.4833 66.7201C68.9889 68.3865 71.3833 73.8509 78.0289 75.9185C78.0289 75.9185 83.0993 75.4241 81.4073 71.3433C79.8285 67.5357 71.8409 66.5877 69.4833 66.7201Z" stroke="#1A2E35" stroke-miterlimit="10"/>
<path d="M92.9647 59.5969C92.4387 59.6877 91.9363 59.7825 91.4531 59.8797C92.2491 63.9189 93.5691 70.6465 94.7451 70.6465C95.9631 70.6465 96.8199 63.2721 97.2047 59.1393C95.9115 59.1929 94.4987 59.3325 92.9647 59.5969Z" fill="#F16767"/>
<path d="M92.9647 59.5969C92.4387 59.6877 91.9363 59.7825 91.4531 59.8797C92.2491 63.9189 93.5691 70.6465 94.7451 70.6465C95.9631 70.6465 96.8199 63.2721 97.2047 59.1393C95.9115 59.1929 94.4987 59.3325 92.9647 59.5969Z" stroke="#1A2E35" stroke-miterlimit="10"/>
<path d="M88.3745 69.4519C89.5993 68.7315 89.4161 63.3203 89.2217 60.3847C87.7345 60.7615 86.5057 61.1607 85.4949 61.5475C85.9421 64.2963 87.0689 70.2199 88.3745 69.4519Z" fill="#F16767"/>
<path d="M88.3745 69.4519C89.5993 68.7315 89.4161 63.3203 89.2217 60.3847C87.7345 60.7615 86.5057 61.1607 85.4949 61.5475C85.9421 64.2963 87.0689 70.2199 88.3745 69.4519Z" stroke="#1A2E35" stroke-miterlimit="10"/>
<path d="M100.22 66.9638C101.474 67.403 102.175 62.9034 102.572 59.439C101.492 59.261 100.215 59.1318 98.7472 59.115C98.7088 61.9618 98.8648 66.4894 100.22 66.9638Z" fill="#F16767"/>
<path d="M100.22 66.9638C101.474 67.403 102.175 62.9034 102.572 59.439C101.492 59.261 100.215 59.1318 98.7472 59.115C98.7088 61.9618 98.8648 66.4894 100.22 66.9638Z" stroke="#1A2E35" stroke-miterlimit="10"/>
<path d="M98.5447 82.542C97.8671 82.3776 96.4151 82.1736 95.0751 82.9672C94.8767 83.0848 94.8431 83.36 95.0111 83.5172L97.1379 85.5112C97.3091 85.6716 97.5863 85.6168 97.6835 85.4036L98.7703 83.0152C98.8587 82.8212 98.7515 82.5924 98.5447 82.542Z" fill="#F16767"/>
<path d="M98.5447 82.542C97.8671 82.3776 96.4151 82.1736 95.0751 82.9672C94.8767 83.0848 94.8431 83.36 95.0111 83.5172L97.1379 85.5112C97.3091 85.6716 97.5863 85.6168 97.6835 85.4036L98.7703 83.0152C98.8587 82.8212 98.7515 82.5924 98.5447 82.542Z" stroke="#1A2E35" stroke-miterlimit="10" stroke-linecap="round" stroke-linejoin="round"/>
<path d="M93.4951 79.2041C93.7887 79.9745 93.6731 80.7341 93.2363 80.9005C92.7999 81.0673 92.2075 80.5773 91.9139 79.8069C91.6203 79.0365 91.7363 78.2769 92.1727 78.1105C92.6095 77.9441 93.2015 78.4337 93.4951 79.2041Z" fill="#1A2E35"/>
<path d="M99.2887 78.6531C99.1367 79.4635 99.3859 80.1903 99.8451 80.2763C100.305 80.3623 100.8 79.7751 100.952 78.9647C101.104 78.1543 100.855 77.4275 100.395 77.3415C99.9359 77.2551 99.4403 77.8427 99.2887 78.6531Z" fill="#1A2E35"/>
<path d="M97.6834 85.4039C97.6834 85.4039 94.8446 89.2611 92.2566 85.3791" stroke="#1A2E35" stroke-miterlimit="10" stroke-linecap="round" stroke-linejoin="round"/>
<path d="M97.1379 85.5112C97.1379 85.5112 99.0251 87.4688 101.016 86.3736C103.007 85.2788 101.812 83.5864 101.812 83.5864" stroke="#1A2E35" stroke-miterlimit="10" stroke-linecap="round" stroke-linejoin="round"/>
<path d="M88.4744 76.1211C88.4744 76.1211 89.1712 73.6327 92.456 74.2299" stroke="#1A2E35" stroke-miterlimit="10" stroke-linecap="round" stroke-linejoin="round"/>
<path d="M98.428 73.832C98.428 73.832 100.916 72.3388 103.206 74.728" stroke="#1A2E35" stroke-miterlimit="10" stroke-linecap="round" stroke-linejoin="round"/>
<path d="M86.583 82.79L88.9718 83.3872" stroke="#1A2E35" stroke-miterlimit="10" stroke-linecap="round"/>
<path d="M88.6732 84.2836L86.5828 84.6816" stroke="#1A2E35" stroke-miterlimit="10" stroke-linecap="round"/>
<path d="M89.0713 85.3789L87.5781 86.1753" stroke="#1A2E35" stroke-miterlimit="10" stroke-linecap="round"/>
<path d="M104.201 81.6953L106.292 81.1977" stroke="#1A2E35" stroke-miterlimit="10" stroke-linecap="round"/>
<path d="M104.599 82.6909H105.993" stroke="#1A2E35" stroke-miterlimit="10" stroke-linecap="round"/>
<path d="M104.898 83.686L106.789 84.1836" stroke="#1A2E35" stroke-miterlimit="10" stroke-linecap="round"/>
</g>
</svg>
