<svg width="204" height="180" viewBox="0 0 204 180" fill="none" xmlns="http://www.w3.org/2000/svg">
<g filter="url(#filter0_i_37_87)">
<path d="M41.3384 163.889H43.2584C44.3464 163.889 45.1997 163.633 45.8184 163.121C46.4584 162.609 46.7784 161.873 46.7784 160.913C46.7784 159.953 46.4797 159.227 45.8824 158.737C45.285 158.246 44.421 158.001 43.2904 158.001C42.9064 158.001 42.5544 158.011 42.2344 158.033C41.9357 158.054 41.637 158.086 41.3384 158.129V163.889ZM43.5784 167.729H36.5064V156.273C36.5064 155.867 36.6237 155.547 36.8584 155.313C37.093 155.078 37.4024 154.897 37.7864 154.769C38.4904 154.513 39.333 154.331 40.3144 154.225C41.2957 154.118 42.181 154.065 42.9704 154.065C45.8504 154.065 48.0264 154.683 49.4984 155.921C50.9917 157.137 51.7384 158.801 51.7384 160.913C51.7384 162.278 51.4077 163.473 50.7464 164.497C50.1064 165.521 49.1784 166.321 47.9624 166.897C46.7464 167.451 45.285 167.729 43.5784 167.729ZM36.5064 165.585H41.3704V173.937C41.1784 174.001 40.869 174.054 40.4424 174.097C40.0157 174.161 39.5784 174.193 39.1304 174.193C38.1704 174.193 37.4877 174.022 37.0824 173.681C36.6984 173.339 36.5064 172.742 36.5064 171.889V165.585ZM56.2984 168.529L56.1064 165.329L64.0424 164.081C63.9997 163.483 63.7437 162.929 63.2744 162.417C62.805 161.905 62.1117 161.649 61.1944 161.649C60.2344 161.649 59.4344 161.979 58.7944 162.641C58.1544 163.281 57.813 164.198 57.7704 165.393L57.9304 167.601C58.1224 168.774 58.6237 169.617 59.4344 170.129C60.245 170.619 61.205 170.865 62.3144 170.865C63.2104 170.865 64.053 170.737 64.8424 170.481C65.6317 170.225 66.2717 169.958 66.7624 169.681C67.0824 169.873 67.3384 170.139 67.5304 170.481C67.7437 170.822 67.8504 171.185 67.8504 171.569C67.8504 172.209 67.5944 172.742 67.0824 173.169C66.5917 173.595 65.8984 173.915 65.0024 174.129C64.1277 174.342 63.125 174.449 61.9944 174.449C60.3517 174.449 58.869 174.139 57.5464 173.521C56.245 172.902 55.221 171.974 54.4744 170.737C53.7277 169.499 53.3544 167.953 53.3544 166.097C53.3544 164.731 53.5677 163.547 53.9944 162.545C54.4424 161.542 55.029 160.721 55.7544 160.081C56.501 159.419 57.333 158.929 58.2504 158.609C59.189 158.289 60.1597 158.129 61.1624 158.129C62.6344 158.129 63.9144 158.427 65.0024 159.025C66.1117 159.601 66.9757 160.39 67.5944 161.393C68.213 162.395 68.5224 163.558 68.5224 164.881C68.5224 165.542 68.341 166.043 67.9784 166.385C67.6157 166.726 67.1144 166.939 66.4744 167.025L56.2984 168.529ZM71.4661 165.521H76.1701V168.945C76.1701 169.542 76.3621 169.979 76.7461 170.257C77.1301 170.534 77.6741 170.673 78.3781 170.673C78.6981 170.673 79.0395 170.641 79.4021 170.577C79.7861 170.491 80.1061 170.395 80.3621 170.289C80.5328 170.481 80.6821 170.715 80.8101 170.993C80.9595 171.27 81.0341 171.59 81.0341 171.953C81.0341 172.678 80.7355 173.275 80.1381 173.745C79.5408 174.214 78.5381 174.449 77.1301 174.449C75.3381 174.449 73.9408 174.043 72.9381 173.233C71.9568 172.422 71.4661 171.099 71.4661 169.265V165.521ZM74.4741 162.609V158.961H80.6181C80.7248 159.131 80.8315 159.377 80.9381 159.697C81.0448 160.017 81.0981 160.369 81.0981 160.753C81.0981 161.393 80.9488 161.862 80.6501 162.161C80.3728 162.459 79.9888 162.609 79.4981 162.609H74.4741ZM76.1701 166.321H71.4661V154.833C71.6795 154.769 71.9781 154.705 72.3621 154.641C72.7461 154.555 73.1515 154.513 73.5781 154.513C74.4955 154.513 75.1568 154.673 75.5621 154.993C75.9675 155.313 76.1701 155.899 76.1701 156.753V166.321Z" fill="#F16767"/>
<path d="M84.3501 160.433H89.2141V173.937C89.0221 174.001 88.7128 174.054 88.2861 174.097C87.8595 174.161 87.4221 174.193 86.9741 174.193C86.0141 174.193 85.3315 174.022 84.9261 173.681C84.5421 173.339 84.3501 172.742 84.3501 171.889V160.433ZM89.2141 166.577H84.3501V154.513C84.5635 154.47 84.8835 154.417 85.3101 154.353C85.7581 154.289 86.1955 154.257 86.6221 154.257C87.5395 154.257 88.2008 154.417 88.6061 154.737C89.0115 155.057 89.2141 155.665 89.2141 156.561V166.577ZM108.06 164.017V167.025H103.292V164.177C103.292 163.387 103.057 162.811 102.588 162.449C102.14 162.065 101.542 161.873 100.796 161.873C100.262 161.873 99.7716 161.947 99.3236 162.097C98.8756 162.225 98.4703 162.385 98.1076 162.577V167.025H93.3716V162.033C93.3716 161.499 93.4783 161.062 93.6916 160.721C93.9263 160.358 94.257 160.038 94.6836 159.761C95.3663 159.291 96.241 158.907 97.3076 158.609C98.3743 158.289 99.5476 158.129 100.828 158.129C103.132 158.129 104.913 158.641 106.172 159.665C107.43 160.667 108.06 162.118 108.06 164.017ZM93.3716 165.553H98.1076V173.937C97.8943 174.001 97.5956 174.054 97.2116 174.097C96.8276 174.161 96.4116 174.193 95.9636 174.193C95.0676 174.193 94.4063 174.033 93.9796 173.713C93.5743 173.393 93.3716 172.817 93.3716 171.985V165.553ZM103.292 165.553H108.06V173.937C107.846 174.001 107.548 174.054 107.164 174.097C106.78 174.161 106.364 174.193 105.916 174.193C105.02 174.193 104.358 174.033 103.932 173.713C103.505 173.393 103.292 172.817 103.292 171.985V165.553ZM121.73 170.161V160.529H126.466V170.769C126.466 171.281 126.359 171.718 126.146 172.081C125.933 172.422 125.591 172.731 125.122 173.009C124.546 173.393 123.789 173.723 122.85 174.001C121.933 174.299 120.866 174.449 119.65 174.449C117.879 174.449 116.343 174.15 115.042 173.553C113.762 172.955 112.77 172.059 112.066 170.865C111.383 169.649 111.042 168.145 111.042 166.353C111.042 164.475 111.394 162.939 112.098 161.745C112.823 160.529 113.794 159.622 115.01 159.025C116.226 158.427 117.57 158.129 119.042 158.129C119.81 158.129 120.493 158.214 121.09 158.385C121.687 158.555 122.178 158.758 122.562 158.993V162.897C122.263 162.641 121.869 162.406 121.378 162.193C120.887 161.979 120.322 161.873 119.682 161.873C118.935 161.873 118.274 162.033 117.698 162.353C117.122 162.673 116.674 163.163 116.354 163.825C116.034 164.486 115.874 165.329 115.874 166.353C115.874 167.846 116.205 168.945 116.866 169.649C117.549 170.353 118.466 170.705 119.618 170.705C120.087 170.705 120.503 170.651 120.866 170.545C121.229 170.417 121.517 170.289 121.73 170.161ZM126.466 161.457L121.73 161.489V153.137C121.922 153.073 122.21 153.009 122.594 152.945C122.978 152.881 123.394 152.849 123.842 152.849C124.781 152.849 125.453 153.009 125.858 153.329C126.263 153.649 126.466 154.235 126.466 155.089V161.457ZM130.087 154.193C130.087 153.467 130.332 152.859 130.823 152.369C131.335 151.878 131.975 151.633 132.743 151.633C133.532 151.633 134.172 151.878 134.663 152.369C135.153 152.859 135.399 153.467 135.399 154.193C135.399 154.897 135.153 155.505 134.663 156.017C134.172 156.529 133.532 156.785 132.743 156.785C131.975 156.785 131.335 156.529 130.823 156.017C130.332 155.505 130.087 154.897 130.087 154.193ZM130.375 165.521H135.111V173.937C134.919 174.001 134.631 174.054 134.247 174.097C133.863 174.161 133.447 174.193 132.999 174.193C132.081 174.193 131.409 174.033 130.983 173.713C130.577 173.393 130.375 172.817 130.375 171.985V165.521ZM135.111 167.985H130.375V158.801C130.567 158.737 130.855 158.673 131.239 158.609C131.644 158.545 132.071 158.513 132.519 158.513C133.436 158.513 134.097 158.673 134.503 158.993C134.908 159.291 135.111 159.878 135.111 160.753V167.985ZM147.253 161.905C146.101 161.905 145.109 162.289 144.277 163.057C143.467 163.803 143.061 164.902 143.061 166.353C143.061 167.782 143.456 168.859 144.245 169.585C145.035 170.31 146.027 170.673 147.221 170.673C147.925 170.673 148.533 170.587 149.045 170.417C149.579 170.225 150.037 170.022 150.421 169.809C150.784 170.065 151.061 170.353 151.253 170.673C151.445 170.971 151.541 171.345 151.541 171.793C151.541 172.582 151.115 173.222 150.261 173.713C149.408 174.203 148.224 174.449 146.709 174.449C145.024 174.449 143.541 174.15 142.261 173.553C140.981 172.934 139.989 172.017 139.285 170.801C138.581 169.585 138.229 168.102 138.229 166.353C138.229 164.497 138.613 162.971 139.381 161.777C140.149 160.561 141.163 159.654 142.421 159.057C143.701 158.438 145.088 158.129 146.581 158.129C148.053 158.129 149.205 158.395 150.037 158.929C150.891 159.462 151.317 160.123 151.317 160.913C151.317 161.297 151.221 161.649 151.029 161.969C150.859 162.267 150.656 162.534 150.421 162.769C150.016 162.555 149.547 162.363 149.013 162.193C148.501 162.001 147.915 161.905 147.253 161.905ZM160.863 170.929C161.354 170.929 161.834 170.886 162.303 170.801C162.794 170.694 163.146 170.577 163.359 170.449V167.377L160.671 167.633C159.946 167.675 159.37 167.825 158.943 168.081C158.516 168.337 158.303 168.721 158.303 169.233C158.303 169.745 158.506 170.161 158.911 170.481C159.316 170.779 159.967 170.929 160.863 170.929ZM160.671 158.129C162.89 158.129 164.66 158.598 165.983 159.537C167.306 160.454 167.967 161.883 167.967 163.825V171.089C167.967 171.622 167.828 172.059 167.551 172.401C167.274 172.721 166.922 172.998 166.495 173.233C165.855 173.617 165.055 173.915 164.095 174.129C163.156 174.363 162.079 174.481 160.863 174.481C158.687 174.481 156.948 174.054 155.647 173.201C154.367 172.347 153.727 171.078 153.727 169.393C153.727 167.942 154.175 166.833 155.071 166.065C155.967 165.275 157.3 164.795 159.071 164.625L163.327 164.177V163.793C163.327 163.067 163.039 162.545 162.463 162.225C161.908 161.905 161.108 161.745 160.063 161.745C159.252 161.745 158.452 161.841 157.663 162.033C156.895 162.225 156.202 162.449 155.583 162.705C155.327 162.534 155.103 162.278 154.911 161.937C154.74 161.574 154.655 161.201 154.655 160.817C154.655 159.921 155.146 159.27 156.127 158.865C156.746 158.609 157.46 158.427 158.271 158.321C159.103 158.193 159.903 158.129 160.671 158.129Z" fill="white"/>
<path d="M84.3501 160.433H89.2141V173.937C89.0221 174.001 88.7128 174.054 88.2861 174.097C87.8595 174.161 87.4221 174.193 86.9741 174.193C86.0141 174.193 85.3315 174.022 84.9261 173.681C84.5421 173.339 84.3501 172.742 84.3501 171.889V160.433ZM89.2141 166.577H84.3501V154.513C84.5635 154.47 84.8835 154.417 85.3101 154.353C85.7581 154.289 86.1955 154.257 86.6221 154.257C87.5395 154.257 88.2008 154.417 88.6061 154.737C89.0115 155.057 89.2141 155.665 89.2141 156.561V166.577ZM108.06 164.017V167.025H103.292V164.177C103.292 163.387 103.057 162.811 102.588 162.449C102.14 162.065 101.542 161.873 100.796 161.873C100.262 161.873 99.7716 161.947 99.3236 162.097C98.8756 162.225 98.4703 162.385 98.1076 162.577V167.025H93.3716V162.033C93.3716 161.499 93.4783 161.062 93.6916 160.721C93.9263 160.358 94.257 160.038 94.6836 159.761C95.3663 159.291 96.241 158.907 97.3076 158.609C98.3743 158.289 99.5476 158.129 100.828 158.129C103.132 158.129 104.913 158.641 106.172 159.665C107.43 160.667 108.06 162.118 108.06 164.017ZM93.3716 165.553H98.1076V173.937C97.8943 174.001 97.5956 174.054 97.2116 174.097C96.8276 174.161 96.4116 174.193 95.9636 174.193C95.0676 174.193 94.4063 174.033 93.9796 173.713C93.5743 173.393 93.3716 172.817 93.3716 171.985V165.553ZM103.292 165.553H108.06V173.937C107.846 174.001 107.548 174.054 107.164 174.097C106.78 174.161 106.364 174.193 105.916 174.193C105.02 174.193 104.358 174.033 103.932 173.713C103.505 173.393 103.292 172.817 103.292 171.985V165.553ZM121.73 170.161V160.529H126.466V170.769C126.466 171.281 126.359 171.718 126.146 172.081C125.933 172.422 125.591 172.731 125.122 173.009C124.546 173.393 123.789 173.723 122.85 174.001C121.933 174.299 120.866 174.449 119.65 174.449C117.879 174.449 116.343 174.15 115.042 173.553C113.762 172.955 112.77 172.059 112.066 170.865C111.383 169.649 111.042 168.145 111.042 166.353C111.042 164.475 111.394 162.939 112.098 161.745C112.823 160.529 113.794 159.622 115.01 159.025C116.226 158.427 117.57 158.129 119.042 158.129C119.81 158.129 120.493 158.214 121.09 158.385C121.687 158.555 122.178 158.758 122.562 158.993V162.897C122.263 162.641 121.869 162.406 121.378 162.193C120.887 161.979 120.322 161.873 119.682 161.873C118.935 161.873 118.274 162.033 117.698 162.353C117.122 162.673 116.674 163.163 116.354 163.825C116.034 164.486 115.874 165.329 115.874 166.353C115.874 167.846 116.205 168.945 116.866 169.649C117.549 170.353 118.466 170.705 119.618 170.705C120.087 170.705 120.503 170.651 120.866 170.545C121.229 170.417 121.517 170.289 121.73 170.161ZM126.466 161.457L121.73 161.489V153.137C121.922 153.073 122.21 153.009 122.594 152.945C122.978 152.881 123.394 152.849 123.842 152.849C124.781 152.849 125.453 153.009 125.858 153.329C126.263 153.649 126.466 154.235 126.466 155.089V161.457ZM130.087 154.193C130.087 153.467 130.332 152.859 130.823 152.369C131.335 151.878 131.975 151.633 132.743 151.633C133.532 151.633 134.172 151.878 134.663 152.369C135.153 152.859 135.399 153.467 135.399 154.193C135.399 154.897 135.153 155.505 134.663 156.017C134.172 156.529 133.532 156.785 132.743 156.785C131.975 156.785 131.335 156.529 130.823 156.017C130.332 155.505 130.087 154.897 130.087 154.193ZM130.375 165.521H135.111V173.937C134.919 174.001 134.631 174.054 134.247 174.097C133.863 174.161 133.447 174.193 132.999 174.193C132.081 174.193 131.409 174.033 130.983 173.713C130.577 173.393 130.375 172.817 130.375 171.985V165.521ZM135.111 167.985H130.375V158.801C130.567 158.737 130.855 158.673 131.239 158.609C131.644 158.545 132.071 158.513 132.519 158.513C133.436 158.513 134.097 158.673 134.503 158.993C134.908 159.291 135.111 159.878 135.111 160.753V167.985ZM147.253 161.905C146.101 161.905 145.109 162.289 144.277 163.057C143.467 163.803 143.061 164.902 143.061 166.353C143.061 167.782 143.456 168.859 144.245 169.585C145.035 170.31 146.027 170.673 147.221 170.673C147.925 170.673 148.533 170.587 149.045 170.417C149.579 170.225 150.037 170.022 150.421 169.809C150.784 170.065 151.061 170.353 151.253 170.673C151.445 170.971 151.541 171.345 151.541 171.793C151.541 172.582 151.115 173.222 150.261 173.713C149.408 174.203 148.224 174.449 146.709 174.449C145.024 174.449 143.541 174.15 142.261 173.553C140.981 172.934 139.989 172.017 139.285 170.801C138.581 169.585 138.229 168.102 138.229 166.353C138.229 164.497 138.613 162.971 139.381 161.777C140.149 160.561 141.163 159.654 142.421 159.057C143.701 158.438 145.088 158.129 146.581 158.129C148.053 158.129 149.205 158.395 150.037 158.929C150.891 159.462 151.317 160.123 151.317 160.913C151.317 161.297 151.221 161.649 151.029 161.969C150.859 162.267 150.656 162.534 150.421 162.769C150.016 162.555 149.547 162.363 149.013 162.193C148.501 162.001 147.915 161.905 147.253 161.905ZM160.863 170.929C161.354 170.929 161.834 170.886 162.303 170.801C162.794 170.694 163.146 170.577 163.359 170.449V167.377L160.671 167.633C159.946 167.675 159.37 167.825 158.943 168.081C158.516 168.337 158.303 168.721 158.303 169.233C158.303 169.745 158.506 170.161 158.911 170.481C159.316 170.779 159.967 170.929 160.863 170.929ZM160.671 158.129C162.89 158.129 164.66 158.598 165.983 159.537C167.306 160.454 167.967 161.883 167.967 163.825V171.089C167.967 171.622 167.828 172.059 167.551 172.401C167.274 172.721 166.922 172.998 166.495 173.233C165.855 173.617 165.055 173.915 164.095 174.129C163.156 174.363 162.079 174.481 160.863 174.481C158.687 174.481 156.948 174.054 155.647 173.201C154.367 172.347 153.727 171.078 153.727 169.393C153.727 167.942 154.175 166.833 155.071 166.065C155.967 165.275 157.3 164.795 159.071 164.625L163.327 164.177V163.793C163.327 163.067 163.039 162.545 162.463 162.225C161.908 161.905 161.108 161.745 160.063 161.745C159.252 161.745 158.452 161.841 157.663 162.033C156.895 162.225 156.202 162.449 155.583 162.705C155.327 162.534 155.103 162.278 154.911 161.937C154.74 161.574 154.655 161.201 154.655 160.817C154.655 159.921 155.146 159.27 156.127 158.865C156.746 158.609 157.46 158.427 158.271 158.321C159.103 158.193 159.903 158.129 160.671 158.129Z" fill="#333333"/>
</g>
<g clip-path="url(#clip0_37_87)">
<path d="M110.705 135.659C148.423 135.659 179 132.241 179 128.026C179 123.81 148.423 120.393 110.705 120.393C72.9866 120.393 42.4099 123.81 42.4099 128.026C42.4099 132.241 72.9866 135.659 110.705 135.659Z" fill="#A3A3A3" fill-opacity="0.5"/>
<path d="M144.575 119.579L145.753 123.209C145.753 123.209 151.426 129.072 149.374 130.661C147.323 132.25 142.719 123.873 142.719 123.873L141.871 119.775L144.575 119.579Z" fill="#FFB8B8"/>
<path d="M133.693 91.4817L135.41 90.9092C135.41 90.9092 138.08 91.6725 138.462 94.3441C138.843 97.0157 141.705 110.565 141.705 110.565C141.705 110.565 142.849 111.137 142.086 112.091C141.323 113.045 145.902 121.633 145.902 121.633L142.277 123.35C142.277 123.35 135.028 115.717 135.028 114.954C135.028 114.19 135.219 113.427 135.219 112.664C135.219 111.9 135.028 111.9 135.219 111.328C135.346 110.829 135.41 110.316 135.41 109.801L134.074 106.748L133.693 91.4817Z" fill="#FFB84C"/>
<path d="M46.2488 104.572C55.7751 104.572 63.4977 88.8097 63.4977 69.366C63.4977 49.9224 55.7751 34.1602 46.2488 34.1602C36.7226 34.1602 29 49.9224 29 69.366C29 88.8097 36.7226 104.572 46.2488 104.572Z" fill="#FFB84C"/>
<path d="M46.0904 69.731C46.9508 54.4062 48.6844 44.0547 48.7018 43.9519L48.3257 43.8882C48.3082 43.9911 46.5716 54.3591 45.7098 69.7037C44.9145 83.8659 44.7226 105.287 48.3256 126.912L48.7019 126.849C45.105 105.261 45.2965 83.8724 46.0904 69.731Z" fill="#3F3D56"/>
<path d="M61.6652 62.2263L46.0696 70.5762L46.2496 70.9127L61.8453 62.5628L61.6652 62.2263Z" fill="#3F3D56"/>
<path d="M29.7857 66.4115L29.6057 66.748L45.2036 75.0938L45.3836 74.7572L29.7857 66.4115Z" fill="#3F3D56"/>
<path d="M87.1012 96.3529C100.137 96.3529 110.705 74.7836 110.705 48.1764C110.705 21.5693 100.137 0 87.1012 0C74.0653 0 63.4976 21.5693 63.4976 48.1764C63.4976 74.7836 74.0653 96.3529 87.1012 96.3529Z" fill="white"/>
<path d="M86.8145 48.6697C87.9921 27.6955 90.3649 13.5282 90.3887 13.3875L90.0126 13.3237C89.9888 13.4645 87.6129 27.6484 86.4339 48.6424C85.3457 68.0188 85.0832 97.3264 90.0125 126.912L90.3888 126.849C85.4657 97.3003 85.7278 68.0253 86.8145 48.6697Z" fill="#3F3D56"/>
<path d="M108.231 38.4683L86.8894 49.8945L87.0695 50.231L108.411 38.8048L108.231 38.4683Z" fill="#3F3D56"/>
<path d="M64.5398 44.1952L64.3599 44.5317L85.7044 55.9522L85.8844 55.6157L64.5398 44.1952Z" fill="#3F3D56"/>
<path d="M67.4381 115.126C72.3087 115.126 76.257 107.067 76.257 97.126C76.257 87.1848 72.3087 79.126 67.4381 79.126C62.5675 79.126 58.6191 87.1848 58.6191 97.126C58.6191 107.067 62.5675 115.126 67.4381 115.126Z" fill="white"/>
<path d="M67.4304 97.9017L67.4825 97.9994L75.4562 93.7301L75.2763 93.3935L67.447 97.5855C67.8802 89.6086 68.7664 84.2536 68.7842 84.1482L68.4081 84.0845C68.3886 84.1996 67.3357 90.5586 66.962 99.7601L59.0655 95.5322L58.8855 95.8688L66.8592 100.138L66.9544 99.96C66.6554 107.554 66.823 117.051 68.408 126.564L68.7843 126.501C67.0562 116.129 67.0181 105.776 67.4304 97.9017Z" fill="#3F3D56"/>
<path d="M136.027 73.3672C132.961 68.1393 126.894 67.8957 126.894 67.8957C126.894 67.8957 120.982 67.1329 117.19 75.095C113.655 82.5163 108.777 89.6818 116.404 91.419L117.782 87.0922L118.636 91.7412C119.722 91.82 120.811 91.8387 121.899 91.7974C130.068 91.5313 137.847 91.8753 137.597 88.9177C137.264 84.986 138.977 78.3974 136.027 73.3672Z" fill="#2F2E41"/>
<path d="M114.653 115.241C114.567 115.788 114.443 116.328 114.281 116.857C114.099 117.374 113.817 117.853 113.65 118.376C113.119 120.042 113.856 121.9 115.033 123.187C116.05 124.296 117.369 125.086 118.827 125.46C119.888 125.729 120.993 125.768 122.087 125.806C125.117 125.909 128.225 126.002 131.097 125.019C132.004 124.701 132.881 124.3 133.714 123.82C133.978 123.693 134.21 123.508 134.394 123.28C134.613 122.965 134.641 122.557 134.639 122.173C134.632 120.877 134.372 119.587 134.434 118.293C134.468 117.576 134.601 116.859 134.536 116.144C134.447 115.335 134.112 114.573 133.574 113.962C133.037 113.351 132.324 112.92 131.533 112.73C130.719 112.553 129.874 112.65 129.045 112.73C126.892 112.939 124.73 113.036 122.568 113.022C120.358 113.008 118.162 112.668 115.964 112.632C115.314 112.622 115.327 112.824 115.12 113.459C114.929 114.043 114.773 114.638 114.653 115.241Z" fill="#2F2E41"/>
<path d="M106.013 114.188C105.419 114.038 104.807 113.972 104.194 113.993C103.551 114.034 102.923 114.21 102.351 114.509C101.78 114.809 101.278 115.226 100.879 115.732C100.483 116.247 100.199 116.837 100.045 117.468C99.8898 118.098 99.868 118.753 99.9803 119.392C100.128 120.084 100.371 120.753 100.701 121.379C101.183 122.366 101.762 123.352 102.655 123.984C103.192 124.332 103.771 124.61 104.379 124.813L109.081 126.6C109.773 126.863 110.465 127.126 111.163 127.37C114.671 128.593 118.331 129.328 122.04 129.551C123.169 129.619 124.315 129.638 125.417 129.379C125.686 129.343 125.932 129.209 126.108 129.002C126.198 128.844 126.251 128.668 126.263 128.487L126.552 126.443C126.617 126.158 126.608 125.862 126.528 125.581C126.395 125.238 126.063 125.022 125.746 124.838C122.654 123.046 119.045 122.058 116.442 119.599C115.83 119.02 115.317 118.103 114.573 117.709C113.729 117.264 112.735 117.009 111.862 116.598C109.955 115.7 108.08 114.668 106.013 114.188Z" fill="#2F2E41"/>
<path opacity="0.1" d="M110.708 116.944C112.37 117.469 119.387 121.11 120.59 122.381C120.429 122.44 114.959 119.347 114.795 119.297C113.303 118.845 111.802 118.39 110.385 117.729C110.1 117.596 108.533 116.971 108.604 116.608C108.684 116.198 110.413 116.851 110.708 116.944Z" fill="black"/>
<path d="M131.444 130.611C131.538 130.618 131.632 130.59 131.707 130.533C131.74 130.49 131.765 130.441 131.779 130.388C131.793 130.336 131.797 130.281 131.79 130.227L131.782 127.443C130.988 127.061 130.101 126.939 129.229 126.821L125.164 126.273C125.257 126.286 124.528 128.04 124.64 128.274C124.837 128.687 126.343 129.052 126.768 129.247C128.245 129.925 129.78 130.67 131.444 130.611Z" fill="#FFB8B8"/>
<path d="M118.688 127.433C117.921 127.556 117.064 127.665 116.567 128.268C115.936 129.033 116.205 130.173 116.506 131.12C116.55 131.311 116.64 131.489 116.767 131.639C116.972 131.843 117.287 131.873 117.574 131.891C118.275 131.936 119.02 131.971 119.631 131.625C119.908 131.44 120.175 131.24 120.43 131.025C120.881 130.723 121.376 130.494 121.899 130.348C122.858 130.043 123.846 129.838 124.848 129.735C125.242 129.717 125.633 129.647 126.009 129.528C126.198 129.466 126.37 129.362 126.512 129.223C126.654 129.084 126.762 128.914 126.827 128.727C126.969 128.221 126.677 127.705 126.398 127.261C126.05 126.708 125.681 126.126 125.161 125.719C124.404 125.125 124.029 125.581 123.266 125.961C121.823 126.68 120.28 127.176 118.688 127.433Z" fill="#FFB8B8"/>
<path d="M116.682 128.13L111.808 126.677C111.224 126.472 110.613 126.352 109.995 126.322C109.376 126.323 108.73 126.527 108.329 127.002C107.951 127.45 107.843 128.061 107.748 128.641L107.547 129.883C107.413 130.509 107.374 131.151 107.434 131.789C107.526 132.421 107.846 133.053 108.402 133.359C109.077 133.73 109.903 133.549 110.656 133.394C112.176 133.08 113.723 132.913 115.275 132.894C115.858 132.887 116.47 132.894 116.986 132.619C117.599 132.291 117.965 131.598 118.028 130.901C118.124 129.841 117.774 128.456 116.682 128.13Z" fill="#2F2E41"/>
<path d="M133.36 126.864C133.992 126.752 134.549 126.39 135.155 126.176C136.007 125.875 136.93 125.875 137.833 125.879C138.165 125.88 138.518 125.887 138.794 126.073C139.191 126.34 139.293 126.874 139.361 127.352L139.769 130.231C139.846 130.772 139.922 131.329 139.802 131.862C139.683 132.396 139.322 132.91 138.797 133.048C138.16 133.215 137.535 132.804 136.933 132.534C135.429 131.86 133.681 132.032 132.113 131.528C131.822 131.435 131.51 131.291 131.391 131.008C131.337 130.848 131.318 130.678 131.335 130.51C131.362 129.584 131.168 128.321 131.445 127.436C131.693 126.641 132.654 126.864 133.36 126.864Z" fill="#2F2E41"/>
<path d="M143.674 113.029C144.648 112.783 145.658 112.713 146.656 112.824C147.453 112.912 148.274 113.136 148.856 113.693C149.564 114.37 149.792 115.418 149.811 116.403C149.843 118.361 149.199 120.271 147.987 121.81C147.692 122.198 147.341 122.539 146.944 122.823C146.518 123.092 146.063 123.313 145.588 123.482L135.057 127.673C132.286 128.776 129.506 129.882 126.616 130.609C126.537 130.647 126.451 130.669 126.363 130.674C126.275 130.678 126.188 130.665 126.105 130.634C126.022 130.604 125.947 130.558 125.882 130.498C125.818 130.438 125.767 130.365 125.731 130.285C124.808 128.954 124.034 127.525 123.423 126.025C123.395 125.977 123.378 125.924 123.373 125.869C123.368 125.813 123.375 125.758 123.393 125.706C123.432 125.648 123.485 125.602 123.549 125.572L130.997 121.254C131.544 120.966 132.053 120.612 132.513 120.2C132.836 119.885 133.099 119.514 133.292 119.107C133.446 118.781 133.461 118.013 133.658 117.773C133.851 117.537 134.511 117.519 134.816 117.426C135.247 117.293 135.668 117.132 136.078 116.945C137.744 116.193 139.228 115.1 140.825 114.219C141.72 113.703 142.678 113.303 143.674 113.029Z" fill="#2F2E41"/>
<path opacity="0.1" d="M139.452 116.254C138.172 117.224 136.515 118.115 135.246 119.111C134.814 119.45 127.598 123.544 127.496 124.087C128.679 124.289 136.216 118.968 137.295 118.437C138.373 117.906 139.329 117.158 140.277 116.414C140.518 116.225 141.541 115.656 140.848 115.444C140.458 115.325 139.74 116.06 139.452 116.254Z" fill="black"/>
<path d="M126.634 86.5201C130.638 86.5201 133.883 83.2735 133.883 79.2686C133.883 75.2637 130.638 72.0171 126.634 72.0171C122.631 72.0171 119.385 75.2637 119.385 79.2686C119.385 83.2735 122.631 86.5201 126.634 86.5201Z" fill="#FFB8B8"/>
<path d="M129.687 85.375C129.687 85.375 128.542 88.2375 130.64 89.3825C132.739 90.5274 124.154 99.6872 124.154 99.6872L120.339 88.6191C120.339 88.6191 123.582 87.4742 123.01 84.4209L129.687 85.375Z" fill="#FFB8B8"/>
<path d="M124.917 93.1993L129.537 88.0973L135.791 91.291L134.837 113.809L133.311 115.526C133.311 115.526 126.825 121.251 116.905 116.48C116.905 116.48 113.471 113.618 113.662 109.229C113.853 104.84 113.28 104.267 113.28 104.267L113.09 88.8102L122.508 86.9614L124.917 93.1993Z" fill="#FFB84C"/>
<path d="M103.733 117.48L102.555 121.11C102.555 121.11 96.8824 126.973 98.9341 128.562C100.986 130.151 105.589 121.774 105.589 121.774L106.437 117.676L103.733 117.48Z" fill="#FFB8B8"/>
<path d="M114.616 89.3825L112.899 88.8101C112.899 88.8101 110.228 89.5734 109.846 92.245C109.465 94.9166 106.603 108.465 106.603 108.465C106.603 108.465 105.459 109.038 106.222 109.992C106.985 110.946 102.406 119.534 102.406 119.534L106.031 121.251C106.031 121.251 113.28 113.618 113.28 112.855C113.28 112.091 113.09 111.328 113.09 110.565C113.09 109.801 113.28 109.801 113.09 109.229C112.962 108.73 112.898 108.217 112.899 107.702L114.234 104.649L114.616 89.3825Z" fill="#FFB84C"/>
<path d="M134.671 72.8629L128.678 69.6953L120.401 70.991L118.688 78.6225L122.951 78.457L124.142 75.6534V78.4107L126.109 78.3343L127.251 73.8709L127.964 78.6225L134.957 78.4784L134.671 72.8629Z" fill="#2F2E41"/>
<path d="M92.1833 121.955V132.962H58.5737C58.5739 130.043 59.7332 127.243 61.7968 125.179C63.8603 123.115 66.659 121.955 69.5772 121.955C72.7287 120.972 76.3724 120.659 80.3251 120.762C84.0546 120.858 88.0589 121.325 92.1833 121.955Z" fill="#F16767"/>
<path d="M87.3821 130.561H103.187C103.452 130.561 103.706 130.666 103.894 130.854C104.082 131.042 104.187 131.296 104.187 131.562C104.187 131.827 104.082 132.082 103.894 132.269C103.706 132.457 103.452 132.562 103.187 132.562H87.3821V130.561Z" fill="#3F3D56"/>
<path d="M90.1194 112.535L94.3557 107.399C94.4533 107.195 94.6106 107.026 94.8067 106.914C95.0028 106.802 95.2283 106.752 95.4534 106.771C95.6784 106.79 95.8922 106.878 96.0664 107.022C96.2405 107.165 96.3668 107.359 96.4283 107.576L98.0989 113.476L90.1194 112.535Z" fill="#3F3D56"/>
<path d="M84.9814 115.152L86.5819 108.688C86.5819 108.462 86.6507 108.242 86.7791 108.056C86.9075 107.87 87.0894 107.727 87.3006 107.648C87.5119 107.568 87.7425 107.554 87.9617 107.608C88.1809 107.663 88.3783 107.783 88.5278 107.952L92.5837 112.55L84.9814 115.152Z" fill="#F16767"/>
<path d="M58.5737 132.962H61.7747V139.767C61.7747 140.187 61.6919 140.603 61.531 140.992C61.3702 141.38 61.1344 141.733 60.8371 142.031C60.5399 142.328 60.187 142.564 59.7987 142.725C59.4103 142.886 58.9941 142.969 58.5737 142.969V132.962Z" fill="#F16767"/>
<path d="M86.782 130.961H102.587C102.852 130.961 103.106 131.067 103.294 131.254C103.482 131.442 103.587 131.697 103.587 131.962C103.587 132.227 103.482 132.482 103.294 132.67C103.106 132.857 102.852 132.963 102.587 132.963H86.782V130.961Z" fill="#FF6584"/>
<path opacity="0.2" d="M92.1834 121.955V132.901C90.5597 133.074 88.918 132.876 87.3816 132.323C85.8453 131.77 84.4543 130.875 83.3131 129.707C82.1718 128.539 81.3101 127.127 80.7926 125.578C80.2751 124.029 80.1154 122.383 80.3253 120.763C84.0548 120.858 88.059 121.326 92.1834 121.955Z" fill="black"/>
<path d="M92.1836 132.962C98.15 132.962 102.987 128.124 102.987 122.156C102.987 116.187 98.15 111.349 92.1836 111.349C86.2171 111.349 81.3804 116.187 81.3804 122.156C81.3804 128.124 86.2171 132.962 92.1836 132.962Z" fill="#F16767"/>
<path d="M102.587 125.758C103.25 125.758 103.787 124.504 103.787 122.957C103.787 121.409 103.25 120.155 102.587 120.155C101.924 120.155 101.386 121.409 101.386 122.957C101.386 124.504 101.924 125.758 102.587 125.758Z" fill="#3F3D56"/>
<path d="M99.6858 120.755C99.8516 120.755 99.9859 120.441 99.9859 120.054C99.9859 119.668 99.8516 119.354 99.6858 119.354C99.5201 119.354 99.3857 119.668 99.3857 120.054C99.3857 120.441 99.5201 120.755 99.6858 120.755Z" fill="#3F3D56"/>
<path d="M101.887 119.354C102.052 119.354 102.187 119.04 102.187 118.654C102.187 118.267 102.052 117.953 101.887 117.953C101.721 117.953 101.586 118.267 101.586 118.654C101.586 119.04 101.721 119.354 101.887 119.354Z" fill="#3F3D56"/>
<path d="M91.2772 111.229C91.2772 111.229 90.6768 110.184 90.6768 109.547L91.2772 111.229Z" fill="#3F3D56"/>
<path d="M91.5413 110.553C91.5413 110.553 91.8684 109.393 92.3241 108.948L91.5413 110.553Z" fill="#3F3D56"/>
<rect x="155.5" y="113" width="9" height="17" rx="1" transform="rotate(30 155.5 113)" fill="#2A1636"/>
<rect x="151.331" y="127.062" width="2.05263" height="2.05263" rx="1.02632" transform="rotate(30 151.331 127.062)" fill="#F5EAEA"/>
<path d="M164 121L165.964 121.379" stroke="#6B4185" stroke-linecap="round"/>
<path d="M164 117.618L165.957 117.206" stroke="#6B4185" stroke-linecap="round"/>
<path d="M162 115.445L163.159 113.815" stroke="#6B4185" stroke-linecap="round"/>
<path d="M159.321 121.994L154.068 123.109L153.642 121.155L154.304 121.026L154.579 122.323L159.183 121.345L159.321 121.994ZM157.794 122.996C157.761 123.086 157.72 123.177 157.672 123.27C157.638 123.36 157.593 123.449 157.536 123.536C157.338 123.842 157.089 124.09 156.791 124.282C156.501 124.479 156.184 124.614 155.838 124.687C155.507 124.758 155.166 124.766 154.815 124.712C154.471 124.65 154.146 124.519 153.84 124.321C153.534 124.122 153.283 123.878 153.086 123.589C152.895 123.29 152.759 122.973 152.68 122.636C152.616 122.295 152.61 121.95 152.664 121.6C152.726 121.255 152.857 120.93 153.055 120.625C153.254 120.319 153.498 120.067 153.788 119.87C154.086 119.679 154.401 119.548 154.732 119.478C155.078 119.405 155.423 119.399 155.768 119.461C156.118 119.515 156.446 119.641 156.752 119.84C156.97 119.982 157.16 120.149 157.321 120.34C157.482 120.532 157.613 120.741 157.714 120.968L158.384 120.826C158.259 120.521 158.09 120.237 157.876 119.974C157.662 119.711 157.406 119.483 157.109 119.29C156.725 119.04 156.314 118.879 155.877 118.806C155.454 118.73 155.027 118.738 154.594 118.829C154.177 118.918 153.783 119.085 153.413 119.329C153.057 119.57 152.755 119.883 152.505 120.267C152.255 120.651 152.09 121.059 152.008 121.491C151.941 121.919 151.949 122.347 152.032 122.773C152.129 123.197 152.296 123.591 152.531 123.955C152.781 124.316 153.098 124.621 153.483 124.871C153.867 125.121 154.27 125.284 154.693 125.359C155.13 125.432 155.558 125.424 155.976 125.336C156.408 125.244 156.802 125.078 157.157 124.836C157.527 124.592 157.837 124.278 158.087 123.894C158.194 123.728 158.286 123.558 158.362 123.383C158.438 123.209 158.498 123.031 158.542 122.848L157.794 122.996Z" fill="#F5EAEA"/>
</g>
<path d="M123 81.9998H128.991V82.9998C128.991 82.9998 129.011 83.2043 128.991 83.3332C128.948 83.6213 128.816 83.7616 128.639 83.9998C127.963 84.9102 126.877 84.9998 125.819 84.9998C124.762 84.9998 123.91 84.8396 123.352 83.9998C123.121 83.6511 123 82.9998 123 82.9998V81.9998Z" fill="white"/>
<defs>
<filter id="filter0_i_37_87" x="36.5063" y="151.633" width="131.461" height="26.8481" filterUnits="userSpaceOnUse" color-interpolation-filters="sRGB">
<feFlood flood-opacity="0" result="BackgroundImageFix"/>
<feBlend mode="normal" in="SourceGraphic" in2="BackgroundImageFix" result="shape"/>
<feColorMatrix in="SourceAlpha" type="matrix" values="0 0 0 0 0 0 0 0 0 0 0 0 0 0 0 0 0 0 127 0" result="hardAlpha"/>
<feOffset dy="4"/>
<feGaussianBlur stdDeviation="2"/>
<feComposite in2="hardAlpha" operator="arithmetic" k2="-1" k3="1"/>
<feColorMatrix type="matrix" values="0 0 0 0 0 0 0 0 0 0 0 0 0 0 0 0 0 0 0.25 0"/>
<feBlend mode="normal" in2="shape" result="effect1_innerShadow_37_87"/>
</filter>
<clipPath id="clip0_37_87">
<rect width="150" height="142.969" fill="white" transform="translate(29)"/>
</clipPath>
</defs>
</svg>
