<svg width="132" height="24" viewBox="0 0 132 24" fill="none" xmlns="http://www.w3.org/2000/svg">
<g filter="url(#filter0_i_26_499)">
<path d="M5.33838 12.8887H7.25838C8.34638 12.8887 9.19971 12.6327 9.81838 12.1207C10.4584 11.6087 10.7784 10.8727 10.7784 9.91275C10.7784 8.95275 10.4797 8.22742 9.88238 7.73675C9.28504 7.24608 8.42104 7.00075 7.29038 7.00075C6.90638 7.00075 6.55438 7.01142 6.23438 7.03275C5.93571 7.05408 5.63704 7.08608 5.33838 7.12875V12.8887ZM7.57838 16.7287H0.506375V5.27275C0.506375 4.86742 0.623708 4.54742 0.858375 4.31275C1.09304 4.07808 1.40238 3.89675 1.78638 3.76875C2.49038 3.51275 3.33304 3.33142 4.31438 3.22475C5.29571 3.11808 6.18104 3.06475 6.97038 3.06475C9.85038 3.06475 12.0264 3.68342 13.4984 4.92075C14.9917 6.13675 15.7384 7.80075 15.7384 9.91275C15.7384 11.2781 15.4077 12.4727 14.7464 13.4967C14.1064 14.5207 13.1784 15.3207 11.9624 15.8967C10.7464 16.4514 9.28504 16.7287 7.57838 16.7287ZM0.506375 14.5847H5.37038V22.9367C5.17838 23.0008 4.86904 23.0541 4.44238 23.0968C4.01571 23.1608 3.57838 23.1928 3.13038 23.1928C2.17038 23.1928 1.48771 23.0221 1.08238 22.6807C0.698375 22.3394 0.506375 21.7421 0.506375 20.8887V14.5847ZM20.2984 17.5287L20.1064 14.3287L28.0424 13.0807C27.9997 12.4834 27.7437 11.9287 27.2744 11.4167C26.805 10.9047 26.1117 10.6487 25.1944 10.6487C24.2344 10.6487 23.4344 10.9794 22.7944 11.6407C22.1544 12.2807 21.813 13.1981 21.7704 14.3927L21.9304 16.6007C22.1224 17.7741 22.6237 18.6167 23.4344 19.1287C24.245 19.6194 25.205 19.8647 26.3144 19.8647C27.2104 19.8647 28.053 19.7367 28.8424 19.4807C29.6317 19.2247 30.2717 18.9581 30.7624 18.6807C31.0824 18.8727 31.3384 19.1394 31.5304 19.4807C31.7437 19.8221 31.8504 20.1847 31.8504 20.5687C31.8504 21.2087 31.5944 21.7421 31.0824 22.1687C30.5917 22.5954 29.8984 22.9154 29.0024 23.1288C28.1277 23.3421 27.125 23.4488 25.9944 23.4488C24.3517 23.4488 22.869 23.1394 21.5464 22.5207C20.245 21.9021 19.221 20.9741 18.4744 19.7367C17.7277 18.4994 17.3544 16.9527 17.3544 15.0967C17.3544 13.7314 17.5677 12.5474 17.9944 11.5447C18.4424 10.5421 19.029 9.72075 19.7544 9.08075C20.501 8.41942 21.333 7.92875 22.2504 7.60875C23.189 7.28875 24.1597 7.12875 25.1624 7.12875C26.6344 7.12875 27.9144 7.42742 29.0024 8.02475C30.1117 8.60075 30.9757 9.39008 31.5944 10.3927C32.213 11.3954 32.5224 12.5581 32.5224 13.8807C32.5224 14.5421 32.341 15.0434 31.9784 15.3847C31.6157 15.7261 31.1144 15.9394 30.4744 16.0247L20.2984 17.5287ZM35.4661 14.5208H40.1701V17.9447C40.1701 18.5421 40.3621 18.9794 40.7461 19.2567C41.1301 19.5341 41.6741 19.6727 42.3781 19.6727C42.6981 19.6727 43.0395 19.6407 43.4021 19.5767C43.7861 19.4914 44.1061 19.3954 44.3621 19.2887C44.5328 19.4807 44.6821 19.7154 44.8101 19.9927C44.9595 20.2701 45.0341 20.5901 45.0341 20.9527C45.0341 21.6781 44.7355 22.2754 44.1381 22.7447C43.5408 23.2141 42.5381 23.4488 41.1301 23.4488C39.3381 23.4488 37.9408 23.0434 36.9381 22.2327C35.9568 21.4221 35.4661 20.0994 35.4661 18.2648V14.5208ZM38.4741 11.6087V7.96075H44.6181C44.7248 8.13142 44.8315 8.37675 44.9381 8.69675C45.0448 9.01675 45.0981 9.36875 45.0981 9.75275C45.0981 10.3927 44.9488 10.8621 44.6501 11.1607C44.3728 11.4594 43.9888 11.6087 43.4981 11.6087H38.4741ZM40.1701 15.3207H35.4661V3.83275C35.6795 3.76875 35.9781 3.70475 36.3621 3.64075C36.7461 3.55542 37.1515 3.51275 37.5781 3.51275C38.4955 3.51275 39.1568 3.67275 39.5621 3.99275C39.9675 4.31275 40.1701 4.89942 40.1701 5.75275V15.3207Z" fill="#F16767"/>
<path d="M48.3501 9.43275H53.2141V22.9367C53.0221 23.0008 52.7128 23.0541 52.2861 23.0968C51.8595 23.1608 51.4221 23.1928 50.9741 23.1928C50.0141 23.1928 49.3315 23.0221 48.9261 22.6807C48.5421 22.3394 48.3501 21.7421 48.3501 20.8887V9.43275ZM53.2141 15.5767H48.3501V3.51275C48.5635 3.47008 48.8835 3.41675 49.3101 3.35275C49.7581 3.28875 50.1955 3.25675 50.6221 3.25675C51.5395 3.25675 52.2008 3.41675 52.6061 3.73675C53.0115 4.05675 53.2141 4.66475 53.2141 5.56075V15.5767ZM72.0596 13.0167V16.0247H67.2916V13.1767C67.2916 12.3874 67.057 11.8114 66.5876 11.4487C66.1396 11.0647 65.5423 10.8727 64.7956 10.8727C64.2623 10.8727 63.7716 10.9474 63.3236 11.0967C62.8756 11.2247 62.4703 11.3847 62.1076 11.5767V16.0247H57.3716V11.0327C57.3716 10.4994 57.4783 10.0621 57.6916 9.72075C57.9263 9.35808 58.257 9.03808 58.6836 8.76075C59.3663 8.29142 60.241 7.90742 61.3076 7.60875C62.3743 7.28875 63.5476 7.12875 64.8276 7.12875C67.1316 7.12875 68.913 7.64075 70.1716 8.66475C71.4303 9.66742 72.0596 11.1181 72.0596 13.0167ZM57.3716 14.5527H62.1076V22.9367C61.8943 23.0008 61.5956 23.0541 61.2116 23.0968C60.8276 23.1608 60.4116 23.1928 59.9636 23.1928C59.0676 23.1928 58.4063 23.0328 57.9796 22.7127C57.5743 22.3927 57.3716 21.8167 57.3716 20.9847V14.5527ZM67.2916 14.5527H72.0596V22.9367C71.8463 23.0008 71.5476 23.0541 71.1636 23.0968C70.7796 23.1608 70.3636 23.1928 69.9156 23.1928C69.0196 23.1928 68.3583 23.0328 67.9316 22.7127C67.505 22.3927 67.2916 21.8167 67.2916 20.9847V14.5527ZM85.7299 19.1607V9.52875H90.4659V19.7687C90.4659 20.2807 90.3592 20.7181 90.1459 21.0807C89.9325 21.4221 89.5912 21.7314 89.1219 22.0087C88.5459 22.3927 87.7885 22.7234 86.8499 23.0008C85.9325 23.2994 84.8659 23.4488 83.6499 23.4488C81.8792 23.4488 80.3432 23.1501 79.0419 22.5527C77.7619 21.9554 76.7699 21.0594 76.0659 19.8647C75.3832 18.6487 75.0419 17.1447 75.0419 15.3527C75.0419 13.4754 75.3939 11.9394 76.0979 10.7447C76.8232 9.52875 77.7939 8.62208 79.0099 8.02475C80.2259 7.42742 81.5699 7.12875 83.0419 7.12875C83.8099 7.12875 84.4925 7.21408 85.0899 7.38475C85.6872 7.55542 86.1779 7.75808 86.5619 7.99275V11.8967C86.2632 11.6407 85.8685 11.4061 85.3779 11.1927C84.8872 10.9794 84.3219 10.8727 83.6819 10.8727C82.9352 10.8727 82.2739 11.0327 81.6979 11.3527C81.1219 11.6727 80.6739 12.1634 80.3539 12.8247C80.0339 13.4861 79.8739 14.3287 79.8739 15.3527C79.8739 16.8461 80.2045 17.9447 80.8659 18.6487C81.5485 19.3527 82.4659 19.7047 83.6179 19.7047C84.0872 19.7047 84.5032 19.6514 84.8659 19.5447C85.2285 19.4167 85.5165 19.2887 85.7299 19.1607ZM90.4659 10.4567L85.7299 10.4887V2.13675C85.9219 2.07275 86.2099 2.00875 86.5939 1.94475C86.9779 1.88075 87.3939 1.84875 87.8419 1.84875C88.7805 1.84875 89.4525 2.00875 89.8579 2.32875C90.2632 2.64875 90.4659 3.23542 90.4659 4.08875V10.4567ZM94.0866 3.19275C94.0866 2.46742 94.332 1.85942 94.8226 1.36875C95.3346 0.878083 95.9746 0.63275 96.7426 0.63275C97.532 0.63275 98.172 0.878083 98.6626 1.36875C99.1533 1.85942 99.3986 2.46742 99.3986 3.19275C99.3986 3.89675 99.1533 4.50475 98.6626 5.01675C98.172 5.52875 97.532 5.78475 96.7426 5.78475C95.9746 5.78475 95.3346 5.52875 94.8226 5.01675C94.332 4.50475 94.0866 3.89675 94.0866 3.19275ZM94.3746 14.5208H99.1106V22.9367C98.9186 23.0008 98.6306 23.0541 98.2466 23.0968C97.8626 23.1608 97.4466 23.1928 96.9986 23.1928C96.0813 23.1928 95.4093 23.0328 94.9826 22.7127C94.5773 22.3927 94.3746 21.8167 94.3746 20.9847V14.5208ZM99.1106 16.9847H94.3746V7.80075C94.5666 7.73675 94.8546 7.67275 95.2386 7.60875C95.644 7.54475 96.0706 7.51275 96.5186 7.51275C97.436 7.51275 98.0973 7.67275 98.5026 7.99275C98.908 8.29142 99.1106 8.87808 99.1106 9.75275V16.9847ZM111.253 10.9047C110.101 10.9047 109.109 11.2887 108.277 12.0567C107.467 12.8034 107.061 13.9021 107.061 15.3527C107.061 16.7821 107.456 17.8594 108.245 18.5847C109.035 19.3101 110.027 19.6727 111.221 19.6727C111.925 19.6727 112.533 19.5874 113.045 19.4167C113.579 19.2247 114.037 19.0221 114.421 18.8087C114.784 19.0647 115.061 19.3527 115.253 19.6727C115.445 19.9714 115.541 20.3447 115.541 20.7927C115.541 21.5821 115.115 22.2221 114.261 22.7127C113.408 23.2034 112.224 23.4488 110.709 23.4488C109.024 23.4488 107.541 23.1501 106.261 22.5527C104.981 21.9341 103.989 21.0167 103.285 19.8007C102.581 18.5847 102.229 17.1021 102.229 15.3527C102.229 13.4967 102.613 11.9714 103.381 10.7767C104.149 9.56075 105.163 8.65408 106.421 8.05675C107.701 7.43808 109.088 7.12875 110.581 7.12875C112.053 7.12875 113.205 7.39542 114.037 7.92875C114.891 8.46208 115.317 9.12342 115.317 9.91275C115.317 10.2967 115.221 10.6487 115.029 10.9687C114.859 11.2674 114.656 11.5341 114.421 11.7687C114.016 11.5554 113.547 11.3634 113.013 11.1927C112.501 11.0007 111.915 10.9047 111.253 10.9047ZM124.863 19.9287C125.354 19.9287 125.834 19.8861 126.303 19.8007C126.794 19.6941 127.146 19.5767 127.359 19.4487V16.3767L124.671 16.6327C123.946 16.6754 123.37 16.8247 122.943 17.0807C122.516 17.3367 122.303 17.7207 122.303 18.2327C122.303 18.7447 122.506 19.1607 122.911 19.4807C123.316 19.7794 123.967 19.9287 124.863 19.9287ZM124.671 7.12875C126.89 7.12875 128.66 7.59808 129.983 8.53675C131.306 9.45408 131.967 10.8834 131.967 12.8247V20.0887C131.967 20.6221 131.828 21.0594 131.551 21.4007C131.274 21.7207 130.922 21.9981 130.495 22.2327C129.855 22.6167 129.055 22.9154 128.095 23.1288C127.156 23.3634 126.079 23.4808 124.863 23.4808C122.687 23.4808 120.948 23.0541 119.647 22.2007C118.367 21.3474 117.727 20.0781 117.727 18.3927C117.727 16.9421 118.175 15.8327 119.071 15.0647C119.967 14.2754 121.3 13.7954 123.071 13.6247L127.327 13.1767V12.7927C127.327 12.0674 127.039 11.5447 126.463 11.2247C125.908 10.9047 125.108 10.7447 124.063 10.7447C123.252 10.7447 122.452 10.8407 121.663 11.0327C120.895 11.2247 120.202 11.4487 119.583 11.7047C119.327 11.5341 119.103 11.2781 118.911 10.9367C118.74 10.5741 118.655 10.2007 118.655 9.81675C118.655 8.92075 119.146 8.27008 120.127 7.86475C120.746 7.60875 121.46 7.42742 122.271 7.32075C123.103 7.19275 123.903 7.12875 124.671 7.12875Z" fill="white"/>
<path d="M48.3501 9.43275H53.2141V22.9367C53.0221 23.0008 52.7128 23.0541 52.2861 23.0968C51.8595 23.1608 51.4221 23.1928 50.9741 23.1928C50.0141 23.1928 49.3315 23.0221 48.9261 22.6807C48.5421 22.3394 48.3501 21.7421 48.3501 20.8887V9.43275ZM53.2141 15.5767H48.3501V3.51275C48.5635 3.47008 48.8835 3.41675 49.3101 3.35275C49.7581 3.28875 50.1955 3.25675 50.6221 3.25675C51.5395 3.25675 52.2008 3.41675 52.6061 3.73675C53.0115 4.05675 53.2141 4.66475 53.2141 5.56075V15.5767ZM72.0596 13.0167V16.0247H67.2916V13.1767C67.2916 12.3874 67.057 11.8114 66.5876 11.4487C66.1396 11.0647 65.5423 10.8727 64.7956 10.8727C64.2623 10.8727 63.7716 10.9474 63.3236 11.0967C62.8756 11.2247 62.4703 11.3847 62.1076 11.5767V16.0247H57.3716V11.0327C57.3716 10.4994 57.4783 10.0621 57.6916 9.72075C57.9263 9.35808 58.257 9.03808 58.6836 8.76075C59.3663 8.29142 60.241 7.90742 61.3076 7.60875C62.3743 7.28875 63.5476 7.12875 64.8276 7.12875C67.1316 7.12875 68.913 7.64075 70.1716 8.66475C71.4303 9.66742 72.0596 11.1181 72.0596 13.0167ZM57.3716 14.5527H62.1076V22.9367C61.8943 23.0008 61.5956 23.0541 61.2116 23.0968C60.8276 23.1608 60.4116 23.1928 59.9636 23.1928C59.0676 23.1928 58.4063 23.0328 57.9796 22.7127C57.5743 22.3927 57.3716 21.8167 57.3716 20.9847V14.5527ZM67.2916 14.5527H72.0596V22.9367C71.8463 23.0008 71.5476 23.0541 71.1636 23.0968C70.7796 23.1608 70.3636 23.1928 69.9156 23.1928C69.0196 23.1928 68.3583 23.0328 67.9316 22.7127C67.505 22.3927 67.2916 21.8167 67.2916 20.9847V14.5527ZM85.7299 19.1607V9.52875H90.4659V19.7687C90.4659 20.2807 90.3592 20.7181 90.1459 21.0807C89.9325 21.4221 89.5912 21.7314 89.1219 22.0087C88.5459 22.3927 87.7885 22.7234 86.8499 23.0008C85.9325 23.2994 84.8659 23.4488 83.6499 23.4488C81.8792 23.4488 80.3432 23.1501 79.0419 22.5527C77.7619 21.9554 76.7699 21.0594 76.0659 19.8647C75.3832 18.6487 75.0419 17.1447 75.0419 15.3527C75.0419 13.4754 75.3939 11.9394 76.0979 10.7447C76.8232 9.52875 77.7939 8.62208 79.0099 8.02475C80.2259 7.42742 81.5699 7.12875 83.0419 7.12875C83.8099 7.12875 84.4925 7.21408 85.0899 7.38475C85.6872 7.55542 86.1779 7.75808 86.5619 7.99275V11.8967C86.2632 11.6407 85.8685 11.4061 85.3779 11.1927C84.8872 10.9794 84.3219 10.8727 83.6819 10.8727C82.9352 10.8727 82.2739 11.0327 81.6979 11.3527C81.1219 11.6727 80.6739 12.1634 80.3539 12.8247C80.0339 13.4861 79.8739 14.3287 79.8739 15.3527C79.8739 16.8461 80.2045 17.9447 80.8659 18.6487C81.5485 19.3527 82.4659 19.7047 83.6179 19.7047C84.0872 19.7047 84.5032 19.6514 84.8659 19.5447C85.2285 19.4167 85.5165 19.2887 85.7299 19.1607ZM90.4659 10.4567L85.7299 10.4887V2.13675C85.9219 2.07275 86.2099 2.00875 86.5939 1.94475C86.9779 1.88075 87.3939 1.84875 87.8419 1.84875C88.7805 1.84875 89.4525 2.00875 89.8579 2.32875C90.2632 2.64875 90.4659 3.23542 90.4659 4.08875V10.4567ZM94.0866 3.19275C94.0866 2.46742 94.332 1.85942 94.8226 1.36875C95.3346 0.878083 95.9746 0.63275 96.7426 0.63275C97.532 0.63275 98.172 0.878083 98.6626 1.36875C99.1533 1.85942 99.3986 2.46742 99.3986 3.19275C99.3986 3.89675 99.1533 4.50475 98.6626 5.01675C98.172 5.52875 97.532 5.78475 96.7426 5.78475C95.9746 5.78475 95.3346 5.52875 94.8226 5.01675C94.332 4.50475 94.0866 3.89675 94.0866 3.19275ZM94.3746 14.5208H99.1106V22.9367C98.9186 23.0008 98.6306 23.0541 98.2466 23.0968C97.8626 23.1608 97.4466 23.1928 96.9986 23.1928C96.0813 23.1928 95.4093 23.0328 94.9826 22.7127C94.5773 22.3927 94.3746 21.8167 94.3746 20.9847V14.5208ZM99.1106 16.9847H94.3746V7.80075C94.5666 7.73675 94.8546 7.67275 95.2386 7.60875C95.644 7.54475 96.0706 7.51275 96.5186 7.51275C97.436 7.51275 98.0973 7.67275 98.5026 7.99275C98.908 8.29142 99.1106 8.87808 99.1106 9.75275V16.9847ZM111.253 10.9047C110.101 10.9047 109.109 11.2887 108.277 12.0567C107.467 12.8034 107.061 13.9021 107.061 15.3527C107.061 16.7821 107.456 17.8594 108.245 18.5847C109.035 19.3101 110.027 19.6727 111.221 19.6727C111.925 19.6727 112.533 19.5874 113.045 19.4167C113.579 19.2247 114.037 19.0221 114.421 18.8087C114.784 19.0647 115.061 19.3527 115.253 19.6727C115.445 19.9714 115.541 20.3447 115.541 20.7927C115.541 21.5821 115.115 22.2221 114.261 22.7127C113.408 23.2034 112.224 23.4488 110.709 23.4488C109.024 23.4488 107.541 23.1501 106.261 22.5527C104.981 21.9341 103.989 21.0167 103.285 19.8007C102.581 18.5847 102.229 17.1021 102.229 15.3527C102.229 13.4967 102.613 11.9714 103.381 10.7767C104.149 9.56075 105.163 8.65408 106.421 8.05675C107.701 7.43808 109.088 7.12875 110.581 7.12875C112.053 7.12875 113.205 7.39542 114.037 7.92875C114.891 8.46208 115.317 9.12342 115.317 9.91275C115.317 10.2967 115.221 10.6487 115.029 10.9687C114.859 11.2674 114.656 11.5341 114.421 11.7687C114.016 11.5554 113.547 11.3634 113.013 11.1927C112.501 11.0007 111.915 10.9047 111.253 10.9047ZM124.863 19.9287C125.354 19.9287 125.834 19.8861 126.303 19.8007C126.794 19.6941 127.146 19.5767 127.359 19.4487V16.3767L124.671 16.6327C123.946 16.6754 123.37 16.8247 122.943 17.0807C122.516 17.3367 122.303 17.7207 122.303 18.2327C122.303 18.7447 122.506 19.1607 122.911 19.4807C123.316 19.7794 123.967 19.9287 124.863 19.9287ZM124.671 7.12875C126.89 7.12875 128.66 7.59808 129.983 8.53675C131.306 9.45408 131.967 10.8834 131.967 12.8247V20.0887C131.967 20.6221 131.828 21.0594 131.551 21.4007C131.274 21.7207 130.922 21.9981 130.495 22.2327C129.855 22.6167 129.055 22.9154 128.095 23.1288C127.156 23.3634 126.079 23.4808 124.863 23.4808C122.687 23.4808 120.948 23.0541 119.647 22.2007C118.367 21.3474 117.727 20.0781 117.727 18.3927C117.727 16.9421 118.175 15.8327 119.071 15.0647C119.967 14.2754 121.3 13.7954 123.071 13.6247L127.327 13.1767V12.7927C127.327 12.0674 127.039 11.5447 126.463 11.2247C125.908 10.9047 125.108 10.7447 124.063 10.7447C123.252 10.7447 122.452 10.8407 121.663 11.0327C120.895 11.2247 120.202 11.4487 119.583 11.7047C119.327 11.5341 119.103 11.2781 118.911 10.9367C118.74 10.5741 118.655 10.2007 118.655 9.81675C118.655 8.92075 119.146 8.27008 120.127 7.86475C120.746 7.60875 121.46 7.42742 122.271 7.32075C123.103 7.19275 123.903 7.12875 124.671 7.12875Z" fill="#333333"/>
</g>
<defs>
<filter id="filter0_i_26_499" x="0.506348" y="0.632812" width="131.461" height="26.8481" filterUnits="userSpaceOnUse" color-interpolation-filters="sRGB">
<feFlood flood-opacity="0" result="BackgroundImageFix"/>
<feBlend mode="normal" in="SourceGraphic" in2="BackgroundImageFix" result="shape"/>
<feColorMatrix in="SourceAlpha" type="matrix" values="0 0 0 0 0 0 0 0 0 0 0 0 0 0 0 0 0 0 127 0" result="hardAlpha"/>
<feOffset dy="4"/>
<feGaussianBlur stdDeviation="2"/>
<feComposite in2="hardAlpha" operator="arithmetic" k2="-1" k3="1"/>
<feColorMatrix type="matrix" values="0 0 0 0 0 0 0 0 0 0 0 0 0 0 0 0 0 0 0.25 0"/>
<feBlend mode="normal" in2="shape" result="effect1_innerShadow_26_499"/>
</filter>
</defs>
</svg>
