<svg width="50" height="34" viewBox="0 0 50 34" fill="none" xmlns="http://www.w3.org/2000/svg">
<g clip-path="url(#clip0_98_46)">
<path d="M22.75 28V33.25" stroke="white" stroke-miterlimit="10" stroke-linecap="round" stroke-linejoin="round"/>
<path d="M22.75 28V33.25" stroke="black" stroke-miterlimit="10" stroke-linecap="round" stroke-linejoin="round"/>
<path d="M25 28V33.25" stroke="white" stroke-miterlimit="10" stroke-linecap="round" stroke-linejoin="round"/>
<path d="M25 28V33.25" stroke="black" stroke-miterlimit="10" stroke-linecap="round" stroke-linejoin="round"/>
<path fill-rule="evenodd" clip-rule="evenodd" d="M16.75 7L49 20.1141L25.3079 20.5L16.75 7Z" fill="#F16767"/>
<path fill-rule="evenodd" clip-rule="evenodd" d="M16.75 7L49 20.1141L25.3079 20.5L16.75 7Z" stroke="white" stroke-miterlimit="10" stroke-linecap="round" stroke-linejoin="round"/>
<path fill-rule="evenodd" clip-rule="evenodd" d="M16.75 7L49 20.1141L25.3079 20.5L16.75 7Z" stroke="black" stroke-miterlimit="10" stroke-linecap="round" stroke-linejoin="round"/>
<path fill-rule="evenodd" clip-rule="evenodd" d="M11.5681 3.25C6.79606 11.6191 9.62806 22.3208 17.8934 27.1527C26.1588 31.9848 36.7278 29.1171 41.4999 20.7479L11.5681 3.25Z" fill="#F16767"/>
<path fill-rule="evenodd" clip-rule="evenodd" d="M11.5681 3.25C6.79606 11.6191 9.62806 22.3208 17.8934 27.1527C26.1588 31.9848 36.7278 29.1171 41.4999 20.7479L11.5681 3.25Z" stroke="white" stroke-miterlimit="10" stroke-linecap="round" stroke-linejoin="round"/>
<path fill-rule="evenodd" clip-rule="evenodd" d="M11.5681 3.25C6.79606 11.6191 9.62806 22.3208 17.8934 27.1527C26.1588 31.9848 36.7278 29.1171 41.4999 20.7479L11.5681 3.25Z" stroke="black" stroke-miterlimit="10" stroke-linecap="round" stroke-linejoin="round"/>
<path fill-rule="evenodd" clip-rule="evenodd" d="M17.5095 7.74951C14.402 13.2493 16.2461 20.2818 21.6283 23.4571C27.0105 26.6324 33.8926 24.7481 36.9999 19.2483" fill="#FFB84C"/>
<path d="M17.5095 7.74951C14.402 13.2493 16.2461 20.2818 21.6283 23.4571C27.0105 26.6324 33.8926 24.7481 36.9999 19.2483" stroke="white" stroke-miterlimit="10" stroke-linecap="round" stroke-linejoin="round"/>
<path d="M17.5095 7.74951C14.402 13.2493 16.2461 20.2818 21.6283 23.4571C27.0105 26.6324 33.8926 24.7481 36.9999 19.2483" stroke="black" stroke-miterlimit="10" stroke-linecap="round" stroke-linejoin="round"/>
<path fill-rule="evenodd" clip-rule="evenodd" d="M4.00694 5.5L1 6.25206L4.75 7.75" fill="#26BBEC"/>
<path d="M4.00694 5.5L1 6.25206L4.75 7.75" stroke="white" stroke-miterlimit="10" stroke-linecap="round" stroke-linejoin="round"/>
<path d="M4.00694 5.5L1 6.25206L4.75 7.75" stroke="black" stroke-miterlimit="10" stroke-linecap="round" stroke-linejoin="round"/>
<path d="M9.25 11.5C12.1495 11.5 14.5 9.1495 14.5 6.25C14.5 3.35051 12.1495 1 9.25 1C6.35051 1 4 3.35051 4 6.25C4 9.1495 6.35051 11.5 9.25 11.5Z" fill="#FBAD4A"/>
<path d="M9.25 11.5C12.1495 11.5 14.5 9.1495 14.5 6.25C14.5 3.35051 12.1495 1 9.25 1C6.35051 1 4 3.35051 4 6.25C4 9.1495 6.35051 11.5 9.25 11.5Z" stroke="white" stroke-miterlimit="10" stroke-linecap="round" stroke-linejoin="round"/>
<path d="M9.25 11.5C12.1495 11.5 14.5 9.1495 14.5 6.25C14.5 3.35051 12.1495 1 9.25 1C6.35051 1 4 3.35051 4 6.25C4 9.1495 6.35051 11.5 9.25 11.5Z" stroke="black" stroke-miterlimit="10" stroke-linecap="round" stroke-linejoin="round"/>
<path d="M7 7C7.82843 7 8.5 6.32843 8.5 5.5C8.5 4.67157 7.82843 4 7 4C6.17157 4 5.5 4.67157 5.5 5.5C5.5 6.32843 6.17157 7 7 7Z" fill="white"/>
<path d="M7 7C7.82843 7 8.5 6.32843 8.5 5.5C8.5 4.67157 7.82843 4 7 4C6.17157 4 5.5 4.67157 5.5 5.5C5.5 6.32843 6.17157 7 7 7Z" stroke="white" stroke-miterlimit="10" stroke-linecap="round" stroke-linejoin="round"/>
<path d="M7 7C7.82843 7 8.5 6.32843 8.5 5.5C8.5 4.67157 7.82843 4 7 4C6.17157 4 5.5 4.67157 5.5 5.5C5.5 6.32843 6.17157 7 7 7Z" stroke="black" stroke-miterlimit="10" stroke-linecap="round" stroke-linejoin="round"/>
</g>
<defs>
<clipPath id="clip0_98_46">
<rect width="50" height="34" fill="white"/>
</clipPath>
</defs>
</svg>
