<svg width="50" height="47" viewBox="0 0 50 47" fill="none" xmlns="http://www.w3.org/2000/svg">
<g clip-path="url(#clip0_98_69)">
<path fill-rule="evenodd" clip-rule="evenodd" d="M40.3442 1.02577C40.0842 1.00866 39.8218 1 39.5574 1C33.0387 1 27.7542 6.28453 27.7542 12.8033C27.7542 19.322 33.0387 24.6066 39.5574 24.6066C39.8218 24.6066 40.0842 24.5979 40.3442 24.5808V1.02577Z" fill="#FFB84C"/>
<path fill-rule="evenodd" clip-rule="evenodd" d="M40.3442 1.02577C40.0842 1.00866 39.8218 1 39.5574 1C33.0387 1 27.7542 6.28453 27.7542 12.8033C27.7542 19.322 33.0387 24.6066 39.5574 24.6066C39.8218 24.6066 40.0842 24.5979 40.3442 24.5808V1.02577Z" stroke="white" stroke-miterlimit="10" stroke-linecap="round" stroke-linejoin="round"/>
<path fill-rule="evenodd" clip-rule="evenodd" d="M40.3442 1.02577C40.0842 1.00866 39.8218 1 39.5574 1C33.0387 1 27.7542 6.28453 27.7542 12.8033C27.7542 19.322 33.0387 24.6066 39.5574 24.6066C39.8218 24.6066 40.0842 24.5979 40.3442 24.5808V1.02577Z" stroke="black" stroke-miterlimit="10" stroke-linecap="round" stroke-linejoin="round"/>
<path fill-rule="evenodd" clip-rule="evenodd" d="M8.86865 1.02577C9.12872 1.00866 9.39114 1 9.65554 1C16.1743 1 21.4588 6.28453 21.4588 12.8033C21.4588 19.322 16.1743 24.6066 9.65554 24.6066C9.39114 24.6066 9.12872 24.5979 8.86865 24.5808V1.02577Z" fill="#FFB84C"/>
<path fill-rule="evenodd" clip-rule="evenodd" d="M8.86865 1.02577C9.12872 1.00866 9.39114 1 9.65554 1C16.1743 1 21.4588 6.28453 21.4588 12.8033C21.4588 19.322 16.1743 24.6066 9.65554 24.6066C9.39114 24.6066 9.12872 24.5979 8.86865 24.5808V1.02577Z" stroke="white" stroke-miterlimit="10" stroke-linecap="round" stroke-linejoin="round"/>
<path fill-rule="evenodd" clip-rule="evenodd" d="M8.86865 1.02577C9.12872 1.00866 9.39114 1 9.65554 1C16.1743 1 21.4588 6.28453 21.4588 12.8033C21.4588 19.322 16.1743 24.6066 9.65554 24.6066C9.39114 24.6066 9.12872 24.5979 8.86865 24.5808V1.02577Z" stroke="black" stroke-miterlimit="10" stroke-linecap="round" stroke-linejoin="round"/>
<path d="M24.6067 45.8521C35.4713 45.8521 44.2789 37.0446 44.2789 26.18C44.2789 15.3153 35.4713 6.50781 24.6067 6.50781C13.7421 6.50781 4.93457 15.3153 4.93457 26.18C4.93457 37.0446 13.7421 45.8521 24.6067 45.8521Z" fill="#FFDD95"/>
<path d="M24.6067 45.8521C35.4713 45.8521 44.2789 37.0446 44.2789 26.18C44.2789 15.3153 35.4713 6.50781 24.6067 6.50781C13.7421 6.50781 4.93457 15.3153 4.93457 26.18C4.93457 37.0446 13.7421 45.8521 24.6067 45.8521Z" stroke="white" stroke-miterlimit="10" stroke-linecap="round" stroke-linejoin="round"/>
<path d="M24.6067 45.8521C35.4713 45.8521 44.2789 37.0446 44.2789 26.18C44.2789 15.3153 35.4713 6.50781 24.6067 6.50781C13.7421 6.50781 4.93457 15.3153 4.93457 26.18C4.93457 37.0446 13.7421 45.8521 24.6067 45.8521Z" stroke="black" stroke-miterlimit="10" stroke-linecap="round" stroke-linejoin="round"/>
<path d="M14.377 21.459C14.377 23.1974 15.7861 24.6065 17.5245 24.6065C19.2627 24.6065 20.672 23.1974 20.672 21.459" stroke="white" stroke-miterlimit="10" stroke-linecap="round" stroke-linejoin="round"/>
<path d="M14.377 21.459C14.377 23.1974 15.7861 24.6065 17.5245 24.6065C19.2627 24.6065 20.672 23.1974 20.672 21.459" stroke="black" stroke-miterlimit="10" stroke-linecap="round" stroke-linejoin="round"/>
<path d="M27.7542 21.459C27.7542 23.1974 29.1632 24.6065 30.9016 24.6065C32.6398 24.6065 34.0491 23.1974 34.0491 21.459" stroke="white" stroke-miterlimit="10" stroke-linecap="round" stroke-linejoin="round"/>
<path d="M27.7542 21.459C27.7542 23.1974 29.1632 24.6065 30.9016 24.6065C32.6398 24.6065 34.0491 23.1974 34.0491 21.459" stroke="black" stroke-miterlimit="10" stroke-linecap="round" stroke-linejoin="round"/>
<path d="M18.3115 33.2622C18.3115 35.0006 19.7206 36.4097 21.4591 36.4097C23.1973 36.4097 24.6066 35.0006 24.6066 33.2622" stroke="white" stroke-miterlimit="10" stroke-linecap="round" stroke-linejoin="round"/>
<path d="M18.3115 33.2622C18.3115 35.0006 19.7206 36.4097 21.4591 36.4097C23.1973 36.4097 24.6066 35.0006 24.6066 33.2622" stroke="black" stroke-miterlimit="10" stroke-linecap="round" stroke-linejoin="round"/>
<path d="M24.6067 33.2622C24.6067 35.0006 26.0158 36.4097 27.7542 36.4097C29.4925 36.4097 30.9018 35.0006 30.9018 33.2622" stroke="white" stroke-miterlimit="10" stroke-linecap="round" stroke-linejoin="round"/>
<path d="M24.6067 33.2622C24.6067 35.0006 26.0158 36.4097 27.7542 36.4097C29.4925 36.4097 30.9018 35.0006 30.9018 33.2622" stroke="black" stroke-miterlimit="10" stroke-linecap="round" stroke-linejoin="round"/>
<path fill-rule="evenodd" clip-rule="evenodd" d="M24.6065 34.0493L28.541 28.5411L26.1606 26.9673H23.0995L20.6721 28.5411L24.6065 34.0493Z" fill="#595959"/>
<path fill-rule="evenodd" clip-rule="evenodd" d="M24.6065 34.0493L28.541 28.5411L26.1606 26.9673H23.0995L20.6721 28.5411L24.6065 34.0493Z" stroke="white" stroke-miterlimit="10" stroke-linecap="round" stroke-linejoin="round"/>
<path fill-rule="evenodd" clip-rule="evenodd" d="M24.6065 34.0493L28.541 28.5411L26.1606 26.9673H23.0995L20.6721 28.5411L24.6065 34.0493Z" stroke="black" stroke-miterlimit="10" stroke-linecap="round" stroke-linejoin="round"/>
<path d="M10.4426 25.3936H1" stroke="white" stroke-miterlimit="10" stroke-linecap="round" stroke-linejoin="round"/>
<path d="M10.4426 25.3936H1" stroke="black" stroke-miterlimit="10" stroke-linecap="round" stroke-linejoin="round"/>
<path d="M10.4426 28.541H1" stroke="white" stroke-miterlimit="10" stroke-linecap="round" stroke-linejoin="round"/>
<path d="M10.4426 28.541H1" stroke="black" stroke-miterlimit="10" stroke-linecap="round" stroke-linejoin="round"/>
<path d="M10.4426 31.6885H1" stroke="white" stroke-miterlimit="10" stroke-linecap="round" stroke-linejoin="round"/>
<path d="M10.4426 31.6885H1" stroke="black" stroke-miterlimit="10" stroke-linecap="round" stroke-linejoin="round"/>
<path d="M49 25.3936H39.5574" stroke="white" stroke-miterlimit="10" stroke-linecap="round" stroke-linejoin="round"/>
<path d="M49 25.3936H39.5574" stroke="black" stroke-miterlimit="10" stroke-linecap="round" stroke-linejoin="round"/>
<path d="M49 28.541H39.5574" stroke="white" stroke-miterlimit="10" stroke-linecap="round" stroke-linejoin="round"/>
<path d="M49 28.541H39.5574" stroke="black" stroke-miterlimit="10" stroke-linecap="round" stroke-linejoin="round"/>
<path d="M49 31.6885H39.5574" stroke="white" stroke-miterlimit="10" stroke-linecap="round" stroke-linejoin="round"/>
<path d="M49 31.6885H39.5574" stroke="black" stroke-miterlimit="10" stroke-linecap="round" stroke-linejoin="round"/>
</g>
<defs>
<clipPath id="clip0_98_69">
<rect width="50" height="47" fill="white"/>
</clipPath>
</defs>
</svg>
