<svg width="50" height="47" viewBox="0 0 50 47" fill="none" xmlns="http://www.w3.org/2000/svg">
<path fill-rule="evenodd" clip-rule="evenodd" d="M8.25246 10.0547C8.05366 5.0537 11.9179 1 16.9044 1H33.0952C38.0724 1 41.9457 5.05823 41.7469 10.0547L40.6662 37.2279C40.4677 42.2289 36.2727 46.2826 31.3077 46.2826H18.6919C13.7221 46.2826 9.53192 42.2244 9.33313 37.2279L8.25246 10.0547Z" fill="#997843"/>
<path fill-rule="evenodd" clip-rule="evenodd" d="M8.25246 10.0547C8.05366 5.0537 11.9179 1 16.9044 1H33.0952C38.0724 1 41.9457 5.05823 41.7469 10.0547L40.6662 37.2279C40.4677 42.2289 36.2727 46.2826 31.3077 46.2826H18.6919C13.7221 46.2826 9.53192 42.2244 9.33313 37.2279L8.25246 10.0547Z" stroke="white" stroke-miterlimit="10" stroke-linecap="round" stroke-linejoin="round"/>
<path fill-rule="evenodd" clip-rule="evenodd" d="M8.25246 10.0547C8.05366 5.0537 11.9179 1 16.9044 1H33.0952C38.0724 1 41.9457 5.05823 41.7469 10.0547L40.6662 37.2279C40.4677 42.2289 36.2727 46.2826 31.3077 46.2826H18.6919C13.7221 46.2826 9.53192 42.2244 9.33313 37.2279L8.25246 10.0547Z" stroke="#333333" stroke-miterlimit="10" stroke-linecap="round" stroke-linejoin="round"/>
<path d="M16.3965 37.2261C16.3965 39.727 18.4238 41.7543 20.9247 41.7543C23.4257 41.7543 25.453 39.727 25.453 37.2261" stroke="white" stroke-miterlimit="10" stroke-linecap="round" stroke-linejoin="round"/>
<path d="M16.3965 37.2261C16.3965 39.727 18.4238 41.7543 20.9247 41.7543C23.4257 41.7543 25.453 39.727 25.453 37.2261" stroke="#333333" stroke-miterlimit="10" stroke-linecap="round" stroke-linejoin="round"/>
<path fill-rule="evenodd" clip-rule="evenodd" d="M48.5366 4.91785C49.6895 2.75425 48.6159 1 46.1568 1H33.604L40.6303 15.3564C41.2054 16.7056 42.2317 16.7482 42.9259 15.4456L48.5366 4.91785Z" fill="#FFB84C"/>
<path fill-rule="evenodd" clip-rule="evenodd" d="M48.5366 4.91785C49.6895 2.75425 48.6159 1 46.1568 1H33.604L40.6303 15.3564C41.2054 16.7056 42.2317 16.7482 42.9259 15.4456L48.5366 4.91785Z" stroke="white" stroke-miterlimit="10" stroke-linecap="round" stroke-linejoin="round"/>
<path fill-rule="evenodd" clip-rule="evenodd" d="M48.5366 4.91785C49.6895 2.75425 48.6159 1 46.1568 1H33.604L40.6303 15.3564C41.2054 16.7056 42.2317 16.7482 42.9259 15.4456L48.5366 4.91785Z" stroke="#333333" stroke-miterlimit="10" stroke-linecap="round" stroke-linejoin="round"/>
<path d="M25.4529 37.2261C25.4529 39.727 27.4802 41.7543 29.9811 41.7543C32.4821 41.7543 34.5094 39.727 34.5094 37.2261" stroke="white" stroke-miterlimit="10" stroke-linecap="round" stroke-linejoin="round"/>
<path d="M25.4529 37.2261C25.4529 39.727 27.4802 41.7543 29.9811 41.7543C32.4821 41.7543 34.5094 39.727 34.5094 37.2261" stroke="#333333" stroke-miterlimit="10" stroke-linecap="round" stroke-linejoin="round"/>
<path fill-rule="evenodd" clip-rule="evenodd" d="M1.46351 4.91785C0.310613 2.75425 1.38426 1 3.84334 1H16.3961L9.36986 15.3564C8.79477 16.7056 7.76844 16.7482 7.07425 15.4456L1.46351 4.91785Z" fill="#FFB84C"/>
<path fill-rule="evenodd" clip-rule="evenodd" d="M1.46351 4.91785C0.310613 2.75425 1.38426 1 3.84334 1H16.3961L9.36986 15.3564C8.79477 16.7056 7.76844 16.7482 7.07425 15.4456L1.46351 4.91785Z" stroke="white" stroke-miterlimit="10" stroke-linecap="round" stroke-linejoin="round"/>
<path fill-rule="evenodd" clip-rule="evenodd" d="M1.46351 4.91785C0.310613 2.75425 1.38426 1 3.84334 1H16.3961L9.36986 15.3564C8.79477 16.7056 7.76844 16.7482 7.07425 15.4456L1.46351 4.91785Z" stroke="#333333" stroke-miterlimit="10" stroke-linecap="round" stroke-linejoin="round"/>
<path fill-rule="evenodd" clip-rule="evenodd" d="M26.3041 37.4654C25.8336 38.3534 25.0715 38.3552 24.6003 37.4654L22.9282 34.3067C22.4577 33.4187 22.8773 32.6982 23.8678 32.6982H27.0365C28.0259 32.6982 28.4475 33.4169 27.9761 34.3067L26.3041 37.4654Z" fill="#595959"/>
<path fill-rule="evenodd" clip-rule="evenodd" d="M26.3041 37.4654C25.8336 38.3534 25.0715 38.3552 24.6003 37.4654L22.9282 34.3067C22.4577 33.4187 22.8773 32.6982 23.8678 32.6982H27.0365C28.0259 32.6982 28.4475 33.4169 27.9761 34.3067L26.3041 37.4654Z" stroke="white" stroke-miterlimit="10" stroke-linecap="round" stroke-linejoin="round"/>
<path fill-rule="evenodd" clip-rule="evenodd" d="M26.3041 37.4654C25.8336 38.3534 25.0715 38.3552 24.6003 37.4654L22.9282 34.3067C22.4577 33.4187 22.8773 32.6982 23.8678 32.6982H27.0365C28.0259 32.6982 28.4475 33.4169 27.9761 34.3067L26.3041 37.4654Z" stroke="#333333" stroke-miterlimit="10" stroke-linecap="round" stroke-linejoin="round"/>
<path d="M17.3018 22.7355C19.3025 22.7355 20.9244 21.1136 20.9244 19.1128C20.9244 17.1121 19.3025 15.4902 17.3018 15.4902C15.3011 15.4902 13.6792 17.1121 13.6792 19.1128C13.6792 21.1136 15.3011 22.7355 17.3018 22.7355Z" fill="white"/>
<path d="M17.3018 22.7355C19.3025 22.7355 20.9244 21.1136 20.9244 19.1128C20.9244 17.1121 19.3025 15.4902 17.3018 15.4902C15.3011 15.4902 13.6792 17.1121 13.6792 19.1128C13.6792 21.1136 15.3011 22.7355 17.3018 22.7355Z" stroke="white" stroke-miterlimit="10" stroke-linecap="round" stroke-linejoin="round"/>
<path d="M17.3018 22.7355C19.3025 22.7355 20.9244 21.1136 20.9244 19.1128C20.9244 17.1121 19.3025 15.4902 17.3018 15.4902C15.3011 15.4902 13.6792 17.1121 13.6792 19.1128C13.6792 21.1136 15.3011 22.7355 17.3018 22.7355Z" stroke="#333333" stroke-miterlimit="10" stroke-linecap="round" stroke-linejoin="round"/>
<path d="M17.7071 20.0193C17.7071 20.7435 17.12 21.3306 16.3958 21.3306C15.6716 21.3306 15.0845 20.7435 15.0845 20.0193C15.0845 19.2951 15.6716 18.708 16.3958 18.708C17.12 18.708 17.7071 19.2951 17.7071 20.0193Z" fill="black"/>
<path d="M17.7071 20.0193C17.7071 20.7435 17.12 21.3306 16.3958 21.3306C15.6716 21.3306 15.0845 20.7435 15.0845 20.0193C15.0845 19.2951 15.6716 18.708 16.3958 18.708C17.12 18.708 17.7071 19.2951 17.7071 20.0193Z" stroke="white"/>
<path d="M17.7071 20.0193C17.7071 20.7435 17.12 21.3306 16.3958 21.3306C15.6716 21.3306 15.0845 20.7435 15.0845 20.0193C15.0845 19.2951 15.6716 18.708 16.3958 18.708C17.12 18.708 17.7071 19.2951 17.7071 20.0193Z" stroke="#333333"/>
<path d="M32.6978 22.7355C34.6985 22.7355 36.3204 21.1136 36.3204 19.1128C36.3204 17.1121 34.6985 15.4902 32.6978 15.4902C30.6971 15.4902 29.0752 17.1121 29.0752 19.1128C29.0752 21.1136 30.6971 22.7355 32.6978 22.7355Z" fill="white"/>
<path d="M32.6978 22.7355C34.6985 22.7355 36.3204 21.1136 36.3204 19.1128C36.3204 17.1121 34.6985 15.4902 32.6978 15.4902C30.6971 15.4902 29.0752 17.1121 29.0752 19.1128C29.0752 21.1136 30.6971 22.7355 32.6978 22.7355Z" stroke="white" stroke-miterlimit="10" stroke-linecap="round" stroke-linejoin="round"/>
<path d="M32.6978 22.7355C34.6985 22.7355 36.3204 21.1136 36.3204 19.1128C36.3204 17.1121 34.6985 15.4902 32.6978 15.4902C30.6971 15.4902 29.0752 17.1121 29.0752 19.1128C29.0752 21.1136 30.6971 22.7355 32.6978 22.7355Z" stroke="#333333" stroke-miterlimit="10" stroke-linecap="round" stroke-linejoin="round"/>
<path d="M33.1033 20.0193C33.1033 20.7435 32.5162 21.3306 31.792 21.3306C31.0678 21.3306 30.4807 20.7435 30.4807 20.0193C30.4807 19.2951 31.0678 18.708 31.792 18.708C32.5162 18.708 33.1033 19.2951 33.1033 20.0193Z" fill="black"/>
<path d="M33.1033 20.0193C33.1033 20.7435 32.5162 21.3306 31.792 21.3306C31.0678 21.3306 30.4807 20.7435 30.4807 20.0193C30.4807 19.2951 31.0678 18.708 31.792 18.708C32.5162 18.708 33.1033 19.2951 33.1033 20.0193Z" stroke="white"/>
<path d="M33.1033 20.0193C33.1033 20.7435 32.5162 21.3306 31.792 21.3306C31.0678 21.3306 30.4807 20.7435 30.4807 20.0193C30.4807 19.2951 31.0678 18.708 31.792 18.708C32.5162 18.708 33.1033 19.2951 33.1033 20.0193Z" stroke="#333333"/>
</svg>
