<svg width="50" height="48" viewBox="0 0 50 48" fill="none" xmlns="http://www.w3.org/2000/svg">
<path fill-rule="evenodd" clip-rule="evenodd" d="M34.9274 9.5506L38.3488 3.1232C38.972 1.952 38.3958 1 37.0598 1H12.9406C11.6038 1 11.0276 1.9504 11.6516 3.1232L15.0728 9.5504C6.7736 13.3274 1 21.6866 1 31.4C1 37.168 3.0348 42.4608 6.426 46.6H43.574C46.9652 42.4608 49 37.168 49 31.4C49 21.6868 43.2266 13.3278 34.9274 9.5506Z" fill="#DDDDDD"/>
<path fill-rule="evenodd" clip-rule="evenodd" d="M34.9274 9.5506L38.3488 3.1232C38.972 1.952 38.3958 1 37.0598 1H12.9406C11.6038 1 11.0276 1.9504 11.6516 3.1232L15.0728 9.5504C6.7736 13.3274 1 21.6866 1 31.4C1 37.168 3.0348 42.4608 6.426 46.6H43.574C46.9652 42.4608 49 37.168 49 31.4C49 21.6868 43.2266 13.3278 34.9274 9.5506Z" stroke="white" stroke-miterlimit="10" stroke-linecap="round" stroke-linejoin="round"/>
<path fill-rule="evenodd" clip-rule="evenodd" d="M34.9274 9.5506L38.3488 3.1232C38.972 1.952 38.3958 1 37.0598 1H12.9406C11.6038 1 11.0276 1.9504 11.6516 3.1232L15.0728 9.5504C6.7736 13.3274 1 21.6866 1 31.4C1 37.168 3.0348 42.4608 6.426 46.6H43.574C46.9652 42.4608 49 37.168 49 31.4C49 21.6868 43.2266 13.3278 34.9274 9.5506Z" stroke="#333333" stroke-miterlimit="10" stroke-linecap="round" stroke-linejoin="round"/>
<path fill-rule="evenodd" clip-rule="evenodd" d="M1 31.4002C1 37.1682 3.0348 42.461 6.426 46.6002H43.574C46.9652 42.461 49 37.1682 49 31.4002C49 27.3514 47.9854 23.5446 46.2142 20.2002H3.7858C2.0146 23.5446 1 27.3512 1 31.4002Z" fill="#26BBEC"/>
<path fill-rule="evenodd" clip-rule="evenodd" d="M1 31.4002C1 37.1682 3.0348 42.461 6.426 46.6002H43.574C46.9652 42.461 49 37.1682 49 31.4002C49 27.3514 47.9854 23.5446 46.2142 20.2002H3.7858C2.0146 23.5446 1 27.3512 1 31.4002Z" stroke="white" stroke-miterlimit="10" stroke-linecap="round" stroke-linejoin="round"/>
<path fill-rule="evenodd" clip-rule="evenodd" d="M1 31.4002C1 37.1682 3.0348 42.461 6.426 46.6002H43.574C46.9652 42.461 49 37.1682 49 31.4002C49 27.3514 47.9854 23.5446 46.2142 20.2002H3.7858C2.0146 23.5446 1 27.3512 1 31.4002Z" stroke="#333333" stroke-miterlimit="10" stroke-linecap="round" stroke-linejoin="round"/>
<path d="M12.9999 27.4001C14.3253 27.4001 15.3999 26.3256 15.3999 25.0001C15.3999 23.6746 14.3253 22.6001 12.9999 22.6001C11.6744 22.6001 10.5999 23.6746 10.5999 25.0001C10.5999 26.3256 11.6744 27.4001 12.9999 27.4001Z" fill="#26BBEC"/>
<path d="M12.9999 27.4001C14.3253 27.4001 15.3999 26.3256 15.3999 25.0001C15.3999 23.6746 14.3253 22.6001 12.9999 22.6001C11.6744 22.6001 10.5999 23.6746 10.5999 25.0001C10.5999 26.3256 11.6744 27.4001 12.9999 27.4001Z" stroke="white" stroke-miterlimit="10" stroke-linecap="round" stroke-linejoin="round"/>
<path d="M12.9999 27.4001C14.3253 27.4001 15.3999 26.3256 15.3999 25.0001C15.3999 23.6746 14.3253 22.6001 12.9999 22.6001C11.6744 22.6001 10.5999 23.6746 10.5999 25.0001C10.5999 26.3256 11.6744 27.4001 12.9999 27.4001Z" stroke="#333333" stroke-miterlimit="10" stroke-linecap="round" stroke-linejoin="round"/>
<path fill-rule="evenodd" clip-rule="evenodd" d="M40.2002 30.6L36.6074 32.6958C35.199 30.514 32.1464 29 28.6002 29C24.6828 29 21.3604 30.8448 20.2002 33.4C21.3602 35.9552 24.6826 37.8 28.6002 37.8C32.1464 37.8 35.199 36.286 36.6074 34.1042L40.2002 36.2V30.6Z" fill="#FFB84C"/>
<path fill-rule="evenodd" clip-rule="evenodd" d="M40.2002 30.6L36.6074 32.6958C35.199 30.514 32.1464 29 28.6002 29C24.6828 29 21.3604 30.8448 20.2002 33.4C21.3602 35.9552 24.6826 37.8 28.6002 37.8C32.1464 37.8 35.199 36.286 36.6074 34.1042L40.2002 36.2V30.6Z" stroke="white" stroke-miterlimit="10" stroke-linecap="round" stroke-linejoin="round"/>
<path fill-rule="evenodd" clip-rule="evenodd" d="M40.2002 30.6L36.6074 32.6958C35.199 30.514 32.1464 29 28.6002 29C24.6828 29 21.3604 30.8448 20.2002 33.4C21.3602 35.9552 24.6826 37.8 28.6002 37.8C32.1464 37.8 35.199 36.286 36.6074 34.1042L40.2002 36.2V30.6Z" stroke="#333333" stroke-miterlimit="10" stroke-linecap="round" stroke-linejoin="round"/>
<path d="M26.2 16.2002C27.3045 16.2002 28.2 15.3048 28.2 14.2002C28.2 13.0956 27.3045 12.2002 26.2 12.2002C25.0954 12.2002 24.2 13.0956 24.2 14.2002C24.2 15.3048 25.0954 16.2002 26.2 16.2002Z" fill="#26BBEC"/>
<path d="M26.2 16.2002C27.3045 16.2002 28.2 15.3048 28.2 14.2002C28.2 13.0956 27.3045 12.2002 26.2 12.2002C25.0954 12.2002 24.2 13.0956 24.2 14.2002C24.2 15.3048 25.0954 16.2002 26.2 16.2002Z" stroke="white" stroke-miterlimit="10" stroke-linecap="round" stroke-linejoin="round"/>
<path d="M26.2 16.2002C27.3045 16.2002 28.2 15.3048 28.2 14.2002C28.2 13.0956 27.3045 12.2002 26.2 12.2002C25.0954 12.2002 24.2 13.0956 24.2 14.2002C24.2 15.3048 25.0954 16.2002 26.2 16.2002Z" stroke="#333333" stroke-miterlimit="10" stroke-linecap="round" stroke-linejoin="round"/>
<path d="M23.7001 33.0002C23.7001 33.1659 23.5658 33.3002 23.4001 33.3002C23.2344 33.3002 23.1001 33.1659 23.1001 33.0002C23.1001 32.8345 23.2344 32.7002 23.4001 32.7002C23.5658 32.7002 23.7001 32.8345 23.7001 33.0002Z" fill="black"/>
<path d="M23.7001 33.0002C23.7001 33.1659 23.5658 33.3002 23.4001 33.3002C23.2344 33.3002 23.1001 33.1659 23.1001 33.0002C23.1001 32.8345 23.2344 32.7002 23.4001 32.7002C23.5658 32.7002 23.7001 32.8345 23.7001 33.0002Z" stroke="white"/>
<path d="M23.7001 33.0002C23.7001 33.1659 23.5658 33.3002 23.4001 33.3002C23.2344 33.3002 23.1001 33.1659 23.1001 33.0002C23.1001 32.8345 23.2344 32.7002 23.4001 32.7002C23.5658 32.7002 23.7001 32.8345 23.7001 33.0002Z" stroke="#333333"/>
</svg>
