<svg width="50" height="50" viewBox="0 0 50 50" fill="none" xmlns="http://www.w3.org/2000/svg">
<g clip-path="url(#clip0_98_150)">
<path fill-rule="evenodd" clip-rule="evenodd" d="M38.8447 4.89804C39.5822 2.092 42.4194 0.429232 45.1694 1.18043C47.925 1.93338 49.5598 4.82233 48.8237 7.62422L44.1428 25.4364L34.1638 22.7102L38.8447 4.89804Z" fill="#DDDDDD"/>
<path fill-rule="evenodd" clip-rule="evenodd" d="M38.8447 4.89804C39.5822 2.092 42.4194 0.429232 45.1694 1.18043C47.925 1.93338 49.5598 4.82233 48.8237 7.62422L44.1428 25.4364L34.1638 22.7102L38.8447 4.89804Z" stroke="white" stroke-miterlimit="10" stroke-linecap="round" stroke-linejoin="round"/>
<path fill-rule="evenodd" clip-rule="evenodd" d="M38.8447 4.89804C39.5822 2.092 42.4194 0.429232 45.1694 1.18043C47.925 1.93338 49.5598 4.82233 48.8237 7.62422L44.1428 25.4364L34.1638 22.7102L38.8447 4.89804Z" stroke="black" stroke-miterlimit="10" stroke-linecap="round" stroke-linejoin="round"/>
<path fill-rule="evenodd" clip-rule="evenodd" d="M11.1555 4.89804C10.418 2.092 7.58078 0.429232 4.83082 1.18043C2.07518 1.93338 0.440123 4.82233 1.17648 7.62422L5.85736 25.4364L15.8364 22.7102L11.1555 4.89804Z" fill="#DDDDDD"/>
<path fill-rule="evenodd" clip-rule="evenodd" d="M11.1555 4.89804C10.418 2.092 7.58078 0.429232 4.83082 1.18043C2.07518 1.93338 0.440123 4.82233 1.17648 7.62422L5.85736 25.4364L15.8364 22.7102L11.1555 4.89804Z" stroke="white" stroke-miterlimit="10" stroke-linecap="round" stroke-linejoin="round"/>
<path fill-rule="evenodd" clip-rule="evenodd" d="M11.1555 4.89804C10.418 2.092 7.58078 0.429232 4.83082 1.18043C2.07518 1.93338 0.440123 4.82233 1.17648 7.62422L5.85736 25.4364L15.8364 22.7102L11.1555 4.89804Z" stroke="black" stroke-miterlimit="10" stroke-linecap="round" stroke-linejoin="round"/>
<path d="M25.4365 49.0003C37.9684 49.0003 48.1275 40.7949 48.1275 30.673C48.1275 20.5511 37.9684 12.3457 25.4365 12.3457C12.9047 12.3457 2.74561 20.5511 2.74561 30.673C2.74561 40.7949 12.9047 49.0003 25.4365 49.0003Z" fill="#DDDDDD"/>
<path d="M25.4365 49.0003C37.9684 49.0003 48.1275 40.7949 48.1275 30.673C48.1275 20.5511 37.9684 12.3457 25.4365 12.3457C12.9047 12.3457 2.74561 20.5511 2.74561 30.673C2.74561 40.7949 12.9047 49.0003 25.4365 49.0003Z" stroke="white" stroke-miterlimit="10" stroke-linecap="round" stroke-linejoin="round"/>
<path d="M25.4365 49.0003C37.9684 49.0003 48.1275 40.7949 48.1275 30.673C48.1275 20.5511 37.9684 12.3457 25.4365 12.3457C12.9047 12.3457 2.74561 20.5511 2.74561 30.673C2.74561 40.7949 12.9047 49.0003 25.4365 49.0003Z" stroke="black" stroke-miterlimit="10" stroke-linecap="round" stroke-linejoin="round"/>
<path d="M14.0913 24.564C14.0913 26.492 15.6541 28.0549 17.5822 28.0549C19.5103 28.0549 21.0731 26.492 21.0731 24.564" stroke="white" stroke-miterlimit="10" stroke-linecap="round" stroke-linejoin="round"/>
<path d="M14.0913 24.564C14.0913 26.492 15.6541 28.0549 17.5822 28.0549C19.5103 28.0549 21.0731 26.492 21.0731 24.564" stroke="black" stroke-miterlimit="10" stroke-linecap="round" stroke-linejoin="round"/>
<path d="M29.8005 24.564C29.8005 26.492 31.3634 28.0549 33.2915 28.0549C35.2195 28.0549 36.7824 26.492 36.7824 24.564" stroke="white" stroke-miterlimit="10" stroke-linecap="round" stroke-linejoin="round"/>
<path d="M29.8005 24.564C29.8005 26.492 31.3634 28.0549 33.2915 28.0549C35.2195 28.0549 36.7824 26.492 36.7824 24.564" stroke="black" stroke-miterlimit="10" stroke-linecap="round" stroke-linejoin="round"/>
<path d="M29.8003 35.0361H21.073V46.3816H29.8003V35.0361Z" fill="white"/>
<path d="M29.8003 35.0361H21.073V46.3816H29.8003V35.0361Z" stroke="white" stroke-miterlimit="10" stroke-linecap="round" stroke-linejoin="round"/>
<path d="M29.8003 35.0361H21.073V46.3816H29.8003V35.0361Z" stroke="black" stroke-miterlimit="10" stroke-linecap="round" stroke-linejoin="round"/>
<path d="M25.4365 45.5089V35.0361" stroke="white" stroke-miterlimit="10" stroke-linecap="round" stroke-linejoin="round"/>
<path d="M25.4365 45.5089V35.0361" stroke="black" stroke-miterlimit="10" stroke-linecap="round" stroke-linejoin="round"/>
<path d="M26.3093 34.1637C26.3093 36.5738 28.2629 38.5274 30.673 38.5274C33.083 38.5274 35.0366 36.5738 35.0366 34.1637V33.291" fill="#DDDDDD"/>
<path d="M26.3093 34.1637C26.3093 36.5738 28.2629 38.5274 30.673 38.5274C33.083 38.5274 35.0366 36.5738 35.0366 34.1637V33.291" stroke="white" stroke-miterlimit="10" stroke-linecap="round" stroke-linejoin="round"/>
<path d="M26.3093 34.1637C26.3093 36.5738 28.2629 38.5274 30.673 38.5274C33.083 38.5274 35.0366 36.5738 35.0366 34.1637V33.291" stroke="black" stroke-miterlimit="10" stroke-linecap="round" stroke-linejoin="round"/>
<path fill-rule="evenodd" clip-rule="evenodd" d="M24.564 34.1637C24.564 36.5738 22.6104 38.5274 20.2003 38.5274C17.7903 38.5274 15.8367 36.5738 15.8367 34.1637V33.291" fill="#DDDDDD"/>
<path d="M24.564 34.1637C24.564 36.5738 22.6104 38.5274 20.2003 38.5274C17.7903 38.5274 15.8367 36.5738 15.8367 34.1637V33.291" stroke="white" stroke-miterlimit="10" stroke-linecap="round" stroke-linejoin="round"/>
<path d="M24.564 34.1637C24.564 36.5738 22.6104 38.5274 20.2003 38.5274C17.7903 38.5274 15.8367 36.5738 15.8367 34.1637V33.291" stroke="black" stroke-miterlimit="10" stroke-linecap="round" stroke-linejoin="round"/>
<path fill-rule="evenodd" clip-rule="evenodd" d="M21.9458 31.5454C21.9458 33.4733 23.5089 35.0363 25.4367 35.0363C27.3646 35.0363 28.9276 33.4733 28.9276 31.5454H21.9458Z" fill="#595959"/>
<path fill-rule="evenodd" clip-rule="evenodd" d="M21.9458 31.5454C21.9458 33.4733 23.5089 35.0363 25.4367 35.0363C27.3646 35.0363 28.9276 33.4733 28.9276 31.5454H21.9458Z" stroke="white" stroke-miterlimit="10" stroke-linecap="round" stroke-linejoin="round"/>
<path fill-rule="evenodd" clip-rule="evenodd" d="M21.9458 31.5454C21.9458 33.4733 23.5089 35.0363 25.4367 35.0363C27.3646 35.0363 28.9276 33.4733 28.9276 31.5454H21.9458Z" stroke="black" stroke-miterlimit="10" stroke-linecap="round" stroke-linejoin="round"/>
</g>
<defs>
<clipPath id="clip0_98_150">
<rect width="50" height="50" fill="white"/>
</clipPath>
</defs>
</svg>
