<svg width="58" height="50" viewBox="0 0 58 50" fill="none" xmlns="http://www.w3.org/2000/svg">
<g clip-path="url(#clip0_98_3)">
<path d="M40.0739 24.7901C40.0428 28.3586 43.7369 31.2839 48.3249 31.3239C52.913 31.364 56.6575 28.5036 56.6887 24.9351C56.7198 21.3666 53.0257 18.4414 48.4377 18.4013C43.8497 18.3613 40.1051 21.2217 40.0739 24.7901Z" fill="#FFB84C"/>
<path d="M40.0739 24.7901C40.0428 28.3586 43.7369 31.2839 48.3249 31.3239C52.913 31.364 56.6575 28.5036 56.6887 24.9351C56.7198 21.3666 53.0257 18.4414 48.4377 18.4013C43.8497 18.3613 40.1051 21.2217 40.0739 24.7901Z" stroke="white" stroke-miterlimit="10" stroke-linecap="round" stroke-linejoin="round"/>
<path d="M40.0739 24.7901C40.0428 28.3586 43.7369 31.2839 48.3249 31.3239C52.913 31.364 56.6575 28.5036 56.6887 24.9351C56.7198 21.3666 53.0257 18.4414 48.4377 18.4013C43.8497 18.3613 40.1051 21.2217 40.0739 24.7901Z" stroke="black" stroke-miterlimit="10" stroke-linecap="round" stroke-linejoin="round"/>
<path fill-rule="evenodd" clip-rule="evenodd" d="M16.0555 13.8122C16.0555 13.8122 7.07716 10.734 3.49366 14.0633C-0.0898297 17.3926 0.314248 19.8271 8.94744 19.9025C17.5807 19.9778 16.0555 13.8122 16.0555 13.8122Z" fill="#FFB84C"/>
<path fill-rule="evenodd" clip-rule="evenodd" d="M16.0555 13.8122C16.0555 13.8122 7.07716 10.734 3.49366 14.0633C-0.0898297 17.3926 0.314248 19.8271 8.94744 19.9025C17.5807 19.9778 16.0555 13.8122 16.0555 13.8122Z" stroke="white" stroke-miterlimit="10" stroke-linecap="round" stroke-linejoin="round"/>
<path fill-rule="evenodd" clip-rule="evenodd" d="M16.0555 13.8122C16.0555 13.8122 7.07716 10.734 3.49366 14.0633C-0.0898297 17.3926 0.314248 19.8271 8.94744 19.9025C17.5807 19.9778 16.0555 13.8122 16.0555 13.8122Z" stroke="black" stroke-miterlimit="10" stroke-linecap="round" stroke-linejoin="round"/>
<path fill-rule="evenodd" clip-rule="evenodd" d="M15.8676 35.346C15.8676 35.346 6.83702 38.267 3.31218 34.8757C-0.21267 31.4843 0.233834 29.0572 8.86704 29.1326C17.5002 29.2079 15.8676 35.346 15.8676 35.346Z" fill="#FFB84C"/>
<path fill-rule="evenodd" clip-rule="evenodd" d="M15.8676 35.346C15.8676 35.346 6.83702 38.267 3.31218 34.8757C-0.21267 31.4843 0.233834 29.0572 8.86704 29.1326C17.5002 29.2079 15.8676 35.346 15.8676 35.346Z" stroke="white" stroke-miterlimit="10" stroke-linecap="round" stroke-linejoin="round"/>
<path fill-rule="evenodd" clip-rule="evenodd" d="M15.8676 35.346C15.8676 35.346 6.83702 38.267 3.31218 34.8757C-0.21267 31.4843 0.233834 29.0572 8.86704 29.1326C17.5002 29.2079 15.8676 35.346 15.8676 35.346Z" stroke="black" stroke-miterlimit="10" stroke-linecap="round" stroke-linejoin="round"/>
<path fill-rule="evenodd" clip-rule="evenodd" d="M38.9261 14.6255C38.9261 14.6255 44.4906 8.36106 43.8912 4.69685C43.2915 1.03286 38.1119 0.771652 36.4257 0.756937C34.7393 0.74222 23.8428 2.34104 24.5996 4.23956C25.3561 6.13808 32.6244 8.05373 32.6244 8.05373C32.6244 8.05373 30.4667 9.84351 30.2212 12.6423" fill="#FFB84C"/>
<path d="M38.9261 14.6255C38.9261 14.6255 44.4906 8.36106 43.8912 4.69685C43.2915 1.03286 38.1119 0.771652 36.4257 0.756937C34.7393 0.74222 23.8428 2.34104 24.5996 4.23956C25.3561 6.13808 32.6244 8.05373 32.6244 8.05373C32.6244 8.05373 30.4667 9.84351 30.2212 12.6423" stroke="white" stroke-miterlimit="10" stroke-linecap="round" stroke-linejoin="round"/>
<path d="M38.9261 14.6255C38.9261 14.6255 44.4906 8.36106 43.8912 4.69685C43.2915 1.03286 38.1119 0.771652 36.4257 0.756937C34.7393 0.74222 23.8428 2.34104 24.5996 4.23956C25.3561 6.13808 32.6244 8.05373 32.6244 8.05373C32.6244 8.05373 30.4667 9.84351 30.2212 12.6423" stroke="black" stroke-miterlimit="10" stroke-linecap="round" stroke-linejoin="round"/>
<path fill-rule="evenodd" clip-rule="evenodd" d="M38.7492 34.9321C38.7492 34.9321 44.2035 41.2926 43.5402 44.9458C42.8769 48.5988 37.6935 48.7695 36.0071 48.7548C34.3207 48.7401 23.4538 46.9511 24.2436 45.0663C25.0331 43.1804 32.3337 41.3928 32.3337 41.3928C32.3337 41.3928 30.2076 39.5656 30.0109 36.763" fill="#FFB84C"/>
<path d="M38.7492 34.9321C38.7492 34.9321 44.2035 41.2926 43.5402 44.9458C42.8769 48.5988 37.6935 48.7695 36.0071 48.7548C34.3207 48.7401 23.4538 46.9511 24.2436 45.0663C25.0331 43.1804 32.3337 41.3928 32.3337 41.3928C32.3337 41.3928 30.2076 39.5656 30.0109 36.763" stroke="white" stroke-miterlimit="10" stroke-linecap="round" stroke-linejoin="round"/>
<path d="M38.7492 34.9321C38.7492 34.9321 44.2035 41.2926 43.5402 44.9458C42.8769 48.5988 37.6935 48.7695 36.0071 48.7548C34.3207 48.7401 23.4538 46.9511 24.2436 45.0663C25.0331 43.1804 32.3337 41.3928 32.3337 41.3928C32.3337 41.3928 30.2076 39.5656 30.0109 36.763" stroke="black" stroke-miterlimit="10" stroke-linecap="round" stroke-linejoin="round"/>
<path fill-rule="evenodd" clip-rule="evenodd" d="M9.61328 24.5242C9.5421 32.6811 17.3363 39.3614 27.0222 39.4459C36.7081 39.5304 42.7245 38.3653 42.8428 24.8142C42.9611 11.263 36.9659 9.99305 27.28 9.90852C17.5941 9.82399 9.68447 16.3673 9.61328 24.5242Z" fill="#997843"/>
<path fill-rule="evenodd" clip-rule="evenodd" d="M9.61328 24.5242C9.5421 32.6811 17.3363 39.3614 27.0222 39.4459C36.7081 39.5304 42.7245 38.3653 42.8428 24.8142C42.9611 11.263 36.9659 9.99305 27.28 9.90852C17.5941 9.82399 9.68447 16.3673 9.61328 24.5242Z" stroke="white" stroke-miterlimit="10" stroke-linecap="round" stroke-linejoin="round"/>
<path fill-rule="evenodd" clip-rule="evenodd" d="M9.61328 24.5242C9.5421 32.6811 17.3363 39.3614 27.0222 39.4459C36.7081 39.5304 42.7245 38.3653 42.8428 24.8142C42.9611 11.263 36.9659 9.99305 27.28 9.90852C17.5941 9.82399 9.68447 16.3673 9.61328 24.5242Z" stroke="black" stroke-miterlimit="10" stroke-linecap="round" stroke-linejoin="round"/>
<path fill-rule="evenodd" clip-rule="evenodd" d="M38.2277 24.7738L34.4791 31.2029L27.0948 31.1384L23.459 24.6449L27.2076 18.2158L34.5919 18.2803L38.2277 24.7738Z" fill="#26BBEC"/>
<path fill-rule="evenodd" clip-rule="evenodd" d="M38.2277 24.7738L34.4791 31.2029L27.0948 31.1384L23.459 24.6449L27.2076 18.2158L34.5919 18.2803L38.2277 24.7738Z" stroke="white" stroke-miterlimit="10" stroke-linecap="round" stroke-linejoin="round"/>
<path fill-rule="evenodd" clip-rule="evenodd" d="M38.2277 24.7738L34.4791 31.2029L27.0948 31.1384L23.459 24.6449L27.2076 18.2158L34.5919 18.2803L38.2277 24.7738Z" stroke="black" stroke-miterlimit="10" stroke-linecap="round" stroke-linejoin="round"/>
<path d="M38.2277 24.7738L34.4791 31.2029L27.0948 31.1384L23.459 24.6449L27.2076 18.2158L34.5919 18.2803L38.2277 24.7738Z" fill="#997843"/>
<path d="M38.2277 24.7738L34.4791 31.2029L27.0948 31.1384L23.459 24.6449L27.2076 18.2158L34.5919 18.2803L38.2277 24.7738Z" stroke="white" stroke-miterlimit="10" stroke-linecap="round" stroke-linejoin="round"/>
<path d="M38.2277 24.7738L34.4791 31.2029L27.0948 31.1384L23.459 24.6449L27.2076 18.2158L34.5919 18.2803L38.2277 24.7738Z" stroke="black" stroke-miterlimit="10" stroke-linecap="round" stroke-linejoin="round"/>
<path d="M51.1664 23.0399C51.1753 22.0204 50.3559 21.1866 49.3364 21.1777L51.1664 23.0399Z" fill="#26BBEC"/>
<path d="M51.1664 23.0399C51.1753 22.0204 50.3559 21.1866 49.3364 21.1777" stroke="white" stroke-miterlimit="10" stroke-linecap="round" stroke-linejoin="round"/>
<path d="M51.1664 23.0399C51.1753 22.0204 50.3559 21.1866 49.3364 21.1777" stroke="black" stroke-miterlimit="10" stroke-linecap="round" stroke-linejoin="round"/>
<path d="M51.1342 26.7324C51.1253 27.7519 50.2915 28.5713 49.272 28.5624L51.1342 26.7324Z" fill="#26BBEC"/>
<path d="M51.1342 26.7324C51.1253 27.7519 50.2915 28.5713 49.272 28.5624" stroke="white" stroke-miterlimit="10" stroke-linecap="round" stroke-linejoin="round"/>
<path d="M51.1342 26.7324C51.1253 27.7519 50.2915 28.5713 49.272 28.5624" stroke="black" stroke-miterlimit="10" stroke-linecap="round" stroke-linejoin="round"/>
<path d="M23.4597 24.6444L10.5371 24.5317" stroke="white" stroke-miterlimit="10" stroke-linecap="round" stroke-linejoin="round"/>
<path d="M23.4597 24.6444L10.5371 24.5317" stroke="black" stroke-miterlimit="10" stroke-linecap="round" stroke-linejoin="round"/>
<path d="M38.2275 24.7739L42.8427 24.8142" stroke="white" stroke-miterlimit="10" stroke-linecap="round" stroke-linejoin="round"/>
<path d="M38.2275 24.7739L42.8427 24.8142" stroke="black" stroke-miterlimit="10" stroke-linecap="round" stroke-linejoin="round"/>
<path d="M34.5918 18.2804L37.4173 11.8433" stroke="white" stroke-miterlimit="10" stroke-linecap="round" stroke-linejoin="round"/>
<path d="M34.5918 18.2804L37.4173 11.8433" stroke="black" stroke-miterlimit="10" stroke-linecap="round" stroke-linejoin="round"/>
<path d="M27.2074 18.2156L22.6567 10.791" stroke="white" stroke-miterlimit="10" stroke-linecap="round" stroke-linejoin="round"/>
<path d="M27.2074 18.2156L22.6567 10.791" stroke="black" stroke-miterlimit="10" stroke-linecap="round" stroke-linejoin="round"/>
<path d="M34.479 31.2026L37.1918 37.688" stroke="white" stroke-miterlimit="10" stroke-linecap="round" stroke-linejoin="round"/>
<path d="M34.479 31.2026L37.1918 37.688" stroke="black" stroke-miterlimit="10" stroke-linecap="round" stroke-linejoin="round"/>
<path d="M27.0946 31.1382L22.415 38.4822" stroke="white" stroke-miterlimit="10" stroke-linecap="round" stroke-linejoin="round"/>
<path d="M27.0946 31.1382L22.415 38.4822" stroke="black" stroke-miterlimit="10" stroke-linecap="round" stroke-linejoin="round"/>
</g>
<defs>
<clipPath id="clip0_98_3">
<rect width="58" height="50" fill="white"/>
</clipPath>
</defs>
</svg>
