<svg width="48" height="48" viewBox="0 0 48 48" fill="none" xmlns="http://www.w3.org/2000/svg">
<g clip-path="url(#clip0_121_49)">
<path d="M10.2302 4.16895L5.3639 18.3095C5.3008 18.4931 5.26855 18.6859 5.26855 18.8801V47.2624H32.8085V18.5868L37.7703 4.16895H10.2302Z" fill="#F16767"/>
<path d="M37.7702 4.16895L42.732 18.5868C42.732 24.0702 42.732 42.0947 42.732 42.0947C42.732 42.811 42.2964 43.4552 41.6316 43.722L32.8086 47.2625V18.5868L37.7702 4.16895Z" fill="#FFB84C"/>
<path d="M42.7319 18.5868L37.7702 4.16895L36.6328 7.4741L40.2586 18.6192C40.4312 19.1496 40.5192 19.7065 40.5192 20.2676C40.5192 26.5557 40.5192 42.6313 40.5192 44.1683L42.7319 43.2804V18.5868Z" fill="#EA8500"/>
<path d="M33.9643 1.59478L31.166 0.814684C30.985 0.764246 30.7935 0.764246 30.6123 0.814684L27.8132 1.59487C27.5711 1.66237 27.3151 1.66237 27.073 1.59487L24.274 0.814684C24.0929 0.764246 23.9015 0.764246 23.7203 0.814684L20.9213 1.59487C20.6791 1.66237 20.4232 1.66237 20.181 1.59487L17.382 0.814684C17.201 0.764246 17.0096 0.764246 16.8284 0.814684L14.0303 1.59468C13.7877 1.66237 13.5311 1.66218 13.2885 1.59421L10.8525 0.911902C10.5395 0.824246 10.2295 1.05946 10.2295 1.3844V4.16858H37.7699V1.38421C37.7699 1.05937 37.46 0.824152 37.1471 0.911715L34.7054 1.59449C34.4633 1.66218 34.2069 1.66228 33.9643 1.59478Z" fill="#FFB84C"/>
<path d="M19.7196 32.5276C19.7154 32.5233 19.699 32.5069 19.6948 32.5027C17.798 30.6059 11.9361 32.6906 12.5868 34.4806C12.871 35.2623 13.4604 35.7861 14.0345 36.1281C14.4569 36.3798 14.8455 36.6842 15.1909 37.0317C15.5383 37.377 15.8427 37.7655 16.0944 38.1881C16.4364 38.7621 16.9601 39.3515 17.7419 39.6358C19.5318 40.2863 21.6165 34.4244 19.7196 32.5276Z" fill="#FFB84C"/>
<path d="M18.6029 25.8479C18.1472 27.0501 18.2059 29.8347 19.4081 30.2905C20.6102 30.7462 22.5003 28.7004 22.956 27.4983C23.4117 26.2961 22.8068 24.9523 21.6046 24.4965C20.4026 24.0408 19.0587 24.6458 18.6029 25.8479Z" fill="#FFB84C"/>
<path d="M12.303 27.5992C12.521 28.6783 13.8337 30.6698 14.9127 30.4518C15.9917 30.2339 16.4286 27.889 16.2106 26.81C15.9927 25.7309 14.9412 25.0328 13.8622 25.2508C12.7832 25.4687 12.0851 26.5201 12.303 27.5992Z" fill="#FFB84C"/>
<path d="M26.374 33.6187C25.1719 34.0744 22.3872 34.0157 21.9315 32.8135C21.4758 31.6114 23.5216 29.7213 24.7237 29.2656C25.9258 28.8099 27.2696 29.4148 27.7254 30.617C28.1812 31.819 27.5761 33.1629 26.374 33.6187Z" fill="#FFB84C"/>
<path d="M24.6227 39.9186C23.5437 39.7006 21.5521 38.3879 21.7702 37.309C21.9883 36.23 24.3329 35.793 25.412 36.011C26.4911 36.229 27.1892 37.2804 26.9712 38.3594C26.7533 39.4385 25.7018 40.1366 24.6227 39.9186Z" fill="#FFB84C"/>
<path d="M43.4291 18.3469L38.5074 4.04561V0.737645C38.5074 0.506927 38.3994 0.289521 38.2156 0.150021C38.0318 0.0106153 37.7936 -0.0349471 37.5712 0.0273028L34.3345 0.932551L31.087 0.0272091C30.9575 -0.00888462 30.8204 -0.00888462 30.6909 0.0272091L27.443 0.932645L24.1953 0.0272091C24.0658 -0.00888462 23.9286 -0.00888462 23.7992 0.0272091L20.5514 0.932645L17.3036 0.0272091C17.1741 -0.00888462 17.037 -0.00888462 16.9075 0.0272091L13.6596 0.932645L10.5047 0.0531778C10.4197 0.0189591 10.3268 0.000115359 10.2295 0.000115359H10.2135C9.84469 0.000115359 9.53269 0.272459 9.48272 0.637614C9.47082 0.724145 9.47457 0.809551 9.49191 0.890832V4.04683L4.57089 18.3469C4.54436 18.424 4.53076 18.5052 4.53076 18.5868V33.2973C4.53076 33.7048 4.86095 34.0349 5.26829 34.0349C5.67563 34.0349 6.00582 33.7048 6.00582 33.2973V18.7102L10.7561 4.90651H31.5993C32.0067 4.90651 32.3369 4.57642 32.3369 4.16898C32.3369 3.76155 32.0067 3.43145 31.5993 3.43145H10.9672V1.71339L13.4615 2.40874C13.5909 2.44483 13.7281 2.44483 13.8576 2.40874L17.1053 1.5033L20.3531 2.40874C20.4826 2.44483 20.6197 2.44483 20.7492 2.40874L23.997 1.5033L27.2447 2.40874C27.3742 2.44483 27.5114 2.44483 27.6408 2.40874L30.8887 1.5033L34.1365 2.40874C34.2663 2.44483 34.4035 2.44483 34.5332 2.40855L37.032 1.70974V3.43136H34.0167C33.6093 3.43136 33.2791 3.76145 33.2791 4.16889C33.2791 4.57632 33.6093 4.90642 34.0167 4.90642H36.7358L32.1105 18.3469C32.0839 18.424 32.0703 18.5052 32.0703 18.5868V46.5249H6.00582V35.7149C6.00582 35.3074 5.67563 34.9773 5.26829 34.9773C4.86095 34.9773 4.53076 35.3074 4.53076 35.7149V47.2625C4.53076 47.6699 4.86095 48 5.26829 48H32.8082C32.8322 48 32.8563 47.9987 32.8803 47.9964C32.892 47.9952 32.9032 47.9931 32.9146 47.9915C32.9266 47.9897 32.9387 47.9883 32.9507 47.986C32.9648 47.9832 32.9786 47.9795 32.9924 47.9759C33.0016 47.9736 33.0106 47.9716 33.0197 47.9688C33.0344 47.9645 33.0486 47.9591 33.063 47.9539C33.0696 47.9515 33.0765 47.9496 33.083 47.947L33.0944 47.9425C33.0948 47.9423 33.0955 47.9421 33.0961 47.9418L43.0066 43.9649C43.2863 43.8526 43.4695 43.5817 43.4695 43.2804V18.5868C43.4692 18.5052 43.4556 18.424 43.4291 18.3469ZM41.994 42.7815L33.5457 46.1717V18.7102L37.7698 6.43548L41.9939 18.7101V42.7815H41.994Z" fill="black"/>
<path d="M12.1549 33.1514C11.7999 33.6582 11.7069 34.2195 11.8932 34.7319C12.1944 35.5607 12.7876 36.2434 13.6565 36.761C14.0236 36.9797 14.3636 37.2454 14.6704 37.5539C14.9757 37.8574 15.2414 38.1974 15.4602 38.5647C15.9779 39.4335 16.6606 40.0267 17.4893 40.328C17.6618 40.3907 17.8413 40.4225 18.023 40.4225H18.0232C18.9886 40.4225 19.9129 39.528 20.559 37.9684C21.3555 36.0461 21.5955 33.36 20.2464 32.0112L20.2157 31.9804C19.5832 31.3479 18.6074 31.0137 17.3939 31.0137C15.3309 31.0136 12.9806 31.9725 12.1549 33.1514ZM19.1978 33.0485C19.9958 33.8464 19.8237 35.8897 19.1963 37.4039C18.7178 38.5589 18.1903 38.9476 18.0233 38.9475C18.0163 38.9475 18.0072 38.9469 17.9933 38.9417C17.4924 38.7596 17.0665 38.3788 16.7274 37.8097C16.4454 37.3363 16.1032 36.8983 15.7134 36.5109C15.3226 36.1178 14.8846 35.7756 14.4115 35.4937C13.8424 35.1547 13.4616 34.7288 13.2794 34.2279C13.2563 34.1643 13.3219 34.0564 13.3631 33.9976C13.8519 33.2999 15.7192 32.4886 17.394 32.4886C18.1961 32.4886 18.8279 32.6787 19.1768 33.0274L19.1978 33.0485Z" fill="black"/>
<path d="M21.8658 23.8065C21.5163 23.674 21.1509 23.6069 20.7797 23.6069C19.5138 23.6069 18.3618 24.4023 17.9131 25.5861C17.3523 27.0649 17.3963 30.3162 19.1463 30.9798C19.344 31.0548 19.5561 31.0927 19.7767 31.0927H19.7768C21.4622 31.0927 23.2165 28.8907 23.6453 27.7593C24.2446 26.1791 23.4464 24.4059 21.8658 23.8065ZM22.2662 27.2364C21.9097 28.1767 20.5126 29.6177 19.777 29.6176C19.7351 29.6176 19.6999 29.612 19.6695 29.6005C19.0997 29.3844 18.8673 27.2308 19.2925 26.1091C19.5255 25.4948 20.1232 25.0821 20.7799 25.0821C20.9719 25.0821 21.1613 25.117 21.3431 25.186C22.1628 25.4967 22.5769 26.4166 22.2662 27.2364Z" fill="black"/>
<path d="M14.2588 24.4731C14.0775 24.4731 13.8949 24.4915 13.716 24.5276C13.001 24.672 12.385 25.0862 11.9816 25.6939C11.5781 26.3016 11.4354 27.03 11.5798 27.745C11.8263 28.9648 13.2151 31.2054 14.7451 31.2056H14.7453C14.851 31.2056 14.9562 31.1952 15.0585 31.1746C16.6929 30.8445 17.2088 28.0269 16.9334 26.6638C16.6771 25.3944 15.5523 24.4731 14.2588 24.4731ZM14.7665 29.7287C14.7601 29.73 14.7532 29.7306 14.7453 29.7306C14.251 29.7305 13.2063 28.347 13.0257 27.453C12.9594 27.1242 13.025 26.7893 13.2104 26.5098C13.396 26.2304 13.6792 26.0399 14.008 25.9735C14.0908 25.9567 14.1752 25.9482 14.2587 25.9482C14.8528 25.9482 15.3695 26.372 15.4875 26.9558C15.6876 27.946 15.1796 29.6452 14.7665 29.7287Z" fill="black"/>
<path d="M28.4147 30.3555C27.9659 29.1718 26.8138 28.3765 25.5481 28.3765C25.1769 28.3765 24.8114 28.4436 24.4619 28.5761C23.728 28.8543 22.8223 29.5191 22.1546 30.2696C21.2608 31.2742 20.9366 32.2705 21.2416 33.0751C21.77 34.4687 23.7863 34.6191 24.6286 34.6191C25.383 34.6191 26.1144 34.5059 26.6352 34.3084C28.2157 33.7092 29.0138 31.936 28.4147 30.3555ZM26.1123 32.9292C25.7626 33.0618 25.1942 33.1441 24.6286 33.1441C23.5123 33.1441 22.7312 32.8432 22.6208 32.5522C22.5456 32.3537 22.7125 31.8617 23.2566 31.2501C23.8465 30.5872 24.5659 30.1142 24.9847 29.9554C25.1665 29.8866 25.356 29.8515 25.5479 29.8515C26.2046 29.8515 26.8024 30.2641 27.0354 30.8785C27.3462 31.6984 26.9321 32.6184 26.1123 32.9292Z" fill="black"/>
<path d="M25.5578 35.2877C25.3309 35.2419 25.0701 35.2188 24.7825 35.2188C23.4388 35.2188 21.335 35.7365 21.047 37.1627C20.8929 37.9256 21.3186 38.7591 22.2457 39.5098C22.9265 40.061 23.8022 40.5053 24.4765 40.6415C24.6554 40.6776 24.8381 40.696 25.0194 40.696C26.3128 40.696 27.4377 39.7747 27.6941 38.5054C27.9922 37.0292 27.0339 35.586 25.5578 35.2877ZM26.2481 38.2132C26.1301 38.7971 25.6134 39.2207 25.0193 39.2207C24.9358 39.2207 24.8514 39.2123 24.7684 39.1954C24.3931 39.1196 23.7249 38.8095 23.1739 38.3633C22.6327 37.925 22.4689 37.5735 22.4928 37.4549C22.5522 37.1613 23.624 36.6939 24.7824 36.6939C25.0187 36.6939 25.1758 36.7157 25.2657 36.7337C25.9445 36.8708 26.3851 37.5346 26.2481 38.2132Z" fill="black"/>
</g>
<defs>
<clipPath id="clip0_121_49">
<rect width="48" height="48" fill="white"/>
</clipPath>
</defs>
</svg>
