<svg width="48" height="48" viewBox="0 0 48 48" fill="none" xmlns="http://www.w3.org/2000/svg">
<g clip-path="url(#clip0_121_48)">
<path d="M38.9356 17.2524C38.7089 21.9018 30.2462 25.6395 19.8389 25.6395C9.43164 25.6395 0.968753 21.9018 0.74216 17.2524H0.736816V23.1774C0.736816 27.9152 9.28914 31.7559 19.8389 31.7559C30.3887 31.7559 38.941 27.9153 38.941 23.1774V17.2524H38.9356Z" fill="#F16767"/>
<path d="M19.8389 14.7439C27.9288 14.7439 34.8437 17.0024 37.6288 20.1919C38.4757 19.222 38.941 18.1662 38.941 17.0614C38.941 12.3237 30.3887 8.48291 19.8389 8.48291C9.28914 8.48291 0.736816 12.3237 0.736816 17.0616C0.736816 18.1662 1.20219 19.2221 2.04903 20.1921C4.83406 17.0024 11.749 14.7439 19.8389 14.7439Z" fill="#F16767" fill-opacity="0.33"/>
<path d="M38.9356 17.2524V17.2526C38.9322 17.3216 38.9267 17.3903 38.9197 17.459C38.9174 17.4818 38.914 17.5043 38.9113 17.5271C38.9058 17.5728 38.9002 17.6185 38.8932 17.664C38.889 17.6912 38.8838 17.7184 38.879 17.7456C38.8718 17.7864 38.8645 17.8273 38.856 17.8681C38.85 17.897 38.8433 17.9257 38.8367 17.9544C38.8278 17.9933 38.8185 18.032 38.8083 18.0706C38.8006 18.1002 38.7924 18.1299 38.784 18.1595C38.7733 18.197 38.7619 18.2345 38.7503 18.2718C38.7408 18.3019 38.7313 18.3318 38.7212 18.3618C38.7087 18.3985 38.6954 18.4353 38.6819 18.4718C38.6708 18.5019 38.6598 18.5319 38.6482 18.5618C38.6339 18.5983 38.6184 18.6347 38.6031 18.671C38.5906 18.7006 38.5785 18.7305 38.5652 18.7601C38.5486 18.7973 38.5305 18.8343 38.5127 18.8713C38.4991 18.8997 38.4864 18.9281 38.4722 18.9564C38.4411 19.0181 38.4086 19.0797 38.3746 19.1409C38.3558 19.1749 38.3355 19.2084 38.3158 19.2421C38.2984 19.2719 38.2814 19.3018 38.2633 19.3315C38.2416 19.367 38.2187 19.4021 38.1962 19.4375C38.1785 19.4648 38.1612 19.4924 38.143 19.5198C38.1188 19.5561 38.0938 19.5922 38.0687 19.6282C38.0506 19.6541 38.0326 19.6799 38.014 19.7058C37.9874 19.7427 37.9601 19.7795 37.9322 19.8162C37.914 19.8404 37.8955 19.8646 37.8767 19.8887C37.8473 19.9267 37.8173 19.9645 37.7867 20.0021C37.7688 20.024 37.7508 20.0456 37.7327 20.0675C37.6997 20.107 37.6665 20.1466 37.6322 20.186C37.6165 20.2041 37.6002 20.2221 37.5842 20.2401C37.5464 20.2826 37.5083 20.3252 37.469 20.3674C37.4597 20.3773 37.4501 20.3872 37.4407 20.3972C37.2375 20.6133 37.0152 20.8248 36.7747 21.0314C36.772 21.0337 36.7693 21.0361 36.7666 21.0384C36.7098 21.087 36.6519 21.1352 36.5931 21.1832C36.5843 21.1905 36.5755 21.1977 36.5667 21.2049C36.5095 21.2514 36.4512 21.2976 36.3921 21.3436C36.3818 21.3517 36.3715 21.3596 36.3612 21.3677C36.3015 21.4137 36.2408 21.4597 36.1792 21.5052C36.1701 21.512 36.1609 21.5187 36.1517 21.5255C36.0875 21.5727 36.0225 21.6197 35.9563 21.6663C35.9521 21.6692 35.9477 21.6722 35.9435 21.6752C32.5504 24.059 26.6063 25.6398 19.839 25.6398C18.9848 25.6398 18.1455 25.6122 17.3212 25.5634C16.3028 26.2595 15.6377 27.398 15.6377 28.6824C15.6377 29.8891 16.2251 30.9666 17.1408 31.6701C18.0224 31.7263 18.9229 31.7561 19.839 31.7561C29.8413 31.7561 38.0466 28.3036 38.8715 23.9076C38.9165 23.641 38.9411 23.3949 38.9411 23.1777V17.2528H38.9356V17.2524H38.9356Z" fill="#BF5353"/>
<path d="M38.9357 17.2524V17.2526C38.9323 17.3216 38.9269 17.3903 38.9198 17.459C38.9175 17.4818 38.9141 17.5043 38.9114 17.5271C38.906 17.5728 38.9003 17.6185 38.8933 17.664C38.8891 17.6912 38.8839 17.7184 38.8791 17.7456C38.8719 17.7864 38.8646 17.8273 38.8561 17.8681C38.8501 17.897 38.8434 17.9257 38.8369 17.9544C38.828 17.9933 38.8186 18.032 38.8085 18.0706C38.8007 18.1002 38.7925 18.1299 38.7841 18.1595C38.7734 18.197 38.7621 18.2345 38.7504 18.2718C38.741 18.3019 38.7314 18.3318 38.7213 18.3618C38.7088 18.3985 38.6955 18.4353 38.682 18.4718C38.6709 18.5019 38.66 18.5319 38.6483 18.5618C38.634 18.5983 38.6185 18.6347 38.6032 18.671C38.5907 18.7006 38.5786 18.7305 38.5653 18.7601C38.5487 18.7973 38.5306 18.8343 38.5129 18.8713C38.4993 18.8997 38.4865 18.9281 38.4723 18.9564C38.4412 19.0181 38.4087 19.0797 38.3747 19.1409C38.3559 19.1749 38.3356 19.2084 38.3159 19.2421C38.2986 19.2719 38.2815 19.3018 38.2634 19.3315C38.2417 19.367 38.2189 19.4021 38.1963 19.4375C38.1786 19.4648 38.1613 19.4924 38.1431 19.5198C38.1189 19.5561 38.0939 19.5922 38.0688 19.6282C38.0507 19.6541 38.0327 19.6799 38.0141 19.7058C37.9875 19.7427 37.9602 19.7795 37.9324 19.8162C37.9141 19.8404 37.8956 19.8646 37.8769 19.8887C37.8474 19.9267 37.8174 19.9645 37.7868 20.0021C37.769 20.024 37.751 20.0456 37.7329 20.0675C37.6999 20.107 37.6666 20.1466 37.6324 20.186C37.6166 20.2041 37.6003 20.2221 37.5844 20.2401C37.5465 20.2826 37.5084 20.3252 37.4692 20.3674C37.4599 20.3773 37.4502 20.3872 37.4408 20.3972C37.2376 20.6133 37.0153 20.8248 36.7748 21.0314C36.7721 21.0337 36.7694 21.0361 36.7667 21.0384C36.7502 21.0526 36.7328 21.0666 36.7162 21.0806V23.1775C36.7162 23.3947 36.6917 23.6408 36.6466 23.9074C35.8529 28.1363 28.229 31.4915 18.7461 31.7405C19.108 31.7499 19.4718 31.756 19.839 31.756C29.8413 31.756 38.0467 28.3035 38.8716 23.9075C38.9166 23.6409 38.9411 23.3948 38.9411 23.1776V17.2527H38.9357V17.2524Z" fill="#853C3C"/>
<path d="M47.2776 30.6565C46.8689 30.6456 46.5334 30.9694 46.5239 31.376C46.4294 35.4588 43.0283 38.7802 38.9424 38.7802H9.31769C9.37459 38.6757 9.40694 38.5558 9.40694 38.4284V37.1472C9.40694 35.6596 8.19672 34.4494 6.7091 34.4494C5.10879 34.4494 3.80688 35.7514 3.80688 37.3517C3.80688 38.952 5.10879 40.2539 6.7091 40.2539H38.9426C41.3247 40.2539 43.5741 39.3365 45.2765 37.6709C46.976 36.0078 47.9424 33.7844 47.9974 31.41C48.0066 31.0034 47.6845 30.6659 47.2776 30.6565ZM6.7091 38.7803C5.92132 38.7803 5.28054 38.1394 5.28054 37.3517C5.28054 36.5639 5.92132 35.9231 6.7091 35.9231C7.38419 35.9231 7.93328 36.4722 7.93328 37.1473V38.4285C7.93328 38.5559 7.96563 38.6758 8.02253 38.7803H6.7091Z" fill="black"/>
<path d="M22.0137 27.9209H21.263C20.856 27.9209 20.5261 28.2508 20.5261 28.6578C20.5261 29.0647 20.856 29.3946 21.263 29.3946H22.0137C22.4206 29.3946 22.7505 29.0647 22.7505 28.6578C22.7505 28.2508 22.4206 27.9209 22.0137 27.9209Z" fill="black"/>
<path d="M25.9841 27.551L25.2435 27.6739C24.8421 27.7406 24.5706 28.1201 24.6373 28.5215C24.6971 28.8822 25.0094 29.1378 25.3634 29.1378C25.4035 29.1378 25.4441 29.1345 25.4849 29.1278L26.2254 29.0049C26.6268 28.9382 26.8983 28.5587 26.8317 28.1573C26.765 27.7558 26.385 27.4846 25.9841 27.551Z" fill="black"/>
<path d="M29.9695 26.614L29.2428 26.8021C28.8489 26.9041 28.6122 27.3061 28.7141 27.7C28.8001 28.0321 29.0991 28.2525 29.4269 28.2525C29.488 28.2525 29.5501 28.2448 29.6119 28.2288L30.3386 28.0407C30.7325 27.9387 30.9692 27.5367 30.8673 27.1428C30.7656 26.7488 30.3631 26.512 29.9695 26.614Z" fill="black"/>
<path d="M39.6778 19.4849V17.2527C39.6778 17.2316 39.6763 17.2108 39.6746 17.1901C39.6758 17.1471 39.6778 17.1044 39.6778 17.0614C39.6778 14.4624 37.5364 12.0696 33.6479 10.3233C29.9472 8.66119 25.043 7.74609 19.8389 7.74609C14.6347 7.74609 9.73048 8.66137 6.02971 10.3233C2.14143 12.0696 0 14.4625 0 17.0615C0 17.1043 0.0020625 17.1469 0.00318749 17.1896C0.00140625 17.2103 0 17.2314 0 17.2527V23.1777C0 25.7766 2.14143 28.1695 6.0298 29.9158C9.73058 31.5777 14.6347 32.493 19.839 32.493C25.0431 32.493 29.9473 31.5777 33.648 29.9158C37.5365 28.1695 39.6779 25.7766 39.6779 23.1777V20.9649C43.5158 21.3359 46.5263 24.5786 46.5263 28.5121V28.9782C46.5263 29.3851 46.8563 29.715 47.2632 29.715C47.6702 29.715 48.0001 29.3851 48.0001 28.9782V28.5121C47.9999 23.7655 44.3295 19.8604 39.6778 19.4849ZM1.47375 23.1777V20.6523C1.48068 20.6603 1.48697 20.6685 1.49409 20.6764C1.51884 20.7049 1.54612 20.7302 1.57453 20.7542C3.18449 22.546 5.9684 24.0659 9.64133 25.0816C10.0336 25.19 10.4395 24.9601 10.548 24.5678C10.6564 24.1756 10.4265 23.7696 10.0342 23.6612C6.95174 22.8088 4.54096 21.5824 3.07387 20.1889C6.0583 17.3524 12.6486 15.4806 19.8391 15.4806C27.0284 15.4806 33.6178 17.3519 36.6029 20.1876C35.7082 21.0393 34.4595 21.8328 32.9084 22.5152C29.4087 24.0549 24.7673 24.9029 19.8391 24.9029C17.2295 24.9029 14.7057 24.6672 12.338 24.2025C11.9386 24.1235 11.5515 24.3842 11.4731 24.7836C11.3947 25.1829 11.6549 25.5702 12.0543 25.6486C13.2304 25.8795 14.4431 26.0553 15.6837 26.1767C15.1812 26.9128 14.901 27.7818 14.901 28.6823C14.901 29.4252 15.0875 30.1408 15.4322 30.7801C7.52239 29.9121 1.47375 26.7823 1.47375 23.1777ZM38.2041 23.1777C38.2041 27.4282 29.7939 31.0192 19.8389 31.0192C19.0217 31.0192 18.2152 30.9945 17.4227 30.9478C16.7543 30.3609 16.3743 29.5469 16.3743 28.6824C16.3743 27.771 16.8077 26.9031 17.5432 26.3162C18.3004 26.356 19.0661 26.3767 19.8389 26.3767C24.9669 26.3767 29.8191 25.4844 33.5017 23.8642C35.544 22.9656 37.1185 21.8875 38.1669 20.6939C38.1724 20.688 38.1785 20.6825 38.1837 20.6765C38.1902 20.669 38.1962 20.6615 38.2027 20.654C38.2031 20.6536 38.2036 20.6529 38.2041 20.6524V23.1777ZM38.1961 17.2609C38.194 17.2954 38.1914 17.3297 38.1881 17.364C38.1844 17.4018 38.1794 17.4396 38.1745 17.4774C38.103 18.0102 37.8937 18.5415 37.556 19.0607C34.2391 15.9683 27.4424 14.0067 19.8389 14.0067C12.2341 14.0067 5.43618 15.9689 2.11987 19.0624C1.8825 18.6969 1.70765 18.3244 1.60059 17.9481C1.59759 17.9373 1.5944 17.9262 1.59131 17.9153C1.57397 17.8519 1.55897 17.7884 1.54547 17.7248C1.54087 17.7027 1.53637 17.6805 1.53225 17.6584C1.52175 17.6034 1.51265 17.5483 1.50515 17.4932C1.50112 17.4636 1.49765 17.4341 1.49456 17.4046C1.48903 17.3539 1.48434 17.3034 1.48134 17.2527C1.4775 17.1889 1.47365 17.1253 1.47365 17.0615C1.47365 12.811 9.88386 9.21993 19.8389 9.21993C29.7939 9.21993 38.2041 12.8109 38.2041 17.0615C38.2041 17.128 38.2003 17.1944 38.1961 17.2609Z" fill="black"/>
</g>
<defs>
<clipPath id="clip0_121_48">
<rect width="48" height="48" fill="white"/>
</clipPath>
</defs>
</svg>
