<svg width="48" height="48" viewBox="0 0 48 48" fill="none" xmlns="http://www.w3.org/2000/svg">
<g clip-path="url(#clip0_121_47)">
<path d="M46.7722 5.95251L42.0216 1.20191C41.3703 0.550535 40.3141 0.550535 39.6627 1.20191L34.0161 6.84848L41.1257 13.958L46.7722 8.31146C47.4236 7.65999 47.4236 6.60389 46.7722 5.95251Z" fill="#C7AC91"/>
<path d="M46.7722 5.95251L45.1942 4.37451C45.8456 5.02589 45.8456 6.08208 45.1942 6.73345L39.5476 12.38L41.1256 13.958L46.7722 8.31146C47.4237 7.66008 47.4237 6.60398 46.7722 5.95251Z" fill="#B7987D"/>
<path d="M40.7095 13.4615L34.5124 7.26441C31.6123 4.36434 26.9104 4.36434 24.0104 7.26441L1.42393 29.8511C0.510709 30.7643 0.510709 32.2449 1.42393 33.158L14.816 46.55C15.7292 47.4633 17.2098 47.4633 18.1229 46.55L40.7095 23.9635C43.6095 21.0634 43.6095 16.3615 40.7095 13.4615Z" fill="#F16767"/>
<path d="M40.7094 13.4614L39.1415 11.8936C42.0415 14.7936 42.0415 19.4956 39.1415 22.3955L16.555 44.9822C15.6418 45.8954 14.1612 45.8954 13.248 44.9822L14.8159 46.5501C15.7291 47.4633 17.2097 47.4633 18.1229 46.5501L40.7094 23.9635C43.6094 21.0634 43.6094 16.3615 40.7094 13.4614Z" fill="#C91C00"/>
<path d="M22.3376 25.1266C22.3376 25.1205 22.3376 25.0966 22.3376 25.0904C22.3376 22.3321 16.5601 19.5861 15.7318 21.3607C15.37 22.1356 15.4178 22.945 15.5865 23.611C15.7107 24.1011 15.7719 24.605 15.7704 25.1086C15.7719 25.6122 15.7107 26.116 15.5865 26.6061C15.418 27.2721 15.3701 28.0815 15.7318 28.8564C16.5601 30.631 22.3376 27.8849 22.3376 25.1266Z" fill="#FFB84C"/>
<path d="M26.3818 19.4591C25.1766 20.0018 23.1947 22.069 23.7373 23.2743C24.28 24.4795 27.1415 24.3664 28.3468 23.8238C29.552 23.2811 30.0892 21.8642 29.5467 20.659C29.0041 19.4539 27.5871 18.9164 26.3818 19.4591Z" fill="#FFB84C"/>
<path d="M20.5283 16.1519C19.9022 17.0948 19.4087 19.4971 20.3517 20.1231C21.2946 20.7492 23.317 19.3621 23.943 18.4191C24.5691 17.4762 24.3122 16.2043 23.3692 15.5781C22.4263 14.9521 21.1543 15.2089 20.5283 16.1519Z" fill="#FFB84C"/>
<path d="M26.3818 30.7587C25.1766 30.2161 23.1947 28.1488 23.7373 26.9436C24.28 25.7383 27.1415 25.8515 28.3468 26.3941C29.552 26.9367 30.0892 28.3537 29.5467 29.5588C29.0041 30.764 27.5871 31.3013 26.3818 30.7587Z" fill="#FFB84C"/>
<path d="M20.5283 34.0657C19.9022 33.1227 19.4087 30.7205 20.3517 30.0944C21.2946 29.4683 23.317 30.8555 23.943 31.7984C24.5691 32.7413 24.3122 34.0132 23.3692 34.6394C22.4263 35.2656 21.1543 35.0086 20.5283 34.0657Z" fill="#FFB84C"/>
<path d="M38.5162 7.198C38.327 7.198 38.138 7.12591 37.9936 6.98154C37.7049 6.69288 37.7049 6.22488 37.9937 5.93641L38.8611 5.06903C39.1498 4.78037 39.6178 4.78037 39.9063 5.06903C40.1948 5.35769 40.1949 5.82569 39.9062 6.11416L39.0387 6.98154C38.8945 7.12582 38.7053 7.198 38.5162 7.198Z" fill="black"/>
<path d="M16.8868 30.1845C15.7008 30.1845 15.2344 29.5646 15.0619 29.1952C14.6804 28.3778 14.6157 27.4545 14.8699 26.4509C14.9783 26.0233 15.0324 25.5813 15.0312 25.137C15.0326 24.6883 14.9784 24.2463 14.8699 23.8186C14.6157 22.8151 14.6804 21.8917 15.0619 21.0743C15.2343 20.7047 15.7008 20.085 16.8868 20.085C18.0124 20.085 19.5006 20.6516 20.7709 21.5638C21.632 22.1822 23.0764 23.466 23.0764 25.1165V25.1528C23.0764 26.8035 21.6318 28.0873 20.7709 28.7058C19.5007 29.6179 18.0124 30.1845 16.8868 30.1845ZM16.8868 21.5631C16.6305 21.5631 16.44 21.6167 16.4013 21.6995C16.1677 22.2002 16.1345 22.791 16.3029 23.4556C16.4415 24.0033 16.511 24.569 16.5093 25.1369C16.5111 25.7002 16.4415 26.266 16.3029 26.8137C16.1345 27.4784 16.1677 28.0691 16.4013 28.5698C16.44 28.6527 16.6305 28.7062 16.8868 28.7062C17.6937 28.7062 18.9081 28.2236 19.9086 27.5051C20.9666 26.7454 21.5983 25.8659 21.5983 25.1528V25.1165C21.5983 23.4814 18.4841 21.5631 16.8868 21.5631Z" fill="black"/>
<path d="M26.1581 24.9797C24.562 24.9797 23.4628 24.4909 23.0633 23.6034C22.2783 21.8595 24.6016 19.4757 26.0784 18.8109C26.4863 18.6274 26.9184 18.5342 27.363 18.5342C28.5938 18.5342 29.7155 19.2591 30.2206 20.3812C30.564 21.1442 30.5899 21.9952 30.2933 22.7775C29.9966 23.5598 29.413 24.1798 28.6502 24.5233C28.0154 24.8092 27.0837 24.9797 26.1581 24.9797ZM27.3628 20.0124C27.1289 20.0124 26.9008 20.0617 26.6851 20.1589C25.5536 20.6682 24.1509 22.4188 24.4111 22.9968C24.5241 23.2477 25.1604 23.5017 26.1581 23.5017C26.8634 23.5017 27.6034 23.3738 28.0433 23.1758C28.875 22.8013 29.2471 21.8201 28.8726 20.9883C28.6058 20.3953 28.0131 20.0124 27.3628 20.0124Z" fill="black"/>
<path d="M20.9289 21.0448C20.5547 21.0448 20.2231 20.9505 19.9429 20.7646C19.2826 20.3263 18.9891 19.4172 19.1165 18.2049C19.2105 17.312 19.5229 16.3557 19.9126 15.7689C20.4308 14.9884 21.2999 14.5225 22.2376 14.5225C22.7866 14.5225 23.3192 14.6835 23.778 14.9882C24.3985 15.4002 24.8214 16.0291 24.969 16.7592C25.1164 17.4894 24.9708 18.2333 24.5587 18.8537C23.9514 19.7684 22.2765 21.0448 20.9289 21.0448ZM22.2377 16.0005C21.7965 16.0005 21.3877 16.2196 21.1441 16.5864C20.925 16.9163 20.6631 17.6312 20.5867 18.3593C20.511 19.0799 20.6531 19.4617 20.7606 19.533C20.7932 19.5547 20.8531 19.5666 20.9289 19.5666C21.6278 19.5666 22.8931 18.6901 23.3275 18.0359C23.5211 17.7444 23.5895 17.3948 23.5202 17.0517C23.451 16.7087 23.2521 16.4131 22.9606 16.2195C22.7449 16.0763 22.4949 16.0005 22.2377 16.0005Z" fill="black"/>
<path d="M27.3627 31.7347C26.9182 31.7347 26.486 31.6417 26.0782 31.4579C24.6015 30.793 22.278 28.4093 23.0631 26.6654C23.4627 25.7778 24.5618 25.2891 26.1579 25.2891C27.0836 25.2891 28.0153 25.4596 28.6498 25.7453C30.2247 26.4544 30.9292 28.3125 30.2203 29.8874C29.7152 31.0097 28.5936 31.7347 27.3627 31.7347ZM26.1581 26.7673C25.1604 26.7673 24.5241 27.0214 24.411 27.2723C24.1508 27.8503 25.5536 29.6007 26.685 30.1102C26.9008 30.2073 27.1288 30.2565 27.3627 30.2565C28.0131 30.2565 28.6056 29.8735 28.8724 29.2808C29.2468 28.4491 28.8748 27.4678 28.0431 27.0934C27.6033 26.8954 26.8633 26.7673 26.1581 26.7673Z" fill="black"/>
<path d="M22.2377 35.7464C21.2999 35.7464 20.4307 35.2805 19.9126 34.5001C19.5229 33.9131 19.2105 32.957 19.1165 32.0641C18.9891 30.8518 19.2826 29.9427 19.9429 29.5043C20.2231 29.3184 20.5546 29.2241 20.9288 29.2241C22.2765 29.2241 23.9513 30.5003 24.5589 31.4153C24.9709 32.0359 25.1165 32.7797 24.9692 33.5098C24.8216 34.2399 24.3987 34.8689 23.7782 35.2809C23.3193 35.5854 22.7866 35.7464 22.2377 35.7464ZM20.9287 30.7022C20.8528 30.7022 20.7931 30.7141 20.7605 30.7357C20.653 30.8071 20.5109 31.1888 20.5866 31.9095C20.6631 32.6377 20.9251 33.3526 21.144 33.6825C21.3875 34.0493 21.7964 34.2683 22.2377 34.2683C22.4947 34.2683 22.7447 34.1926 22.9605 34.0493C23.252 33.8558 23.451 33.5602 23.5202 33.217C23.5894 32.8739 23.521 32.5245 23.3274 32.2328C22.893 31.5787 21.6276 30.7022 20.9287 30.7022Z" fill="black"/>
<path d="M47.2948 5.4556L43.4072 1.56788L43.4071 1.56778L43.407 1.56769L42.5442 0.704908C42.0896 0.250407 41.4851 0 40.8423 0C40.1993 0 39.5949 0.250407 39.1402 0.705001L33.9715 5.87373C30.7863 3.62148 26.3377 3.9181 23.4878 6.76792L5.98251 24.273C5.69385 24.5616 5.69385 25.0296 5.98251 25.3181C6.27126 25.6067 6.73916 25.6067 7.02773 25.3181L24.5329 7.81305C26.9566 5.3896 30.7919 5.22029 33.4144 7.30201C33.4379 7.33511 33.4639 7.36708 33.4935 7.3967L40.603 14.5062C40.6331 14.5363 40.6654 14.5624 40.699 14.5863C41.6356 15.7637 42.1455 17.2115 42.1455 18.7385C42.1455 20.5246 41.4499 22.2039 40.1869 23.4669L17.6001 46.0535C17.2982 46.3555 16.8964 46.5218 16.4692 46.5218C16.042 46.5218 15.6405 46.3555 15.3383 46.0535L1.94637 32.6615C1.32275 32.0379 1.32275 31.0232 1.94637 30.3997L5.31491 27.0312C5.60357 26.7425 5.60357 26.2745 5.31491 25.9861C5.02616 25.6974 4.55825 25.6974 4.26969 25.9861L0.901152 29.3545C-0.298756 30.5544 -0.298756 32.5068 0.901152 33.7067L14.2932 47.0986C14.8744 47.6799 15.6473 48 16.4692 48C17.2913 48 18.0642 47.6798 18.6453 47.0986L41.2319 24.5119C42.774 22.9698 43.6235 20.9193 43.6235 18.7383C43.6235 17.0263 43.0979 15.3959 42.127 14.0274L47.2948 8.85949C48.2333 7.92123 48.2333 6.39414 47.2948 5.4556ZM46.2496 7.81455L41.1656 12.8985L35.1013 6.8342L40.1852 1.75022C40.3607 1.57472 40.594 1.47816 40.8422 1.47816C41.0904 1.47816 41.3236 1.57472 41.499 1.75022L41.8392 2.09044L40.5731 3.35644C40.2845 3.6451 40.2845 4.1131 40.5731 4.40157C40.7175 4.54585 40.9067 4.61804 41.0958 4.61804C41.2849 4.61804 41.4741 4.54595 41.6185 4.40157L42.8844 3.13566L46.2494 6.50083C46.6117 6.86308 46.6117 7.45239 46.2496 7.81455Z" fill="black"/>
</g>
<defs>
<clipPath id="clip0_121_47">
<rect width="48" height="48" fill="white"/>
</clipPath>
</defs>
</svg>
